<?xml version="1.0"?>
<svg xmlns="http://www.w3.org/2000/svg" xmlns:xlink="http://www.w3.org/1999/xlink" xmlns:svgjs="http://svgjs.com/svgjs" version="1.1" width="512" height="512" x="0" y="0" viewBox="0 0 512 512" style="enable-background:new 0 0 512 512" xml:space="preserve" class=""><g transform="matrix(-1.8369701987210297e-16,-1,1,-1.8369701987210297e-16,0.00049591064453125,511.9995040893556)">
<rect xmlns="http://www.w3.org/2000/svg" x="47.67" y="184.847" style="" width="77.857" height="141.67" fill="#154c85" data-original="#ff9a00" class=""/>
<rect xmlns="http://www.w3.org/2000/svg" x="47.67" y="255.672" style="" width="77.857" height="70.835" fill="#154c85" data-original="#ff8900" class=""/>
<g xmlns="http://www.w3.org/2000/svg">
	<rect x="95.521" y="171.684" style="" width="249.814" height="168.636" fill="#ffb74d" data-original="#ffb74d" class=""/>
	<rect y="171.684" style="" width="71.848" height="168.636" fill="#ffb74d" data-original="#ffb74d" class=""/>
</g>
<g xmlns="http://www.w3.org/2000/svg">
	<rect y="255.672" style="" width="71.848" height="84.638" fill="#ffa91e" data-original="#ffa91e" class=""/>
	<rect x="95.521" y="255.672" style="" width="249.814" height="84.638" fill="#ffa91e" data-original="#ffa91e" class=""/>
</g>
<path xmlns="http://www.w3.org/2000/svg" style="" d="M512,255.998l-6.431,8.832c-5.521,7.572-11.783,14.743-18.744,21.465  c-6.961,6.711-14.603,12.973-22.905,18.744c-33.217,23.075-72.726,35.278-114.255,35.278h-34.337V171.679h34.337  c41.529,0,81.037,12.203,114.255,35.278c16.594,11.532,30.607,25.055,41.649,40.209l6.201,8.512L512,255.998z" fill="#154c85" data-original="#ff9a00" class=""/>
<path xmlns="http://www.w3.org/2000/svg" style="" d="M512,255.998l-6.431,8.832c-5.521,7.572-11.783,14.743-18.744,21.465  c-6.961,6.711-14.603,12.973-22.905,18.744c-33.217,23.075-72.726,35.278-114.255,35.278h-34.337v-84.638H511.77L512,255.998z" fill="#154c85" data-original="#ff8900" class=""/>
<g xmlns="http://www.w3.org/2000/svg">
</g>
<g xmlns="http://www.w3.org/2000/svg">
</g>
<g xmlns="http://www.w3.org/2000/svg">
</g>
<g xmlns="http://www.w3.org/2000/svg">
</g>
<g xmlns="http://www.w3.org/2000/svg">
</g>
<g xmlns="http://www.w3.org/2000/svg">
</g>
<g xmlns="http://www.w3.org/2000/svg">
</g>
<g xmlns="http://www.w3.org/2000/svg">
</g>
<g xmlns="http://www.w3.org/2000/svg">
</g>
<g xmlns="http://www.w3.org/2000/svg">
</g>
<g xmlns="http://www.w3.org/2000/svg">
</g>
<g xmlns="http://www.w3.org/2000/svg">
</g>
<g xmlns="http://www.w3.org/2000/svg">
</g>
<g xmlns="http://www.w3.org/2000/svg">
</g>
<g xmlns="http://www.w3.org/2000/svg">
</g>
</g></svg>
