<svg id="Layer_1" height="512" viewBox="0 0 512 512" width="512" xmlns="http://www.w3.org/2000/svg" data-name="Layer 1"><path d="m489.11 317.41-34.49 2v79.23h17.23a6.506 6.506 0 0 0 6.3-4.88l17.64-68.23a6.507 6.507 0 0 0 -6.68-8.12z" fill="#4a5160"/><path d="m454.62 386.4v12.24h-62.39l-22.81-24.08 64.53-3.55.01-.01z" fill="#a34a54"/><path d="m433.96 371-.01.01-64.53 3.55-19.16-20.23a6.728 6.728 0 0 0 .52-2.56v-3.9l47.16-3.69.01-.01z" fill="#d86c77"/><path d="m397.95 344.17-.01.01-47.16 3.69v-38.84z" fill="#a34a54"/><path d="m357.23 444.33 18.71 21.7-40.6 8.32a6.5 6.5 0 0 1 -6.22-2.11l-14.3-16.52z" fill="#a34a54"/><path d="m357.23 444.33-42.41 11.39-13.57-15.66a4.767 4.767 0 0 0 .64-.55 6.527 6.527 0 0 0 1.9-4.6v-2l35.23-9.69z" fill="#d86c77"/><path d="m289.06 221.16v140.48l-.15.16a46.839 46.839 0 0 1 14.39 27.52h.01l44.9-32.38a6.51 6.51 0 0 0 2.05-2.61 6.728 6.728 0 0 0 .52-2.56v-85.79z" fill="#89a2ad"/><path d="m289.06 188.65v32.51l61.72 44.82v-32.5z" fill="#8f8fb7"/><path d="m350.78 228.1v5.38l-61.72-44.83v-39.15l36.62 27.92a63.739 63.739 0 0 1 25.1 50.68z" fill="#89a2ad"/><path d="m307.32 386.46 31.7 36.76-35.23 9.69v-36.79a47.637 47.637 0 0 0 -.49-6.8h.01l3.99-2.88z" fill="#a34a54"/><path d="m222.63 221.38-61.41 44.6v85.79a6.463 6.463 0 0 0 2.57 5.17l46.09 35.07h.01a46.893 46.893 0 0 1 13.05-28.59v-142.04z" fill="#89a2ad"/><path d="m222.63 188.88-61.41 44.6v32.5l61.41-44.6h.31v-32.5z" fill="#8f8fb7"/><path d="m222.94 149.26v39.62h-.31l-61.41 44.6v-5.57a63.737 63.737 0 0 1 24.85-50.5l36.56-28.15z" fill="#89a2ad"/><path d="m209.88 392.01h.01c-.12 1.36-.18 2.73-.18 4.12v37.2l-36.73-10.11 30.87-35.8z" fill="#a34a54"/><path d="m209.71 433.33v8.08l-12.47 14.33-42.47-11.41 18.21-21.11z" fill="#d86c77"/><path d="m197.24 455.74-14.36 16.5a6.5 6.5 0 0 1 -6.22 2.11l-40.6-8.32 18.71-21.7z" fill="#a34a54"/><path d="m161.77 354.39-19.13 20.17-64.59-3.55-.01-.01 36.01-26.83.01.01 47.16 3.69v3.9a6.512 6.512 0 0 0 .55 2.62z" fill="#d86c77"/><path d="m161.22 309.03v38.84l-47.16-3.69-.01-.01z" fill="#a34a54"/><path d="m142.64 374.56-22.5 23.72-62.76.28v-12.16l20.66-15.4.01.01z" fill="#a34a54"/><path d="m22.89 317.41a6.507 6.507 0 0 0 -6.68 8.12l17.64 68.23a6.506 6.506 0 0 0 6.3 4.88l17.23-.08v-79.15z" fill="#4a5160"/><path d="m288.75 145.2h-65.81v220.22l66.12-1.78v-218.44z" fill="#6d7486"/><path d="m289.06 112.7v32.5h-.31-65.81v-32.5h65.81z" fill="#8f8fb7"/><path d="m289.06 105.8v6.9h-66.12v-6.9a58.958 58.958 0 0 1 9.4-31.95l23.66-36.75 23.66 36.75a58.958 58.958 0 0 1 9.4 31.95z" fill="#4a5160"/><path d="m274.11 352.39a47.257 47.257 0 0 0 -32.63-.78l.15.43-17.29 86.61v24.25l.94.77a49.157 49.157 0 0 0 63.47-.77v-25.12z" fill="#4a5160"/><path d="m303.3 389.32a47.149 47.149 0 0 0 -29.19-36.93v65.84a23.178 23.178 0 0 0 23.18 23.18 6.444 6.444 0 0 0 3.96-1.35 4.767 4.767 0 0 0 .64-.55 6.527 6.527 0 0 0 1.9-4.6z" fill="#8f8fb7"/><path d="m241.48 351.61a47.052 47.052 0 0 0 -17.99 11.25c-.18.18-.37.37-.55.56a46.893 46.893 0 0 0 -13.05 28.59l-.18 49.4h8.73a22.939 22.939 0 0 0 5.9-.76 23.2 23.2 0 0 0 17.29-22.43v-66.18z" fill="#8f8fb7"/><g fill="#6d7486"><path d="m350.78 238.18v70.85l103.84 77.37v-66.99z"/><path d="m411.26 418.73-61-64.4-42.96 32.11.02.02 68.62 79.57 24.21-4.97a6.47 6.47 0 0 0 5.01-4.82l7.7-31.5a6.512 6.512 0 0 0 -1.6-6.01z"/><path d="m161.77 354.39-61.03 64.34a6.512 6.512 0 0 0 -1.6 6.01l7.7 31.5a6.47 6.47 0 0 0 5.01 4.82l24.21 4.97 67.79-78.61z"/><path d="m57.38 319.41v66.99l103.84-77.37v-70.85z"/></g><path d="m216.07 177.41 6.87-5.29v-22.86h-.31l-36.56 28.15a63.737 63.737 0 0 0 -24.85 50.5v5.57l32.635-23.7a63.741 63.741 0 0 1 22.215-32.37z" fill="#738991"/><path d="m136.84 456.24-7.7-31.5a6.512 6.512 0 0 1 1.6-6.01l48.226-50.842-17.2-13.5-61.03 64.34a6.512 6.512 0 0 0 -1.6 6.01l7.7 31.5a6.47 6.47 0 0 0 5.01 4.82l24.21 4.97 4.609-5.344a6.456 6.456 0 0 1 -3.825-4.444z" fill="#565b68"/><path d="m193.855 209.778-32.635 23.7v32.5l30-21.788v-16.28a63.716 63.716 0 0 1 2.635-18.132z" fill="#7a7a99"/><path d="m161.22 265.98v85.79a6.463 6.463 0 0 0 2.57 5.17l27.43 20.872v-133.62z" fill="#738991"/><path d="m255.688 315.358a6 6 0 0 1 -6-6v-89.915a6 6 0 1 1 12 0v89.915a6 6 0 0 1 -6 6z" fill="#f4f8fc"/><path d="m255.688 201.34a6 6 0 0 1 -6-6v-23.291a6 6 0 1 1 12 0v23.291a6 6 0 0 1 -6 6z" fill="#f4f8fc"/></svg>