<svg xmlns="http://www.w3.org/2000/svg" xmlns:xlink="http://www.w3.org/1999/xlink" viewBox="0 0 105.68 100.98"><defs><style>.cls-1{isolation:isolate;}.cls-11,.cls-12,.cls-13,.cls-14,.cls-15,.cls-16,.cls-17,.cls-18,.cls-19,.cls-2,.cls-20,.cls-21,.cls-22,.cls-23,.cls-24,.cls-25,.cls-26,.cls-27,.cls-28,.cls-29,.cls-30,.cls-31,.cls-32,.cls-33,.cls-34,.cls-35,.cls-36,.cls-37,.cls-38,.cls-39,.cls-4,.cls-41,.cls-5,.cls-7,.cls-8,.cls-9{fill-rule:evenodd;}.cls-2{fill:url(#Áåçûìÿííûé_ãðàäèåíò_331);}.cls-3{opacity:0.4;mix-blend-mode:multiply;}.cls-4{fill:#b9bfe2;}.cls-5{fill:url(#Áåçûìÿííûé_ãðàäèåíò_407);}.cls-10,.cls-11,.cls-27,.cls-28,.cls-29,.cls-30,.cls-31,.cls-32,.cls-33,.cls-34,.cls-38,.cls-39,.cls-40,.cls-41,.cls-42,.cls-6,.cls-8{mix-blend-mode:screen;}.cls-6{fill:url(#Áåçûìÿííûé_ãðàäèåíò_432);}.cls-7{fill:url(#Áåçûìÿííûé_ãðàäèåíò_373);}.cls-8{fill:url(#Áåçûìÿííûé_ãðàäèåíò_432-2);}.cls-9{fill:url(#Áåçûìÿííûé_ãðàäèåíò_388);}.cls-10{fill:url(#Áåçûìÿííûé_ãðàäèåíò_432-3);}.cls-11{fill:url(#Áåçûìÿííûé_ãðàäèåíò_197);}.cls-12{fill:#004a59;}.cls-13{fill:url(#Áåçûìÿííûé_ãðàäèåíò_398);}.cls-14{fill:url(#Áåçûìÿííûé_ãðàäèåíò_398-2);}.cls-15{fill:#00777a;}.cls-16{fill:url(#Áåçûìÿííûé_ãðàäèåíò_398-3);}.cls-17{fill:#006d7a;}.cls-18{fill:url(#Áåçûìÿííûé_ãðàäèåíò_365);}.cls-19{fill:url(#Áåçûìÿííûé_ãðàäèåíò_365-2);}.cls-20{fill:url(#Áåçûìÿííûé_ãðàäèåíò_365-3);}.cls-21{fill:url(#Áåçûìÿííûé_ãðàäèåíò_365-4);}.cls-22{fill:url(#Áåçûìÿííûé_ãðàäèåíò_365-5);}.cls-23{fill:url(#Áåçûìÿííûé_ãðàäèåíò_365-6);}.cls-24{fill:url(#Áåçûìÿííûé_ãðàäèåíò_365-7);}.cls-25{fill:url(#Áåçûìÿííûé_ãðàäèåíò_388-2);}.cls-26{fill:url(#Áåçûìÿííûé_ãðàäèåíò_388-3);}.cls-27{fill:url(#Áåçûìÿííûé_ãðàäèåíò_415);}.cls-28{fill:url(#Áåçûìÿííûé_ãðàäèåíò_419);}.cls-29{fill:url(#Áåçûìÿííûé_ãðàäèåíò_419-2);}.cls-30{fill:url(#Áåçûìÿííûé_ãðàäèåíò_419-3);}.cls-31{fill:url(#Áåçûìÿííûé_ãðàäèåíò_419-4);}.cls-32{fill:url(#Áåçûìÿííûé_ãðàäèåíò_419-5);}.cls-33{fill:url(#Áåçûìÿííûé_ãðàäèåíò_419-6);}.cls-34{fill:url(#Áåçûìÿííûé_ãðàäèåíò_419-7);}.cls-35{fill:#ffff8d;}.cls-36{fill:url(#Áåçûìÿííûé_ãðàäèåíò_398-4);}.cls-37{fill:url(#Áåçûìÿííûé_ãðàäèåíò_365-8);}.cls-38{fill:url(#Áåçûìÿííûé_ãðàäèåíò_419-8);}.cls-39{fill:url(#Áåçûìÿííûé_ãðàäèåíò_432-4);}.cls-40{fill:url(#Áåçûìÿííûé_ãðàäèåíò_432-5);}.cls-41{fill:url(#Áåçûìÿííûé_ãðàäèåíò_432-6);}.cls-42{fill:url(#Áåçûìÿííûé_ãðàäèåíò_432-7);}</style><radialGradient id="Áåçûìÿííûé_ãðàäèåíò_331" cx="25.48" cy="28.37" r="76.1" gradientUnits="userSpaceOnUse"><stop offset="0.01" stop-color="#0cc463"/><stop offset="0.21" stop-color="#0cc163"/><stop offset="0.36" stop-color="#0bb765"/><stop offset="0.5" stop-color="#09a767"/><stop offset="0.63" stop-color="#078f6b"/><stop offset="0.76" stop-color="#04726f"/><stop offset="0.87" stop-color="#004f74"/></radialGradient><linearGradient id="Áåçûìÿííûé_ãðàäèåíò_407" x1="87.22" y1="60.22" x2="87.22" y2="33.69" gradientUnits="userSpaceOnUse"><stop offset="0" stop-color="#007c6f"/><stop offset="0.66" stop-color="#29d73b"/><stop offset="0.99" stop-color="#3bff24"/></linearGradient><radialGradient id="Áåçûìÿííûé_ãðàäèåíò_432" cx="-20.96" cy="157.36" r="10.23" gradientTransform="matrix(0, 1.67, -1.25, 0, 249.62, 113.25)" gradientUnits="userSpaceOnUse"><stop offset="0" stop-color="lime"/><stop offset="1"/></radialGradient><linearGradient id="Áåçûìÿííûé_ãðàäèåíò_373" x1="7.45" y1="37.53" x2="75.6" y2="37.53" gradientUnits="userSpaceOnUse"><stop offset="0.01" stop-color="#92ff2c"/><stop offset="0.23" stop-color="#8ffc2d"/><stop offset="0.39" stop-color="#86f332"/><stop offset="0.54" stop-color="#76e33a"/><stop offset="0.67" stop-color="#5fcd44"/><stop offset="0.8" stop-color="#42b152"/><stop offset="0.91" stop-color="#1f8e63"/><stop offset="1" stop-color="#007072"/></linearGradient><radialGradient id="Áåçûìÿííûé_ãðàäèåíò_432-2" cx="-61.73" cy="153.99" r="3.92" gradientTransform="matrix(2.39, 1.38, -0.71, 1.23, 328.01, -76.07)" xlink:href="#Áåçûìÿííûé_ãðàäèåíò_432"/><radialGradient id="Áåçûìÿííûé_ãðàäèåíò_388" cx="87.24" cy="74.47" r="6.8" gradientUnits="userSpaceOnUse"><stop offset="0.01" stop-color="#3bff24"/><stop offset="0.53" stop-color="#26d832"/><stop offset="1" stop-color="#11b140"/></radialGradient><radialGradient id="Áåçûìÿííûé_ãðàäèåíò_432-3" cx="-80.27" cy="278.25" r="7.01" gradientTransform="matrix(0, 1.67, -1.42, 0, 480.4, 179.46)" xlink:href="#Áåçûìÿííûé_ãðàäèåíò_432"/><radialGradient id="Áåçûìÿííûé_ãðàäèåíò_197" cx="20.2" cy="18.28" r="62.36" gradientUnits="userSpaceOnUse"><stop offset="0" stop-color="#ffff4a"/><stop offset="1"/></radialGradient><radialGradient id="Áåçûìÿííûé_ãðàäèåíò_398" cx="73.88" cy="21.12" r="9.98" gradientUnits="userSpaceOnUse"><stop offset="0.02" stop-color="#b0ff24"/><stop offset="0.29" stop-color="#88f72b"/><stop offset="0.89" stop-color="#25e43d"/><stop offset="1" stop-color="#11e040"/></radialGradient><radialGradient id="Áåçûìÿííûé_ãðàäèåíò_398-2" cx="55.67" cy="28.21" r="4.06" xlink:href="#Áåçûìÿííûé_ãðàäèåíò_398"/><radialGradient id="Áåçûìÿííûé_ãðàäèåíò_398-3" cx="40.21" cy="13.02" r="6.11" xlink:href="#Áåçûìÿííûé_ãðàäèåíò_398"/><radialGradient id="Áåçûìÿííûé_ãðàäèåíò_365" cx="70.11" cy="22.32" r="14.32" gradientUnits="userSpaceOnUse"><stop offset="0.01" stop-color="#00ff24"/><stop offset="0.19" stop-color="#28ff1e"/><stop offset="0.58" stop-color="#8dff10"/><stop offset="1" stop-color="#ff0"/></radialGradient><radialGradient id="Áåçûìÿííûé_ãðàäèåíò_365-2" cx="84.51" cy="47.22" r="9.73" xlink:href="#Áåçûìÿííûé_ãðàäèåíò_365"/><radialGradient id="Áåçûìÿííûé_ãðàäèåíò_365-3" cx="92.79" cy="30.98" r="5.85" xlink:href="#Áåçûìÿííûé_ãðàäèåíò_365"/><radialGradient id="Áåçûìÿííûé_ãðàäèåíò_365-4" cx="49.29" cy="93.93" r="21.74" xlink:href="#Áåçûìÿííûé_ãðàäèåíò_365"/><radialGradient id="Áåçûìÿííûé_ãðàäèåíò_365-5" cx="88.28" cy="80.71" r="8.34" xlink:href="#Áåçûìÿííûé_ãðàäèåíò_365"/><radialGradient id="Áåçûìÿííûé_ãðàäèåíò_365-6" cx="34.34" cy="13.49" r="8.83" xlink:href="#Áåçûìÿííûé_ãðàäèåíò_365"/><radialGradient id="Áåçûìÿííûé_ãðàäèåíò_365-7" cx="50.88" cy="25.4" r="8.07" xlink:href="#Áåçûìÿííûé_ãðàäèåíò_365"/><radialGradient id="Áåçûìÿííûé_ãðàäèåíò_388-2" cx="49.61" cy="78.67" r="15.74" xlink:href="#Áåçûìÿííûé_ãðàäèåíò_388"/><radialGradient id="Áåçûìÿííûé_ãðàäèåíò_388-3" cx="91.92" cy="30.11" r="3.9" xlink:href="#Áåçûìÿííûé_ãðàäèåíò_388"/><radialGradient id="Áåçûìÿííûé_ãðàäèåíò_415" cx="21.33" cy="23.35" r="49.42" gradientUnits="userSpaceOnUse"><stop offset="0" stop-color="#97ff11"/><stop offset="1"/></radialGradient><linearGradient id="Áåçûìÿííûé_ãðàäèåíò_419" x1="62.22" y1="4.18" x2="76.27" y2="17.5" gradientUnits="userSpaceOnUse"><stop offset="0" stop-color="#ffffe8"/><stop offset="0.2" stop-color="#bba"/><stop offset="0.42" stop-color="#79796e"/><stop offset="0.61" stop-color="#45453f"/><stop offset="0.78" stop-color="#1f1f1d"/><stop offset="0.91" stop-color="#080808"/><stop offset="1"/></linearGradient><linearGradient id="Áåçûìÿííûé_ãðàäèåíò_419-2" x1="28.25" y1="5.13" x2="32.53" y2="9.18" xlink:href="#Áåçûìÿííûé_ãðàäèåíò_419"/><linearGradient id="Áåçûìÿííûé_ãðàäèåíò_419-3" x1="46.89" y1="16.03" x2="54.89" y2="23.61" xlink:href="#Áåçûìÿííûé_ãðàäèåíò_419"/><linearGradient id="Áåçûìÿííûé_ãðàäèåíò_419-4" x1="84.12" y1="34.59" x2="95.67" y2="45.53" xlink:href="#Áåçûìÿííûé_ãðàäèåíò_419"/><linearGradient id="Áåçûìÿííûé_ãðàäèåíò_419-5" x1="91.46" y1="22.58" x2="99.42" y2="30.12" xlink:href="#Áåçûìÿííûé_ãðàäèåíò_419"/><linearGradient id="Áåçûìÿííûé_ãðàäèåíò_419-6" x1="86.11" y1="72.42" x2="93.66" y2="79.56" xlink:href="#Áåçûìÿííûé_ãðàäèåíò_419"/><linearGradient id="Áåçûìÿííûé_ãðàäèåíò_419-7" x1="34.94" y1="72.04" x2="62.02" y2="97.7" xlink:href="#Áåçûìÿííûé_ãðàäèåíò_419"/><radialGradient id="Áåçûìÿííûé_ãðàäèåíò_398-4" cx="-12.4" cy="95.56" r="7.37" gradientTransform="translate(58.2 -35.11) rotate(14.16)" xlink:href="#Áåçûìÿííûé_ãðàäèåíò_398"/><radialGradient id="Áåçûìÿííûé_ãðàäèåíò_365-8" cx="-19.64" cy="107.52" r="11.58" gradientTransform="translate(58.2 -35.11) rotate(14.16)" xlink:href="#Áåçûìÿííûé_ãðàäèåíò_365"/><linearGradient id="Áåçûìÿííûé_ãðàäèåíò_419-8" x1="-30.39" y1="93.23" x2="-21.21" y2="101.93" gradientTransform="translate(58.2 -35.11) rotate(14.16)" xlink:href="#Áåçûìÿííûé_ãðàäèåíò_419"/><radialGradient id="Áåçûìÿííûé_ãðàäèåíò_432-4" cx="37.16" cy="126.5" r="4.45" gradientTransform="matrix(1.62, -0.4, 0.3, 1.22, -6.04, -56.65)" xlink:href="#Áåçûìÿííûé_ãðàäèåíò_432"/><radialGradient id="Áåçûìÿííûé_ãðàäèåíò_432-5" cx="-45.73" cy="351.1" r="6.18" gradientTransform="matrix(0, 1.67, -1.25, 0, 448.04, 137.92)" xlink:href="#Áåçûìÿííûé_ãðàäèåíò_432"/><radialGradient id="Áåçûìÿííûé_ãðàäèåíò_432-6" cx="8.15" cy="371.28" r="4.26" gradientTransform="matrix(-1.05, 1.3, -1.11, -0.9, 448.38, 328.49)" xlink:href="#Áåçûìÿííûé_ãðàäèåíò_432"/><radialGradient id="Áåçûìÿííûé_ãðàäèåíò_432-7" cx="-89.68" cy="268.88" r="7.01" gradientTransform="matrix(0, 1.67, -1.42, 0, 478.19, 177.83)" xlink:href="#Áåçûìÿííûé_ãðàäèåíò_432"/></defs><g class="cls-1"><g id="Layer_2" data-name="Layer 2"><g id="planets"><path class="cls-2" d="M102.2,50.53A47.33,47.33,0,0,1,54.82,97.9c-.84,0-1.69,0-2.52-.07h0c-1.24-.06-2.47-.18-3.68-.33a47.07,47.07,0,0,1-24.2-10.66,48.27,48.27,0,0,1-11-13.3c-.29-.52-.57-1.05-.85-1.58,0,0,0,0,0,0-.29-.57-.56-1.14-.82-1.72h0a45.42,45.42,0,0,1-2.12-5.6,42.54,42.54,0,0,1-1.11-4.24.06.06,0,0,1,0,0c-.21-1-.39-2-.53-3.06a46.63,46.63,0,0,1-.48-6.72c0-1.31,0-2.62.17-3.9.06-.82.15-1.63.26-2.44A46.44,46.44,0,0,1,11.67,31,47.42,47.42,0,0,1,54.82,3.15l1.49,0c.53,0,1.06,0,1.59.08a47.19,47.19,0,0,1,7.95,1.2c1.5.36,3,.78,4.41,1.28,1,.33,1.94.7,2.89,1.1.71.3,1.4.61,2.09.94l.36.17A47.47,47.47,0,0,1,88,16.7c.52.5,1,1,1.52,1.55.33.36.66.73,1,1.1.55.62,1.08,1.27,1.6,1.92a47.24,47.24,0,0,1,8.72,17.84A47.24,47.24,0,0,1,102.2,50.53Z"/><g class="cls-3"><path class="cls-4" d="M19.36,29.32a14.55,14.55,0,0,0-1.77,5.36,23.11,23.11,0,0,0-.23,4.4,20.84,20.84,0,0,0,1.24,4.38,11.54,11.54,0,0,0,2.79,4.71,6.67,6.67,0,0,0,8.15.81c1.38-.76,2.52-1.77,4-2.42,2-.89,3.88-1.73,5.27-3.51a12.49,12.49,0,0,0,2.32-6.64,12.9,12.9,0,0,0,0-4.25,12.14,12.14,0,0,0-1.3-3.32,18.72,18.72,0,0,0-1.5-2.25,6.44,6.44,0,0,0-2.81-1.89A5.33,5.33,0,0,0,33.47,24a18,18,0,0,0-2.75.07,14.4,14.4,0,0,0-2.95.84c-.93.32-1.91.51-2.82.89a22.28,22.28,0,0,1-2.75.94,6.57,6.57,0,0,0-3.12,1.6,8.62,8.62,0,0,0-.75.73C18,29.53,18.1,30,19.36,29.32Z"/><path class="cls-4" d="M36.54,49.53c.26-.87.44-2.54,1.28-3.17a3.36,3.36,0,0,1,1.25-.56,2.34,2.34,0,0,1,1.77.38c1.5.82,1.22,3.13.38,4.37-.71,1.06-2.52,2-3.67,1.13a2.84,2.84,0,0,1-1-2.86l.21,0Z"/><path class="cls-4" d="M65.09,63.93a15.82,15.82,0,0,0-.21,3.4,29,29,0,0,0,.58,2.92c.43,1.71,1.06,3.69,2.9,4.34,1.64.57,3.6,0,5.14-.61a27.37,27.37,0,0,0,5-2.19,18,18,0,0,0,4-3.63A7.26,7.26,0,0,0,84.3,63.3c.07-2.82-1.09-5.29-2.53-7.65a5.91,5.91,0,0,0-7.35-2.34c-2.36.85-3.57,3.38-5.3,5.07A16.09,16.09,0,0,1,67.61,60a5.58,5.58,0,0,0-1.31,1.72,11.25,11.25,0,0,0-1,1.49C65,63.94,65.09,64.87,65.09,63.93Z"/><path class="cls-4" d="M86.81,62.42c.16-.23,1.27-2.66,2.27-2.55.48.05.86.58,1.09,1,.38.64.67,1.22.18,1.94-.62.91-3.17,1.59-3.33-.06l-.21,0Z"/><path class="cls-4" d="M48.28,11.87c.16-.23,1.26-2.66,2.26-2.55.49,0,.87.58,1.1,1,.37.64.67,1.22.18,1.94-.63.91-3.18,1.59-3.34-.06l-.2-.05Z"/><path class="cls-4" d="M74.57,47.57c.16-.22,1.27-2.66,2.27-2.55.48.06.86.59,1.09,1,.37.63.67,1.22.18,1.93-.63.92-3.18,1.6-3.34,0l-.2-.05Z"/><path class="cls-4" d="M68.12,35.89c-.57,1.52-1.26,2.46-.79,3.9.22.7.32,1.44.52,2.14.39,1.38,1.46,2.22,2.43,3.19,1.27,1.3,2.4,1.69,4.11.88A9.51,9.51,0,0,0,76,45a4.42,4.42,0,0,0,1.52-1.77A17.74,17.74,0,0,0,78.28,41,7,7,0,0,0,79,38.58a9.52,9.52,0,0,0-.14-2.72,11.8,11.8,0,0,0-1.49-3,8.89,8.89,0,0,0-1.91-2.28,5.06,5.06,0,0,0-2.28-.68,4.69,4.69,0,0,0-4.11,2C68,33.43,67.47,35.28,68.12,35.89Z"/><path class="cls-4" d="M64.84,45a7.22,7.22,0,0,0,1,3,1.41,1.41,0,0,1,.68-.25c0-.32.25-.43.31-.7a5.8,5.8,0,0,0,0-1,4.1,4.1,0,0,0-.38-1.52c-.15-.42-.37-1.12-.89-1-1,.19-.91,1-.75,1.54Z"/><path class="cls-4" d="M17.47,75.3a4.51,4.51,0,0,0,.5,2.31,13.88,13.88,0,0,0,1.66,2c.4.42,1.14,1.31,1.82.93s.75-1.43.69-2a9.94,9.94,0,0,0-.33-1.41,4.17,4.17,0,0,0-.65-1.46c-.52-.75-1.75-2.15-2.81-1.48a2,2,0,0,0-.77.65C17.42,75.14,17.47,75.46,17.47,75.3Z"/><path class="cls-4" d="M41.25,71.51a6.43,6.43,0,0,1-.36-1.37.28.28,0,0,1,.08-.37,9.14,9.14,0,0,1,.58-1.45,5.88,5.88,0,0,1,1.84-2.26,3.24,3.24,0,0,1,1-.31c.34-.09.69-.22,1-.28a4.35,4.35,0,0,1,1.86.18,9,9,0,0,1,2.05.7,4,4,0,0,1,1.26,1.4,3,3,0,0,1,0,3.67,6.07,6.07,0,0,1-1,.74,12.45,12.45,0,0,1-1,.74,6.13,6.13,0,0,1-1.53.38,6,6,0,0,1-2.88-.09A15.44,15.44,0,0,1,41.25,71.51Z"/></g><path class="cls-5" d="M82.36,33.69s-2.55,4.61-1.19,12.86c3,18.37,13.12,15.56,12.47,7Z"/><ellipse class="cls-6" cx="52.3" cy="78.32" rx="12.82" ry="17.05" transform="translate(-31.79 120.7) rotate(-83.01)"/><path class="cls-7" d="M75.6,7.94a3.81,3.81,0,0,0-.47.07,3.24,3.24,0,0,1-1.48-.1,7.53,7.53,0,0,0-1.05-.33c-.58-.09-1.11-.34-1.69-.41a8.24,8.24,0,0,1-1.71-.53,1.6,1.6,0,0,0-1.12,0A1.56,1.56,0,0,1,67,6.41a6,6,0,0,0-1.33-.31c-1.2-.25-2.39-.63-3.58-.94A8.39,8.39,0,0,0,59.86,5c-.59,0-1.13.16-1.72.16A8.52,8.52,0,0,1,57,5c-.41-.08-.82,0-1.22,0a2.84,2.84,0,0,0-1.53,0A4.46,4.46,0,0,1,53,5.12a10.52,10.52,0,0,0-1.57.27,11.69,11.69,0,0,1-2.77.36,6.43,6.43,0,0,0-1.91,0c-.35.12-.52.49-.76.74A13.7,13.7,0,0,0,44.6,8a2.87,2.87,0,0,0-.79,1.75,5.24,5.24,0,0,0,.56,1.8c.26.57.35,1.09-.23,1.47a8.85,8.85,0,0,1-2.42,1.16A1.44,1.44,0,0,1,40.2,14c-.18-.14-.28-.43-.5-.55s-.45,0-.69.08a15.77,15.77,0,0,1-1.76.47c-.37.05-.69.25-1.06.32s-.74-.24-1.2-.13a11.37,11.37,0,0,1-1.92.44,2.84,2.84,0,0,1-1.45-.42c-.23-.13-.29-.26-.55-.19a1.37,1.37,0,0,0-.65.48c-.16.22-.22.51-.37.74s-.32.5-.47.77a10.4,10.4,0,0,1-.94,1.49c-.24.33-.42.77-.69,1.07a3.33,3.33,0,0,1-.62.41c-.5.34-1,.65-1.49,1-.92.73-1.79,1.52-2.73,2.22a11.7,11.7,0,0,1-2.53,1.19c-.51.2-1,.35-1.55.56a2.3,2.3,0,0,0-.6.27,4.92,4.92,0,0,0-.45.65,12.28,12.28,0,0,0-1.25,1.71,7,7,0,0,0-.46,1.13c-.18.53-.46,1-.65,1.56-.37,1.12-.44,2.28-.85,3.39a18.33,18.33,0,0,1-.88,1.84,10.22,10.22,0,0,0-.73,3.3,6.89,6.89,0,0,0,.07,2,11.18,11.18,0,0,1,.08,2.09,3.46,3.46,0,0,1-1,2c-.43.52-1.07.71-1.55,1.17a3.76,3.76,0,0,0-1.06,1.41,5.08,5.08,0,0,0-.05.79c-.11.58-.26,1.13-.34,1.72a17.26,17.26,0,0,0-.1,2.16c0,.37,0,.75,0,1.12s.15.68.17,1,0,.49,0,.74.16.56.22.84c.17.65.29,1.29.41,1.95a16.24,16.24,0,0,0,.55,1.8,21.11,21.11,0,0,1,.59,2.47c.12.63.11,1.28.2,1.91s.19,1,.22,1.54c0,.77-.17,1.54-.18,2.32a17,17,0,0,0,.83,3.9l.27,1.07a47.47,47.47,0,0,1,2.31-46.8,46.64,46.64,0,0,1,7-8.55,47.2,47.2,0,0,1,33-13.41c1,0,2.06,0,3.08.1A46.81,46.81,0,0,1,75.6,7.94Z"/><path class="cls-8" d="M80.07,33.73c-1.54,2.67-7,2.4-12.16-.59s-8.13-7.57-6.6-10.24,7-2.4,12.17.59S81.61,31.07,80.07,33.73Z"/><path class="cls-9" d="M90.61,67A12.14,12.14,0,0,0,82,71.91c-3.85,4.81-3.81,9.08-3.26,10.51S90.61,67,90.61,67Z"/><ellipse class="cls-10" cx="84.56" cy="45.65" rx="9.97" ry="11.68" transform="translate(-5.34 11.7) rotate(-7.67)"/><path class="cls-11" d="M26.73,87.53A47.5,47.5,0,0,1,14.85,72.59,46.66,46.66,0,0,1,10.79,61s0,0,0,0a47.71,47.71,0,0,1-1-9.78A47.38,47.38,0,0,1,57.14,3.84c1,0,2.06,0,3.08.09a47,47,0,0,1,9.33,1.56A46.78,46.78,0,0,0,57.9,3.25c-1-.07-2-.1-3.08-.1a47.2,47.2,0,0,0-33,13.41,46.64,46.64,0,0,0-7,8.55A47.11,47.11,0,0,0,7.45,50.52a47.64,47.64,0,0,0,1,9.78s0,0,0,0a46.87,46.87,0,0,0,4.06,11.57A47.57,47.57,0,0,0,42.45,96.26,47.53,47.53,0,0,1,26.73,87.53Z"/><path class="cls-12" d="M86.22,86S80.83,87.3,79,83.26s5.07-14.65,10.6-16,6.6,5.11,6.6,5.11Z"/><path class="cls-13" d="M53.57,11.77A27.36,27.36,0,0,0,63.7,24.85c12.77,9,18,5.79,18,5.79Z"/><path class="cls-12" d="M70.93,94.4s5.49-2.88,5.61-6.8S68.25,78.33,51.86,76c-15-2.16-26.49,1.15-27.25,4s3.16,10,11.11,13.52S66.85,96.4,70.93,94.4Z"/><path class="cls-14" d="M44.68,25.43s3.34,5.28,8.53,5.74,6.72-3.61,6.72-3.61S48.12,27.47,44.68,25.43Z"/><path class="cls-15" d="M42.48,21.24s1.81,6.8,8.84,8.59c7.74,2,10-3.09,8.88-5.86S49.94,17,42.48,21.24Z"/><path class="cls-16" d="M27.33,19s4.87.9,12.05-3.36,5.69-8.2,5.69-8.2Z"/><path class="cls-15" d="M25.62,15.85S23.8,18.36,27.33,19,42.79,13.74,45,9.31,35.62,2.4,25.62,15.85Z"/><path class="cls-17" d="M57.26,6.64s-4.7.81-4.95,3.25S59.74,22.07,68.1,27.23s16.55,3.42,17.81,2.16S75,7.91,57.26,6.64Z"/><path class="cls-12" d="M90.05,34.52s-4.47-4.69-8-2.93C79.12,33,80.37,47.35,83.4,52.81s6.95,5,8.47,3.76S93.72,39.36,90.05,34.52Z"/><path class="cls-12" d="M89.75,24a2.07,2.07,0,0,0-2.27.88c-.92,1.32,5.4,10.31,8,11.37s3.18-2.75,3.18-2.75Z"/><path class="cls-18" d="M55.87,9.74c-2.11,3.58,16.92,23.92,28.42,20.09,2.27-.76,3.5-15.69-4.17-22.77C73.74,1.17,60,2.67,55.87,9.74Z"/><path class="cls-19" d="M84.29,33.87c-3.44,1.44-2.91,16.67,1.39,21.1s10.86-2,11.49-8.72S89.72,31.6,84.29,33.87Z"/><path class="cls-20" d="M88.71,25.7c-.21,3.09,6.45,9.76,8.5,9.05s4-5.59,2.62-9S89,21.91,88.71,25.7Z"/><path class="cls-21" d="M28.39,78.46c-8.9,2.29,5.88,19.77,18.51,22.07,14.78,2.69,28.22-7.29,28.48-12.79S45.06,74.16,28.39,78.46Z"/><path class="cls-22" d="M80.41,83c-1.63-3.91,7.77-16.2,12.13-14.75s7.2,11.61,1.32,15.78C90.37,86.54,82.12,87.11,80.41,83Z"/><path class="cls-23" d="M27.51,18c4.36.95,14.67-6.22,16.55-9.63S36.31.42,29.82,3.75C25.23,6.11,23.65,17.16,27.51,18Z"/><path class="cls-24" d="M44.3,18.09c-4.86,2.25.63,8.62,6.23,10.46s10.52-1.5,9.57-5.23S52.9,14.1,44.3,18.09Z"/><path class="cls-25" d="M32,75.63s18.75-2.69,37.09,5C69.07,80.65,51.8,70,32,75.63Z"/><path class="cls-26" d="M87.48,25.77s1.23,6,6.16,9C93.64,34.81,89,30.13,87.48,25.77Z"/><path class="cls-27" d="M7.45,50.52c.22,2.41,1.41-10.61,5.71-12.7s17.39,7.28,23.42,11c14,8.6,29.6-1.16,33.48-6.42s-1.94-13.46-5.22-15.29-4.94,6.25-11.63,5.31S41.38,23.78,40.85,21.25s5.8-6.2,8.45-6.58S54.87,6.86,53,5.12,48.1,11.65,40.85,16.56c-5.19,3.53-13.28,6.66-17.57.3C23.28,16.86,5.64,30.55,7.45,50.52Z"/><path class="cls-28" d="M57.38,10.41c-.2,3.24,6.92,1.75,13.31,1.36S82,11.41,82,11.41A21.28,21.28,0,0,0,69.15,4.89C61.08,4,57.51,8.42,57.38,10.41Z"/><path class="cls-29" d="M26.8,14.35c1.94.89,2.41-5,5.07-7.71a11.55,11.55,0,0,1,5.81-3.22s-5.43-.11-8.84,1.47S25.15,13.59,26.8,14.35Z"/><path class="cls-30" d="M43.68,19.42A12.11,12.11,0,0,1,51,17.13a12.58,12.58,0,0,1,7.2,3s-3.15-1-5.36-.26S47.21,24.22,43.68,19.42Z"/><path class="cls-31" d="M83.91,34.81A8.56,8.56,0,0,1,92.44,37c4.1,3.84,4.42,7.3,4.42,7.3s-2.66-4-5.31-4.41-5.9,1.58-7.25.38S82.75,36,83.91,34.81Z"/><path class="cls-32" d="M89.62,24.52s.94-1.25,4-1.17a7.59,7.59,0,0,1,5.74,2.42c.74.93.32,4.06.32,4.06s-.25-2.53-1.52-3.73S89.59,27.81,89.62,24.52Z"/><path class="cls-33" d="M82,77.7s5.49-8.9,9.45-8.28,5.37,6.77,5.37,6.77a8,8,0,0,0-7.24-2.78A11.65,11.65,0,0,0,82,77.7Z"/><path class="cls-34" d="M26.8,80.63s7.54-3.8,22.63-1.66S73.1,86,73.1,86s-15.61-3.38-24.82-1.87a15.73,15.73,0,0,0-12,9.6S24.89,88.87,26.8,80.63Z"/><path class="cls-35" d="M51.22,99.93S61.63,98.47,66.9,96C66.9,96,55.92,102.21,51.22,99.93Z"/><path class="cls-35" d="M81.74,83.26a26.36,26.36,0,0,0,9.75.88S84.94,86.67,81.74,83.26Z"/><path class="cls-35" d="M83.16,47S86.58,53.21,90,54.8C90,54.8,85.92,56.24,83.16,47Z"/><path class="cls-35" d="M65.82,21.24A26.81,26.81,0,0,0,82,29.08Z"/><path class="cls-35" d="M45.26,24a12.94,12.94,0,0,0,9.57,4.59Z"/><path class="cls-35" d="M27.33,17.12a34.5,34.5,0,0,0,13.52-5.88Z"/><path class="cls-36" d="M14.33,44.26S21.64,50,24.72,63.75C24.72,63.75,26.49,50.21,14.33,44.26Z"/><path class="cls-15" d="M14.52,73.31s5.95,2.88,9.08-.13,1.22-13.24-3.09-21S10.94,41,8.74,42.15C7.22,42.93-.82,62.18,14.52,73.31Z"/><path class="cls-37" d="M9.8,44.07c-3.94-1-7,12.6-5.05,20,2.61,9.58,15.45,11,18.16,8.09S23.78,47.6,9.8,44.07Z"/><path class="cls-38" d="M5.61,63S4.53,49,8,46.52s8.76,2.8,8.76,2.8a28.74,28.74,0,0,0-5.84,2.52C7.64,53.67,5.61,63,5.61,63Z"/><path class="cls-35" d="M10.26,69.82s4.64,2.52,8.08,2.8C18.34,72.62,13.83,74.36,10.26,69.82Z"/><path class="cls-39" d="M99.18,80.83c.73,3-1.9,6.22-5.88,7.2s-7.8-.66-8.54-3.66,1.9-6.21,5.88-7.19S98.44,77.84,99.18,80.83Z"/><ellipse class="cls-40" cx="7.77" cy="61.71" rx="7.75" ry="10.3" transform="translate(-5 0.84) rotate(-4.67)"/><path class="cls-41" d="M24.84,12.23c-2.6-2.1-2.71-6.28-.24-9.33s6.58-3.82,9.18-1.71,2.71,6.29.24,9.34S27.44,14.34,24.84,12.23Z"/><ellipse class="cls-42" cx="95.68" cy="28.32" rx="9.97" ry="11.68" transform="translate(-2.92 13.03) rotate(-7.67)"/></g></g></g></svg>