<svg xmlns="http://www.w3.org/2000/svg" xmlns:xlink="http://www.w3.org/1999/xlink" viewBox="0 0 102.66 102.06"><defs><style>.cls-1{isolation:isolate;}.cls-10,.cls-12,.cls-13,.cls-14,.cls-15,.cls-17,.cls-18,.cls-19,.cls-2,.cls-20,.cls-21,.cls-22,.cls-23,.cls-24,.cls-25,.cls-26,.cls-27,.cls-28,.cls-29,.cls-3,.cls-30,.cls-31,.cls-32,.cls-33,.cls-34,.cls-35,.cls-36,.cls-37,.cls-38,.cls-39,.cls-4,.cls-40,.cls-41,.cls-42,.cls-43,.cls-44,.cls-45,.cls-46,.cls-47,.cls-48,.cls-49,.cls-50,.cls-6,.cls-7,.cls-9{fill-rule:evenodd;}.cls-2{fill:url(#Áåçûìÿííûé_ãðàäèåíò_183);}.cls-10,.cls-11,.cls-12,.cls-13,.cls-14,.cls-15,.cls-16,.cls-17,.cls-28,.cls-3,.cls-32,.cls-33,.cls-35,.cls-36,.cls-37,.cls-38,.cls-39,.cls-44,.cls-45,.cls-46,.cls-47,.cls-48,.cls-49,.cls-5,.cls-50,.cls-6,.cls-7,.cls-8,.cls-9{mix-blend-mode:screen;}.cls-3{fill:url(#Áåçûìÿííûé_ãðàäèåíò_600);}.cls-4{fill:url(#Áåçûìÿííûé_ãðàäèåíò_183-2);}.cls-5{fill:url(#Áåçûìÿííûé_ãðàäèåíò_235);}.cls-6{fill:url(#Áåçûìÿííûé_ãðàäèåíò_235-2);}.cls-7{fill:url(#Áåçûìÿííûé_ãðàäèåíò_235-3);}.cls-8{fill:url(#Áåçûìÿííûé_ãðàäèåíò_241);}.cls-9{fill:url(#Áåçûìÿííûé_ãðàäèåíò_235-4);}.cls-10{fill:url(#Áåçûìÿííûé_ãðàäèåíò_235-5);}.cls-11{fill:url(#Áåçûìÿííûé_ãðàäèåíò_239);}.cls-12{fill:url(#Áåçûìÿííûé_ãðàäèåíò_239-2);}.cls-13{fill:url(#Áåçûìÿííûé_ãðàäèåíò_239-3);}.cls-14{fill:url(#Áåçûìÿííûé_ãðàäèåíò_239-4);}.cls-15{fill:url(#Áåçûìÿííûé_ãðàäèåíò_239-5);}.cls-16{fill:url(#Áåçûìÿííûé_ãðàäèåíò_239-6);}.cls-17{fill:url(#Áåçûìÿííûé_ãðàäèåíò_239-7);}.cls-18,.cls-19,.cls-20,.cls-21,.cls-22,.cls-23,.cls-24,.cls-25,.cls-26,.cls-27,.cls-29,.cls-30,.cls-31{opacity:0.5;mix-blend-mode:multiply;}.cls-18{fill:url(#Áåçûìÿííûé_ãðàäèåíò_141);}.cls-19{fill:url(#Áåçûìÿííûé_ãðàäèåíò_247);}.cls-20{fill:url(#Áåçûìÿííûé_ãðàäèåíò_141-2);}.cls-21{fill:url(#Áåçûìÿííûé_ãðàäèåíò_141-3);}.cls-22{fill:url(#Áåçûìÿííûé_ãðàäèåíò_202);}.cls-23{fill:url(#Áåçûìÿííûé_ãðàäèåíò_202-2);}.cls-24{fill:url(#Áåçûìÿííûé_ãðàäèåíò_202-3);}.cls-25{fill:url(#Áåçûìÿííûé_ãðàäèåíò_202-4);}.cls-26{fill:url(#Áåçûìÿííûé_ãðàäèåíò_202-5);}.cls-27{fill:url(#Áåçûìÿííûé_ãðàäèåíò_202-6);}.cls-28{fill:url(#Áåçûìÿííûé_ãðàäèåíò_206);}.cls-29{fill:url(#Áåçûìÿííûé_ãðàäèåíò_202-7);}.cls-30{fill:url(#Áåçûìÿííûé_ãðàäèåíò_202-8);}.cls-31{fill:url(#Áåçûìÿííûé_ãðàäèåíò_202-9);}.cls-32{fill:url(#Áåçûìÿííûé_ãðàäèåíò_233);}.cls-33{fill:url(#Áåçûìÿííûé_ãðàäèåíò_233-2);}.cls-34{fill:#ffffbf;}.cls-35{fill:url(#Áåçûìÿííûé_ãðàäèåíò_260);}.cls-36{fill:url(#Áåçûìÿííûé_ãðàäèåíò_260-2);}.cls-37{fill:url(#Áåçûìÿííûé_ãðàäèåíò_260-3);}.cls-38{fill:url(#Áåçûìÿííûé_ãðàäèåíò_260-4);}.cls-39{fill:url(#Áåçûìÿííûé_ãðàäèåíò_260-5);}.cls-40{fill:#ffc975;}.cls-41{fill:#ffa475;}.cls-42{fill:#ff93a4;}.cls-43{fill:#ffbbb8;}.cls-44{fill:url(#Áåçûìÿííûé_ãðàäèåíò_260-6);}.cls-45{fill:url(#Áåçûìÿííûé_ãðàäèåíò_260-7);}.cls-46{fill:url(#Áåçûìÿííûé_ãðàäèåíò_260-8);}.cls-47{fill:url(#Áåçûìÿííûé_ãðàäèåíò_260-9);}.cls-48{fill:url(#Áåçûìÿííûé_ãðàäèåíò_262);}.cls-49{fill:url(#Áåçûìÿííûé_ãðàäèåíò_260-10);}.cls-50{fill:url(#Áåçûìÿííûé_ãðàäèåíò_260-11);}</style><radialGradient id="Áåçûìÿííûé_ãðàäèåíò_183" cx="35.55" cy="34.93" r="67.23" gradientUnits="userSpaceOnUse"><stop offset="0.01" stop-color="#fc0"/><stop offset="0.18" stop-color="#fec902"/><stop offset="0.33" stop-color="#fcbe08"/><stop offset="0.48" stop-color="#f8ad13"/><stop offset="0.61" stop-color="#f29422"/><stop offset="0.74" stop-color="#ea7435"/><stop offset="0.82" stop-color="#e55e42"/><stop offset="0.84" stop-color="#e35d49"/><stop offset="0.88" stop-color="#df5a5c"/><stop offset="0.93" stop-color="#d7567c"/><stop offset="0.98" stop-color="#cc4fa7"/><stop offset="1" stop-color="#c74cbd"/></radialGradient><radialGradient id="Áåçûìÿííûé_ãðàäèåíò_600" cx="18.15" cy="19.16" r="62.36" gradientUnits="userSpaceOnUse"><stop offset="0" stop-color="#ffffd9"/><stop offset="1"/></radialGradient><radialGradient id="Áåçûìÿííûé_ãðàäèåíò_183-2" cx="33.51" cy="33.29" r="72.19" xlink:href="#Áåçûìÿííûé_ãðàäèåíò_183"/><radialGradient id="Áåçûìÿííûé_ãðàäèåíò_235" cx="-116.07" cy="239.71" r="7.87" gradientTransform="matrix(1.67, 0, 0, 1.33, 247.99, -270.47)" gradientUnits="userSpaceOnUse"><stop offset="0" stop-color="#ffd400"/><stop offset="0.66" stop-color="#584900"/><stop offset="1"/></radialGradient><radialGradient id="Áåçûìÿííûé_ãðàäèåíò_235-2" cx="-98.14" cy="241.85" r="5.1" gradientTransform="matrix(1.37, -0.95, 0.76, 1.09, 31, -323.72)" xlink:href="#Áåçûìÿííûé_ãðàäèåíò_235"/><radialGradient id="Áåçûìÿííûé_ãðàäèåíò_235-3" cx="-199.95" cy="225.88" r="3.37" gradientTransform="matrix(1.55, 0.61, -0.49, 1.24, 505.45, -141.24)" xlink:href="#Áåçûìÿííûé_ãðàäèåíò_235"/><radialGradient id="Áåçûìÿííûé_ãðàäèåíò_241" cx="-51.09" cy="323.49" r="4.03" gradientTransform="matrix(1.67, 0, 0, 1.33, 181.31, -376.38)" gradientUnits="userSpaceOnUse"><stop offset="0" stop-color="#ff8600"/><stop offset="0.66" stop-color="#582e00"/><stop offset="1"/></radialGradient><radialGradient id="Áåçûìÿííûé_ãðàäèåíò_235-4" cx="-111.73" cy="211.73" r="5.88" gradientTransform="matrix(1.37, -0.95, 0.76, 1.09, 31, -323.72)" xlink:href="#Áåçûìÿííûé_ãðàäèåíò_235"/><radialGradient id="Áåçûìÿííûé_ãðàäèåíò_235-5" cx="-125.73" cy="226.94" r="5.88" gradientTransform="matrix(1.37, -0.95, 0.76, 1.09, 31, -323.72)" xlink:href="#Áåçûìÿííûé_ãðàäèåíò_235"/><radialGradient id="Áåçûìÿííûé_ãðàäèåíò_239" cx="-122.48" cy="261.1" r="5.88" gradientTransform="matrix(1.67, 0, 0, 1.33, 266.17, -269.48)" gradientUnits="userSpaceOnUse"><stop offset="0.01" stop-color="#ff8300"/><stop offset="0.66" stop-color="#582d00"/><stop offset="1"/></radialGradient><radialGradient id="Áåçûìÿííûé_ãðàäèåíò_239-2" cx="-292.59" cy="275.71" r="5.88" gradientTransform="matrix(1.1, 1.25, -1, 0.88, 621.38, 192.09)" xlink:href="#Áåçûìÿííûé_ãðàäèåíò_239"/><radialGradient id="Áåçûìÿííûé_ãðàäèåíò_239-3" cx="-281.76" cy="450.47" r="5.02" gradientTransform="matrix(-0.93, 1.38, -1.1, -0.75, 276.03, 802.99)" xlink:href="#Áåçûìÿííûé_ãðàäèåíò_239"/><radialGradient id="Áåçûìÿííûé_ãðàäèåíò_239-4" cx="-293.76" cy="471.07" r="5.02" gradientTransform="matrix(-0.93, 1.38, -1.1, -0.75, 276.03, 802.99)" xlink:href="#Áåçûìÿííûé_ãðàäèåíò_239"/><radialGradient id="Áåçûìÿííûé_ãðàäèåíò_239-5" cx="-311.37" cy="459.92" r="5.02" gradientTransform="matrix(-0.61, 1.55, -1.24, -0.49, 395.46, 735.4)" xlink:href="#Áåçûìÿííûé_ãðàäèåíò_239"/><radialGradient id="Áåçûìÿííûé_ãðàäèåíò_239-6" cx="-304.67" cy="367.33" r="5.02" gradientTransform="matrix(0, 1.67, -1.02, 0, 380.65, 562.55)" xlink:href="#Áåçûìÿííûé_ãðàäèåíò_239"/><radialGradient id="Áåçûìÿííûé_ãðàäèåíò_239-7" cx="-82.35" cy="284.64" r="5.88" gradientTransform="matrix(1.05, -1.3, 1.04, 0.84, -129.78, -282.27)" xlink:href="#Áåçûìÿííûé_ãðàäèåíò_239"/><linearGradient id="Áåçûìÿííûé_ãðàäèåíò_141" x1="44.42" y1="67.79" x2="45.54" y2="67.79" gradientUnits="userSpaceOnUse"><stop offset="0" stop-color="#ca528d"/><stop offset="1" stop-color="#8e7090"/></linearGradient><linearGradient id="Áåçûìÿííûé_ãðàäèåíò_247" x1="8.54" y1="54.93" x2="100.02" y2="54.93" gradientUnits="userSpaceOnUse"><stop offset="0" stop-color="#f4788d"/><stop offset="1" stop-color="#8e7090"/></linearGradient><linearGradient id="Áåçûìÿííûé_ãðàäèåíò_141-2" x1="27.87" y1="64.3" x2="42.77" y2="64.3" xlink:href="#Áåçûìÿííûé_ãðàäèåíò_141"/><linearGradient id="Áåçûìÿííûé_ãðàäèåíò_141-3" x1="28.94" y1="12.79" x2="32.54" y2="12.79" xlink:href="#Áåçûìÿííûé_ãðàäèåíò_141"/><linearGradient id="Áåçûìÿííûé_ãðàäèåíò_202" x1="24.25" y1="28.27" x2="29.46" y2="28.27" gradientUnits="userSpaceOnUse"><stop offset="0" stop-color="#ca528d"/><stop offset="1" stop-color="#b3757c"/></linearGradient><linearGradient id="Áåçûìÿííûé_ãðàäèåíò_202-2" x1="77.68" y1="45.66" x2="95.92" y2="45.66" xlink:href="#Áåçûìÿííûé_ãðàäèåíò_202"/><linearGradient id="Áåçûìÿííûé_ãðàäèåíò_202-3" x1="52.96" y1="82.85" x2="52.99" y2="82.85" xlink:href="#Áåçûìÿííûé_ãðàäèåíò_202"/><linearGradient id="Áåçûìÿííûé_ãðàäèåíò_202-4" x1="76.31" y1="76.01" x2="91.17" y2="76.01" xlink:href="#Áåçûìÿííûé_ãðàäèåíò_202"/><linearGradient id="Áåçûìÿííûé_ãðàäèåíò_202-5" x1="15.02" y1="43.62" x2="24.03" y2="43.62" xlink:href="#Áåçûìÿííûé_ãðàäèåíò_202"/><linearGradient id="Áåçûìÿííûé_ãðàäèåíò_202-6" x1="11.47" y1="60.79" x2="16.17" y2="60.79" xlink:href="#Áåçûìÿííûé_ãðàäèåíò_202"/><linearGradient id="Áåçûìÿííûé_ãðàäèåíò_206" x1="6.25" y1="60.24" x2="6.25" y2="37.18" gradientUnits="userSpaceOnUse"><stop offset="0"/><stop offset="0.08" stop-color="#080502"/><stop offset="0.22" stop-color="#1f1209"/><stop offset="0.38" stop-color="#452813"/><stop offset="0.57" stop-color="#794621"/><stop offset="0.79" stop-color="#bb6c33"/><stop offset="0.98" stop-color="#ff9346"/></linearGradient><linearGradient id="Áåçûìÿííûé_ãðàäèåíò_202-7" x1="33.87" y1="40.48" x2="72.8" y2="40.48" xlink:href="#Áåçûìÿííûé_ãðàäèåíò_202"/><linearGradient id="Áåçûìÿííûé_ãðàäèåíò_202-8" x1="30.9" y1="83.53" x2="77.68" y2="83.53" xlink:href="#Áåçûìÿííûé_ãðàäèåíò_202"/><linearGradient id="Áåçûìÿííûé_ãðàäèåíò_202-9" x1="78.39" y1="22.45" x2="90.99" y2="22.45" xlink:href="#Áåçûìÿííûé_ãðàäèåíò_202"/><linearGradient id="Áåçûìÿííûé_ãðàäèåíò_233" x1="1.22" y1="43.6" x2="29.7" y2="43.6" gradientUnits="userSpaceOnUse"><stop offset="0" stop-color="#514579"/><stop offset="0.11" stop-color="#594d7f"/><stop offset="0.27" stop-color="#6e6490"/><stop offset="0.48" stop-color="#918aab"/><stop offset="0.72" stop-color="#c2bed0"/><stop offset="0.98" stop-color="#fff"/></linearGradient><linearGradient id="Áåçûìÿííûé_ãðàäèåíò_233-2" x1="30.26" y1="6.97" x2="65.66" y2="6.97" xlink:href="#Áåçûìÿííûé_ãðàäèåíò_233"/><linearGradient id="Áåçûìÿííûé_ãðàäèåíò_260" x1="60.46" y1="21" x2="76.67" y2="21" gradientUnits="userSpaceOnUse"><stop offset="0" stop-color="#ff8b4a"/><stop offset="1"/></linearGradient><linearGradient id="Áåçûìÿííûé_ãðàäèåíò_260-2" x1="44" y1="59.8" x2="73.98" y2="59.8" xlink:href="#Áåçûìÿííûé_ãðàäèåíò_260"/><linearGradient id="Áåçûìÿííûé_ãðàäèåíò_260-3" x1="19.52" y1="87.49" x2="45.8" y2="87.49" xlink:href="#Áåçûìÿííûé_ãðàäèåíò_260"/><linearGradient id="Áåçûìÿííûé_ãðàäèåíò_260-4" x1="57.93" y1="82.63" x2="76.25" y2="82.63" xlink:href="#Áåçûìÿííûé_ãðàäèåíò_260"/><linearGradient id="Áåçûìÿííûé_ãðàäèåíò_260-5" x1="79.24" y1="70.64" x2="90.26" y2="70.64" xlink:href="#Áåçûìÿííûé_ãðàäèåíò_260"/><linearGradient id="Áåçûìÿííûé_ãðàäèåíò_260-6" x1="75.02" y1="44.37" x2="95.26" y2="44.37" xlink:href="#Áåçûìÿííûé_ãðàäèåíò_260"/><linearGradient id="Áåçûìÿííûé_ãðàäèåíò_260-7" x1="33.87" y1="64.29" x2="33.87" y2="49.8" xlink:href="#Áåçûìÿííûé_ãðàäèåíò_260"/><linearGradient id="Áåçûìÿííûé_ãðàäèåíò_260-8" x1="43.13" y1="31.23" x2="43.13" y2="22.03" xlink:href="#Áåçûìÿííûé_ãðàäèåíò_260"/><linearGradient id="Áåçûìÿííûé_ãðàäèåíò_260-9" x1="81.85" y1="22.93" x2="93.35" y2="22.93" xlink:href="#Áåçûìÿííûé_ãðàäèåíò_260"/><linearGradient id="Áåçûìÿííûé_ãðàäèåíò_262" x1="92.22" y1="65.93" x2="101.22" y2="65.93" gradientUnits="userSpaceOnUse"><stop offset="0"/><stop offset="1" stop-color="#ff8b4a"/></linearGradient><linearGradient id="Áåçûìÿííûé_ãðàäèåíò_260-10" x1="40.88" y1="97.68" x2="61.77" y2="97.68" xlink:href="#Áåçûìÿííûé_ãðàäèåíò_260"/><linearGradient id="Áåçûìÿííûé_ãðàäèåíò_260-11" x1="70.37" y1="90.15" x2="85.88" y2="90.15" xlink:href="#Áåçûìÿííûé_ãðàäèåíò_260"/></defs><g class="cls-1"><g id="Layer_2" data-name="Layer 2"><g id="planets"><path class="cls-2" d="M100.15,51.41A47.34,47.34,0,0,1,52.77,98.78a49,49,0,0,1-6.21-.4A47.38,47.38,0,0,1,6.41,61.23v0A47.38,47.38,0,0,1,12.78,26a48.19,48.19,0,0,1,7-8.55A47.24,47.24,0,0,1,52.77,4c1,0,2,0,3.07.1A46.73,46.73,0,0,1,71.1,7.71c.83.35,1.64.72,2.44,1.11a47.42,47.42,0,0,1,26.61,42.59Z"/><path class="cls-3" d="M24.68,88.41A47.19,47.19,0,0,1,8.73,61.91v0A47.38,47.38,0,0,1,15.1,26.68a47.42,47.42,0,0,1,40-22c1,0,2,0,3.07.1A46.25,46.25,0,0,1,67.5,6.37,47.22,47.22,0,0,0,55.84,4.13c-1-.07-2-.1-3.07-.1a47.24,47.24,0,0,0-33,13.41,48.19,48.19,0,0,0-7,8.55A47.38,47.38,0,0,0,6.41,61.18v0a47.49,47.49,0,0,0,34,35.91A47,47,0,0,1,24.68,88.41Z"/><path class="cls-4" d="M94.36,74.1,86.59,84.58C79.91,98.79,64.76,97.25,64.76,97.25l-2,.47c-16,11.14-29.73-2.67-29.73-2.67l-3.52-2.36c-8.27.67-10.42-8-10.42-8l-5.27-6.33-.1-.1C-11,55.69,8.54,34.42,8.54,34.42l1.61-3.72C11.5,19.45,22,15.36,22,15.36A12.19,12.19,0,0,1,29.7,8.89a9,9,0,0,1,2.84-.35C44.57-2.79,57-.87,65.66,3.1h0a44.24,44.24,0,0,1,11.59,7.75C96,9.28,93.64,27.44,93.64,27.44,99.14,36.12,100,48,100,48,108.33,62.94,94.36,74.1,94.36,74.1Z"/><ellipse class="cls-5" cx="54.52" cy="49.13" rx="13.11" ry="10.49" transform="translate(-18.29 39.9) rotate(-34.8)"/><path class="cls-6" d="M87.67,29.57c2.14,3.08.75,7.75-3.1,10.42s-8.71,2.35-10.85-.73-.76-7.75,3.1-10.43S85.53,26.48,87.67,29.57Z"/><path class="cls-7" d="M89.91,18.09c-.92,2.31-4,3.25-6.87,2.11S78.56,16.27,79.47,14s4-3.24,6.87-2.1S90.82,15.79,89.91,18.09Z"/><ellipse class="cls-8" cx="96.14" cy="54.93" rx="6.72" ry="5.38" transform="translate(9.67 124.09) rotate(-68.39)"/><path class="cls-9" d="M47.22,8.77c2.47,3.56.87,9-3.57,12S33.59,23.52,31.12,20s-.87-8.94,3.58-12S44.75,5.22,47.22,8.77Z"/><path class="cls-10" d="M39.63,38.74c2.47,3.56.87,8.95-3.58,12s-10,2.71-12.52-.85-.87-8.94,3.57-12S37.16,35.19,39.63,38.74Z"/><ellipse class="cls-11" cx="62.03" cy="78.64" rx="9.8" ry="7.84" transform="matrix(0.82, -0.57, 0.57, 0.82, -33.79, 49.46)"/><path class="cls-12" d="M30,74.77c-3.26,2.85-8.79,1.86-12.35-2.21S13.81,62.87,17.07,60s8.78-1.86,12.35,2.21S33.24,71.92,30,74.77Z"/><path class="cls-13" d="M36.58,84.54c-3.06-2.07-3.45-6.84-.86-10.67s7.16-5.26,10.22-3.19,3.45,6.85.86,10.68S39.64,86.61,36.58,84.54Z"/><path class="cls-14" d="M25,52.59c-3.06-2.07-3.45-6.85-.86-10.67s7.16-5.26,10.22-3.19,3.45,6.85.86,10.67S28.08,54.66,25,52.59Z"/><path class="cls-15" d="M13.38,34.83C10,33.47,8.54,28.88,10.24,24.59s5.87-6.68,9.3-5.32,4.84,5.95,3.14,10.24S16.82,36.19,13.38,34.83Z"/><ellipse class="cls-16" cx="5.33" cy="54.72" rx="5.13" ry="8.36" transform="translate(-11.91 2.51) rotate(-12.71)"/><path class="cls-17" d="M85.4,55.31c3.37,2.72,3.34,8.34-.06,12.55s-8.88,5.42-12.25,2.7-3.35-8.33.06-12.55S82,52.59,85.4,55.31Z"/><path class="cls-18" d="M44.42,67.4a4.53,4.53,0,0,1,1.12.78A12.11,12.11,0,0,1,44.42,67.4Z"/><path class="cls-19" d="M94.36,74.1a28.86,28.86,0,0,1-7.77,10.48s-5.42-2.79-10,.11S64.76,97.25,64.76,97.25l-2,.47a16.05,16.05,0,0,0-5.63-5.62h0a9.29,9.29,0,0,0-1.42-.68,10.48,10.48,0,0,0-5.24-.65,103.2,103.2,0,0,0-17.43,4.28l-3.52-2.36s6.55,2,14.38-4c7.22-5.54,5.85-16.79,1.63-20.48a15.34,15.34,0,0,0,8.74,2.46c5.3-.34,14.69-6.22,17.47-10.29-.64,1.11-6,10.06-13.06,14.19A14.77,14.77,0,0,0,53,82.81a.32.32,0,0,0,0,.09s0,0,0,.07a.68.68,0,0,0,0,.19,7.06,7.06,0,0,0-.15.92,4.94,4.94,0,0,0,0,1.34c.76,4.81,9,5.26,14.7,3.24,5-1.78,7.91-7.07,8.81-9,.21-.45.31-.72.31-.72a20.64,20.64,0,0,0,11.12-1c2.08-.82,3.14-3.76,3.39-7.35.46-6.19-1.5-14.31-4.78-16.59-4.22-2.93-11.22,3-13.66,5.33,1.64-1.73,5.06-5.63,5.45-8.79.51-4.17-13-18-26.2-13.24-13.66,4.93-9.8,23.1-8.35,27.33-1.08-3-4.3-12.34-4.11-17.41a37.16,37.16,0,0,1,2-11.15S29.51,33,23.57,41.37,26,59.8,26,59.8s-5.94-5.13-7.7-7.49c0,0-6.27,17.18.84,32.43l-5.27-6.33s.51-5.08.76-15.57S8.54,34.42,8.54,34.42l1.61-3.72S12.33,46,14.73,48.16s9.79-8.57,11.35-14.64c2.63-10.28-4-18.16-4-18.16s6.9,4.41,8.7,15.69a101.27,101.27,0,0,0,22,1.76,54,54,0,0,0,22.59-5.37s-2.77,5-5.38,7.39c0,0,5,12.55,12.71,15.48S97,41.1,95.82,36.12,88.37,22.14,76,27c.16-.28,3.18-5.43,2.27-10.7s-.38-4-.38-4a22.09,22.09,0,0,0,4.54,8.94c3.54,4.07,11.21,6.18,11.21,6.18S99.55,37.59,100,48c0,0-8,.18-9.12,4.22S94.36,74.1,94.36,74.1Z"/><path class="cls-20" d="M27.87,61.36s5.18,8.41,14.9,5.13A41.66,41.66,0,0,1,27.87,61.36Z"/><path class="cls-21" d="M32.54,8.54a22.32,22.32,0,0,0-2.84,8.54s-1.71-4.74,0-8.2A6.37,6.37,0,0,1,32.54,8.54Z"/><path class="cls-22" d="M24.53,39.07a21.33,21.33,0,0,0-.28-21.6s5.1,8.31,5.21,12.8S24.53,39.07,24.53,39.07Z"/><path class="cls-23" d="M77.68,47.34s5.26,6.95,10.19,5.87,7.72-10.07,8-15.21c0,0-3.28,12.65-9.36,13.41C81,52.09,77.68,47.34,77.68,47.34Z"/><path class="cls-24" d="M53,82.81a.32.32,0,0,0,0,.09.66.66,0,0,1,0-.09Z"/><path class="cls-25" d="M86.8,80.71c-5,2-10.49-1-10.49-1,.21-.45.31-.72.31-.72a20.64,20.64,0,0,0,11.12-1c2.08-.82,3.14-3.76,3.39-7.35h0S91.81,78.72,86.8,80.71Z"/><path class="cls-26" d="M15,48.34a3.9,3.9,0,0,0,4.64-1.18C21.92,44.71,24,38.57,24,38.57S20.1,47.3,15,48.34Z"/><path class="cls-27" d="M11.47,44S15.08,52.23,16,57.15s-2.08,20.46-2.08,20.46,1.06-12,.44-20A50.82,50.82,0,0,0,11.47,44Z"/><path class="cls-28" d="M2,60.24s3.9-7.81,9-12.08c0,0,.42-7.27-3.42-11C7.57,37.18-.64,44.18,2,60.24Z"/><path class="cls-29" d="M33.87,32.9s7.81,1.85,10,4.13c0,0-3.4,4.13-2.56,13.66,0,0,.94-10,7.76-13.51s19.71.2,23.78,4.53c0,0-5.74-6.48-5.65-7.55s5.11-3.89,5.11-3.89a62,62,0,0,1-18,4.05C45.54,34.86,33.87,32.9,33.87,32.9Z"/><path class="cls-30" d="M48.46,70.64s3.28,5.25,2.67,8.69c-1.05,5.81-5.52,9.59-9,11.23s-11.24,3-11.24,3l1.2.93s9.6-3.28,14.59-4.29,15,1.7,16.67,7.39l1.4-.39a36,36,0,0,1,5.17-7.89,46.79,46.79,0,0,1,7.75-7,40,40,0,0,0-7.5,5.56c-4.42,4-4,5.63-9.79,4.3s-10-4.42-10.17-6.07,2.21-8.06,4.93-10.76a75.63,75.63,0,0,1,7.26-6s-5.18,4.28-8.71,4.16A6.69,6.69,0,0,1,48.46,70.64Z"/><path class="cls-31" d="M78.39,24.82s7.26-1.21,12.6,2.62c0,0-10.07-3.93-12.09-10C78.9,17.47,80.41,21.79,78.39,24.82Z"/><path class="cls-32" d="M29.7,8.89C27.14,10.16,23.23,17,23.23,17a20.69,20.69,0,0,0-7.65,6C12.55,27.13,11,34.72,11,34.72L9.46,37.19s-8.37,10-6.41,21.17c1.84,10.45,9.71,18.93,10.69,20C-11,55.69,8.54,34.42,8.54,34.42l1.61-3.72C11.5,19.45,22,15.36,22,15.36A12.19,12.19,0,0,1,29.7,8.89Z"/><path class="cls-33" d="M65.66,3.1C47-5,30.26,14,30.26,14a32.27,32.27,0,0,1,2.28-5.41C44.57-2.79,57-.87,65.66,3.1Z"/><path class="cls-34" d="M37.23,10.38c1.58,1.22,7.6-1.43,9.18-4.17s.49-3.46.49-3.46a17.76,17.76,0,0,0-6.7,2.36C37.44,7,36.54,9.85,37.23,10.38Z"/><path class="cls-35" d="M60.46,29.85s5-.19,10.35-5.64c4.54-4.6,4.8-12.06,4.8-12.06s2.73,6.14-.59,12.06S60.46,29.85,60.46,29.85Z"/><path class="cls-36" d="M44,65.57s6.54,3.5,16-1.53,13.05-11,14-14.44A20.12,20.12,0,0,1,69.3,61.36c-4.66,5.54-11.37,9.28-16.41,8.54C48.25,69.22,44,65.57,44,65.57Z"/><path class="cls-37" d="M19.52,83.57s1.56,6.57,11.22,6.58A19.76,19.76,0,0,0,45.8,82.81s-3.79,9-13.33,9.34S20.53,87.37,19.52,83.57Z"/><path class="cls-38" d="M57.93,87.42s7.23,2.31,12.41-2.85,5.91-8.22,5.91-8.22-2.54,9.2-8.75,11.77A11.1,11.1,0,0,1,57.93,87.42Z"/><path class="cls-39" d="M79.24,78.06s3.19.23,7-5.2,3.29-10,3.29-10,2.3,9.18-1.14,13S79.24,78.06,79.24,78.06Z"/><path class="cls-34" d="M36.14,11.27c-1.28-1.61-3.36,1.52-2.22,2.75S36.77,12.07,36.14,11.27Z"/><path class="cls-34" d="M52.77,40.48c-1.55-2.22-7.46,3.52-8.35,7.25s6.08,2.39,7.52,1S53.91,42.12,52.77,40.48Z"/><path class="cls-40" d="M80.36,57.35c-.79-1.13-4.29,1-4.25,3.69,0,2,3.09,1.21,3.83.49A4.72,4.72,0,0,0,80.36,57.35Z"/><path class="cls-34" d="M78.08,30c-.79-1.13-4.29,1-4.25,3.69,0,2,3.09,1.21,3.83.5A4.74,4.74,0,0,0,78.08,30Z"/><path class="cls-34" d="M80.58,12.43c-.54,0-.59,1.61.28,2.16.64.41,1.06-.74,1-1.13A1.82,1.82,0,0,0,80.58,12.43Z"/><path class="cls-34" d="M16.38,22.88c-.48-.56-2.23.79-2.06,2.2.12,1,1.72.47,2.07.05A2.51,2.51,0,0,0,16.38,22.88Z"/><path class="cls-34" d="M26.19,41.52c-.38-.55-2.08.51-2.06,1.79,0,.95,1.5.59,1.86.24A2.31,2.31,0,0,0,26.19,41.52Z"/><path class="cls-34" d="M19.6,63.35c-.73-.48-2.25,1.61-1.6,3.14.48,1.12,2.09,0,2.34-.61A2,2,0,0,0,19.6,63.35Z"/><path class="cls-34" d="M5.12,49c-1-.62-3,2.15-2.11,4.18.64,1.49,2.77-.05,3.1-.83A3.9,3.9,0,0,0,5.12,49Z"/><path class="cls-40" d="M57.77,78.19c-.39-.56-2.11.51-2.09,1.82,0,1,1.52.6,1.89.25A2.33,2.33,0,0,0,57.77,78.19Z"/><path class="cls-34" d="M44,53.43A2.18,2.18,0,0,0,43.86,56c.37.49,1.41-.75,1.45-1.26S44.41,53.11,44,53.43Z"/><path class="cls-41" d="M41,93.76c-.81-.41-2.06.38-2.35.92s.78,1.1,1.75.79S41.45,94,41,93.76Z"/><path class="cls-42" d="M74.47,87.49c-1.27,0-2.87,1.86-3.15,2.76s1.42.88,2.73-.17S75.18,87.48,74.47,87.49Z"/><path class="cls-43" d="M95.23,51.69c-.88-.14-1.78,1-1.88,1.59s1.09.78,1.89.19S95.73,51.76,95.23,51.69Z"/><path class="cls-34" d="M40.39,69.68c-1.61-.24-3.26,1.8-3.43,2.9s2,1.44,3.44.36S41.29,69.82,40.39,69.68Z"/><path class="cls-44" d="M75,41.37S79.17,48,86.8,46.54s8.46-8,8.46-8S92.81,50.8,85.14,50.15,75,41.37,75,41.37Z"/><path class="cls-45" d="M28.29,59.42s5.2,2.86,7.91.51S37.63,49.8,37.63,49.8,40.77,62.24,38.79,64,28.29,59.42,28.29,59.42Z"/><path class="cls-46" d="M29.46,22s1.61,3.76,10,6.24a58.51,58.51,0,0,0,17.35,2s-15.31,2.15-21.48,0A8.55,8.55,0,0,1,29.46,22Z"/><path class="cls-47" d="M81.85,19.59s4.12,3.24,7.34,4.07,4.16-.91,4.16-.91.17,3.35-1.22,3.52S85.26,23.7,81.85,19.59Z"/><path class="cls-48" d="M92.22,60.24s1.87,6.81,3.92,7.55,5.08-5,5.08-5-1.7,6.31-6,8.79C95.26,71.63,93.2,69,92.22,60.24Z"/><path class="cls-49" d="M40.88,99.22a25.88,25.88,0,0,0,10.75,2.13,18.43,18.43,0,0,0,10.14-3.71A7.57,7.57,0,0,0,59,94a6.19,6.19,0,0,1-3.31,5C52.5,100.84,45,100.52,40.88,99.22Z"/><path class="cls-50" d="M83.26,83.87A16.3,16.3,0,0,1,78.87,92a23.85,23.85,0,0,1-8.5,4.47,21.08,21.08,0,0,0,9.44-4c5.12-3.6,6.07-7.77,6.07-7.77Z"/></g></g></g></svg>