<svg id="Capa_1" enable-background="new 0 0 512 512" height="512" viewBox="0 0 512 512" width="512" xmlns="http://www.w3.org/2000/svg"><g><path d="m454.453 108.521-92.323-52.194-41.162 30.463-64.968-16.687-20 348.033 85.51 31.385 66.387-6.231 53.125-87.364 13.185-118.829-22.106-83.71z" fill="#283d66"/><path d="m213.106 59.086-108.059 108.196-52.128 13.513-13.012 102.007 28.493 13.715-7.613 59.683 142.994 72.861 52.219-10.925v-348.033z" fill="#4d628c"/><path d="m0 60h30v30h-30z" fill="#ffda44"/><path d="m30 452h30v30h-30z" fill="#80aaff"/><path d="m60 30h30v30h-30z" fill="#80aaff"/><path d="m422 482h30v30h-30z" fill="#6e76e5"/><path d="m482 452h30v30h-30z" fill="#ffb655"/><path d="m422 0h30v30h-30z" fill="#cfcfe6"/><path d="m196 312.239h30v30h-30z" fill="#283d66"/><path d="m346.591 160.239h30v30h-30z" fill="#0f0f4d"/><path d="m136 282.239h30v30h-30z" fill="#283d66"/><circle cx="181" cy="206.721" fill="#283d66" r="45"/><path d="m454.207 237.097c-30.399-.811-57.154 21.591-61.083 52.388-4.012 31.456 17.229 60.404 47.898 66.441l31.071-51.095z" fill="#0f0f4d"/><path d="m311.028 397.268c-9.808-12.675-23.964-20.772-39.862-22.801-5.152-.657-10.237-.635-15.166-.006l-20 36.188 20 45.02 65.51-6.148c.696-2.606 1.24-5.258 1.582-7.943 2.029-15.899-2.256-31.635-12.064-44.31z" fill="#0f0f4d"/><path d="m204.057 426.394c-.113.89-.202 1.779-.276 2.667l52.219 26.607v-81.208c-26.464 3.373-48.414 24.268-51.943 51.934z" fill="#283d66"/></g></svg>