<?xml version="1.0" encoding="iso-8859-1"?>
<!-- Generator: Adobe Illustrator 19.0.0, SVG Export Plug-In . SVG Version: 6.00 Build 0)  -->
<svg version="1.1" id="Layer_1" xmlns="http://www.w3.org/2000/svg" xmlns:xlink="http://www.w3.org/1999/xlink" x="0px" y="0px"
	 viewBox="0 0 512 512" style="enable-background:new 0 0 512 512;" xml:space="preserve">
<path style="fill:#4A8DC6;" d="M298.337,19.621l-75.37,88.021v16.516c59.471,0,108.927-42.864,119.169-99.382
	C327.939,21.55,313.258,19.853,298.337,19.621z"/>
<path style="fill:#77AAD4;" d="M298.047,21.831l0.292-2.211c-56.9-0.889-117.344,19.819-168.306,61.082
	c22.217,26.559,55.601,43.455,92.936,43.455v-16.516C259.898,107.642,291.473,71.553,298.047,21.831z"/>
<path style="fill:#A5C6E3;" d="M487.185,208.281c10.407-14.464,16.557-32.198,16.557-51.377c0-44.431-32.9-81.158-75.664-87.197
	c-20.299-18.922-44.139-32.387-69.961-40.572c0.09-0.47,0.186-0.939,0.272-1.412c1.626-8.975-4.332-17.57-13.306-19.197
	c-8.973-1.623-17.57,4.332-19.197,13.306c-2.05,11.311-5.89,21.907-11.17,31.543l-105.782,428.48
	c15.506,13.615,35.82,21.887,58.077,21.887c39.142,0,72.302-25.538,83.775-60.855c13.063-7.982,25.71-17.197,37.788-27.571
	c11.473,1.512,23.496-2.132,32.311-10.947c9.383-9.383,12.915-22.402,10.597-34.523C469.174,320.33,488.071,262.682,487.185,208.281
	z"/>
<path style="fill:#D2E3F1;" d="M453.487,228.287c4.359-51.686-11.332-98.242-44.185-131.095
	c-24.608-24.607-57.671-39.809-94.587-43.818c-17.93,32.721-52.64,54.268-91.747,54.268c-31.056,0-60.311-13.682-80.268-37.537
	c-5.852-6.997-16.271-7.923-23.265-2.07c-6.996,5.852-7.923,16.268-2.07,23.265c0.044,0.053,0.089,0.104,0.133,0.155
	c-3.616,3.276-7.18,6.65-10.677,10.148c-13.033,13.033-24.53,26.936-34.498,41.427c-37.638,15.838-64.065,53.06-64.065,96.455
	c0,20.854,6.105,40.282,16.623,56.597c1.428,49.551,19.328,96.228,54.459,131.36c34.714,34.714,80.699,52.615,129.593,54.413
	c62.747-19.779,122.814-55.462,172.89-105.538C423.501,334.638,448.951,282.067,453.487,228.287z"/>
<path style="fill:#4A8DC6;" d="M267.011,360.602V470.71c30.405,0,55.054-24.649,55.054-55.054
	C322.065,385.251,297.416,360.602,267.011,360.602z"/>
<path style="fill:#77AAD4;" d="M289.032,415.656c0-30.405-9.859-55.054-22.021-55.054c-30.405,0-55.054,24.649-55.054,55.054
	c0,30.405,24.649,55.054,55.054,55.054C279.173,470.71,289.032,446.061,289.032,415.656z"/>
<path style="fill:#4A8DC6;" d="M415.656,101.849v110.108c30.405,0,55.054-24.649,55.054-55.054S446.061,101.849,415.656,101.849z"/>
<path style="fill:#77AAD4;" d="M437.677,156.903c0-30.405-9.859-55.054-22.022-55.054c-30.405,0-55.054,24.649-55.054,55.054
	s24.649,55.054,55.054,55.054C427.818,211.957,437.677,187.308,437.677,156.903z"/>
<path style="fill:#4A8DC6;" d="M112.86,167.914v143.14c39.526,0,71.57-32.043,71.57-71.57S152.387,167.914,112.86,167.914z"/>
<path style="fill:#77AAD4;" d="M151.398,239.484c0-39.526-17.254-71.57-38.538-71.57c-39.526,0-71.57,32.043-71.57,71.57
	s32.043,71.57,71.57,71.57C134.144,311.054,151.398,279.01,151.398,239.484z"/>
<path d="M222.242,370.887c-7.188,7.189-12.592,16.104-15.625,25.782c-1.364,4.353,1.057,8.986,5.408,10.35
	c4.353,1.365,8.986-1.058,10.35-5.408c2.273-7.248,6.157-13.656,11.546-19.044c18.246-18.245,47.933-18.245,66.179,0
	c18.245,18.246,18.245,47.934,0,66.179c-18.246,18.246-47.934,18.245-66.179,0c-5.389-5.389-9.273-11.796-11.546-19.044
	c-1.364-4.353-5.998-6.776-10.35-5.408c-4.351,1.364-6.773,5.999-5.408,10.35c3.033,9.677,8.438,18.592,15.626,25.782
	c12.342,12.342,28.555,18.513,44.769,18.513s32.426-6.17,44.769-18.513c24.685-24.685,24.685-64.851,0-89.536
	C287.094,346.202,246.928,346.202,222.242,370.887z"/>
<path d="M370.887,112.135c-7.188,7.189-12.592,16.104-15.625,25.782c-1.364,4.353,1.057,8.986,5.408,10.35
	c4.355,1.366,8.986-1.057,10.35-5.408c2.273-7.248,6.157-13.656,11.546-19.044c18.246-18.245,47.933-18.245,66.179,0
	c18.245,18.246,18.245,47.934,0,66.179c-18.246,18.246-47.934,18.245-66.179,0c-5.389-5.389-9.273-11.796-11.546-19.044
	c-1.364-4.351-5.995-6.775-10.35-5.408c-4.351,1.364-6.773,5.999-5.408,10.35c3.033,9.677,8.438,18.592,15.626,25.782
	c12.342,12.342,28.555,18.513,44.769,18.513c16.213,0,32.426-6.17,44.769-18.513c24.685-24.685,24.685-64.851,0-89.536
	C435.74,87.45,395.573,87.45,370.887,112.135z"/>
<path d="M512,156.903c0-23.357-8.467-45.886-23.842-63.437c-14.647-16.719-34.568-27.85-56.335-31.535
	c-18.754-17.015-40.567-29.968-64.949-38.574c-0.641-11.162-8.845-20.879-20.321-22.96C345.091,0.134,343.6,0,342.124,0
	c-9.226,0-17.407,5.09-21.665,12.813c-59.042-6.708-122.698,10.329-176.63,47.313c-4.037-2.711-8.821-4.198-13.807-4.198
	c-5.796,0-11.438,2.05-15.886,5.773c-5.076,4.246-8.194,10.214-8.781,16.806c-0.351,3.94,0.228,7.819,1.663,11.394
	c-2.077,1.961-4.095,3.922-6.036,5.863c-12.543,12.543-24.009,26.202-34.101,40.624C26.167,154.549,0,194.748,0,239.484
	c0,20.971,5.767,41.355,16.703,59.109c2.036,52.288,22.157,100.046,56.798,134.688c34.581,34.581,80.256,54.153,132.244,56.702
	C222.979,504.201,244.619,512,267.011,512c40.84,0,76.877-25.448,90.631-63.643c11.599-7.256,22.89-15.483,33.644-24.51
	c0.786,0.04,1.572,0.059,2.357,0.059c12.499,0,24.248-4.865,33.081-13.698c10.078-10.078,14.958-24.11,13.431-38.157
	c36.017-48.479,55.582-105.491,55.316-161.213C506.294,194.867,512,176.28,512,156.903z M315.798,28.934
	c-11.436,41.306-49.166,70.45-92.831,70.45c-25.303,0-49.304-9.868-67.233-27.355C204.995,39.047,262.384,23.598,315.798,28.934z
	 M424.91,364.843c-1.421,1.866-1.981,4.249-1.54,6.554c1.891,9.887-1.221,20.03-8.325,27.133c-5.713,5.713-13.315,8.86-21.403,8.86
	c-1.33,0-2.672-0.088-3.99-0.261c-2.327-0.311-4.677,0.392-6.46,1.924c-11.656,10.013-24.008,19.025-36.712,26.788
	c-1.681,1.027-2.939,2.622-3.549,4.496c-10.715,32.985-41.225,55.147-75.92,55.147c-19.37,0-38.061-7.044-52.629-19.835
	c-1.428-1.254-3.245-1.978-5.144-2.047c-48.941-1.8-91.84-19.781-124.057-51.999c-32.616-32.617-50.613-76.104-52.045-125.759
	c-0.044-1.505-0.498-2.971-1.314-4.236c-10.013-15.534-15.306-33.557-15.306-52.124c0-38.887,23.163-73.76,59.01-88.844
	c1.456-0.613,2.706-1.63,3.602-2.932c9.849-14.317,21.132-27.866,33.533-40.267c3.257-3.257,6.751-6.577,10.381-9.865
	c3.287-2.977,3.636-8.017,0.792-11.419l-0.135-0.156c-1.416-1.692-2.088-3.833-1.892-6.031c0.195-2.198,1.235-4.186,2.928-5.602
	c1.9-1.59,3.925-1.925,5.288-1.925c2.458,0,4.77,1.078,6.343,2.96c21.53,25.735,53.095,40.495,86.602,40.495
	c54.62,0,101.321-38.943,111.045-92.596c0.712-3.933,4.125-6.788,8.112-6.788c0.493,0,0.995,0.045,1.486,0.134
	c4.481,0.811,7.465,5.118,6.653,9.601c-0.047,0.265-0.1,0.529-0.152,0.793l-0.103,0.531c-0.791,4.113,1.623,8.164,5.614,9.43
	c25.403,8.052,47.886,21.088,66.825,38.742c1.238,1.154,2.8,1.899,4.476,2.136c39.086,5.521,68.561,39.492,68.561,79.022
	c0,16.817-5.187,32.914-15.002,46.553c-1.037,1.442-1.583,3.181-1.554,4.957C479.807,262.374,460.623,317.929,424.91,364.843z"/>
<circle cx="256" cy="256" r="8.258"/>
<circle cx="289.032" cy="222.968" r="8.258"/>
<circle cx="377.118" cy="327.57" r="8.258"/>
<circle cx="145.892" cy="426.667" r="8.258"/>
<path d="M169.439,194.896c-3.88,2.397-5.081,7.486-2.684,11.366c6.162,9.971,9.417,21.459,9.417,33.222
	c0,34.911-28.401,63.312-63.312,63.312s-63.312-28.401-63.312-63.312s28.401-63.312,63.312-63.312
	c11.764,0,23.251,3.257,33.222,9.417c3.881,2.397,8.969,1.196,11.366-2.684c2.397-3.879,1.196-8.968-2.684-11.366
	c-12.581-7.774-27.071-11.883-41.904-11.883c-44.018,0-79.828,35.81-79.828,79.828s35.81,79.828,79.828,79.828
	s79.828-35.81,79.828-79.828c0-14.831-4.109-29.322-11.883-41.904C178.408,193.701,173.32,192.5,169.439,194.896z"/>
<g>
</g>
<g>
</g>
<g>
</g>
<g>
</g>
<g>
</g>
<g>
</g>
<g>
</g>
<g>
</g>
<g>
</g>
<g>
</g>
<g>
</g>
<g>
</g>
<g>
</g>
<g>
</g>
<g>
</g>
</svg>
