<?xml version="1.0" encoding="iso-8859-1"?>
<!-- Generator: Adobe Illustrator 19.0.0, SVG Export Plug-In . SVG Version: 6.00 Build 0)  -->
<svg version="1.1" id="Layer_1" xmlns="http://www.w3.org/2000/svg" xmlns:xlink="http://www.w3.org/1999/xlink" x="0px" y="0px"
	 viewBox="0 0 512 512" style="enable-background:new 0 0 512 512;" xml:space="preserve">
<path style="fill:#FF4D30;" d="M357.13,56.782c-12.49-6.353-25.656-11.566-39.364-15.502V28.392
	c0-11.214-9.091-20.308-20.308-20.308h-82.92c-11.214,0-20.308,9.093-20.308,20.308v12.887
	c-35.502,10.195-67.373,28.955-93.247,53.9l-11.218-6.475c-9.71-5.608-22.13-2.281-27.739,7.432L20.57,167.949
	c-5.608,9.712-2.28,22.131,7.432,27.74l11.175,6.45c-4.272,17.253-6.554,35.289-6.554,53.861s2.282,36.61,6.554,53.862
	l-11.175,6.451c-9.712,5.607-13.04,18.027-7.432,27.737l41.459,71.813c5.608,9.713,18.03,13.041,27.739,7.433l11.219-6.477
	c25.874,24.945,57.745,43.706,93.247,53.901v12.887c0,11.215,9.093,20.306,20.308,20.306h82.92c11.217,0,20.308-9.092,20.308-20.306
	v-12.887c35.502-10.195,67.373-28.957,93.249-53.901l11.217,6.477c9.714,5.607,22.132,2.279,27.741-7.433l41.459-71.813
	c5.608-9.712,2.28-22.13-7.435-27.739l-11.17-6.45c4.272-17.253,6.554-35.289,6.554-53.862c0-18.571-2.282-36.609-6.554-53.861
	l11.17-6.45c9.716-5.606,13.045-18.029,7.435-27.74l-41.46-71.811c-5.608-9.713-18.028-13.039-27.741-7.433l-11.217,6.475
	c-9.661-9.315-20.159-17.767-31.371-25.234"/>
<g style="opacity:0.2;">
	<path style="fill:#231F20;" d="M54.81,350.979c-6.37-11.031-9.144-18.117,1.886-24.487l3.197-1.859l0,0l0,0l1.851-1.076
		c2.341-1.703,5.89-5.649,4.295-13.335c-0.005-0.024-0.005-0.041-0.011-0.064c-3.855-17.293-6.907-36.417-6.907-54.16
		c0-18.221,3.218-39.274,7.221-57.304c0.003-0.016,0.004-0.029,0.008-0.045c1.758-8.385-5.524-11.162-5.562-11.176l-4.9-1.918
		c-11.03-6.37-10.682-12.683-4.312-23.714L92.55,90.309l-2.783-1.606c-9.71-5.608-22.13-2.281-27.739,7.432L20.57,167.948
		c-5.608,9.712-2.28,22.131,7.432,27.74l11.175,6.45c-4.272,17.253-6.554,35.289-6.554,53.861s2.282,36.61,6.554,53.862
		l-11.175,6.451c-9.712,5.607-13.04,18.027-7.432,27.737l41.459,71.813c5.608,9.713,18.03,13.041,27.739,7.433l6.048-3.491
		L54.81,350.979z"/>
</g>
<g>
	<circle style="fill:#D33F2F;" cx="204.919" cy="378.902" r="27.922"/>
	<circle style="fill:#D33F2F;" cx="151.617" cy="296.82" r="16.923"/>
	<circle style="fill:#D33F2F;" cx="319.154" cy="247.754" r="49.075"/>
	<circle style="fill:#D33F2F;" cx="331.841" cy="383.978" r="12.692"/>
	<circle style="fill:#D33F2F;" cx="215.924" cy="147.909" r="25.385"/>
</g>
<g>
	<path style="fill:#231F20;" d="M297.459,512h-82.92c-15.654,0-28.392-12.736-28.392-28.391v-6.883
		c-31.881-10.094-61.508-27.221-86.318-49.902l-6.021,3.476c-6.567,3.791-14.219,4.799-21.542,2.836
		c-7.325-1.963-13.448-6.661-17.24-13.228l-41.459-71.814c-3.793-6.567-4.8-14.217-2.837-21.543
		c1.962-7.324,6.66-13.447,13.227-17.239l5.981-3.454c-3.586-16.33-5.402-33.073-5.402-49.859c0-16.786,1.815-33.528,5.402-49.858
		l-5.98-3.452c-13.559-7.831-18.22-25.229-10.392-38.785l41.46-71.81c3.793-6.568,9.916-11.265,17.241-13.228
		c7.326-1.962,14.978-0.954,21.542,2.838l6.019,3.474c24.811-22.68,54.437-39.808,86.319-49.902v-6.885
		C186.147,12.736,198.884,0,214.539,0h82.92c15.654,0,28.392,12.736,28.392,28.392v6.883c11.998,3.796,23.727,8.595,34.944,14.302
		c3.98,2.024,5.564,6.892,3.54,10.872c-2.024,3.981-6.892,5.564-10.871,3.541c-12.12-6.166-24.881-11.191-37.929-14.939
		c-3.465-0.995-5.853-4.165-5.853-7.769V28.392c0-6.74-5.483-12.223-12.223-12.223h-82.92c-6.74,0-12.223,5.483-12.223,12.223
		v12.887c0,3.606-2.388,6.776-5.853,7.769c-33.525,9.628-64.601,27.592-89.867,51.95c-2.596,2.502-6.532,2.983-9.651,1.181
		l-11.218-6.474c-2.829-1.634-6.121-2.067-9.274-1.222c-3.154,0.845-5.789,2.867-7.422,5.695l-41.459,71.813
		c-3.371,5.837-1.364,13.326,4.473,16.698l11.172,6.449c3.121,1.801,4.672,5.448,3.806,8.944
		c-4.192,16.929-6.316,34.397-6.316,51.918c0,17.522,2.126,34.991,6.316,51.919c0.866,3.497-0.687,7.144-3.805,8.944l-11.175,6.451
		c-2.827,1.632-4.849,4.268-5.693,7.421c-0.845,3.153-0.412,6.446,1.221,9.273l41.459,71.814c1.633,2.827,4.268,4.849,7.423,5.696
		c3.151,0.845,6.445,0.412,9.272-1.22l11.22-6.477c3.119-1.801,7.057-1.322,9.653,1.181c25.267,24.359,56.343,42.324,89.867,51.951
		c3.465,0.995,5.853,4.165,5.853,7.77v12.887c0,6.739,5.483,12.222,12.223,12.222h82.92c6.74,0,12.223-5.483,12.223-12.222v-12.887
		c0-3.606,2.388-6.776,5.853-7.77c33.524-9.627,64.6-27.592,89.869-51.951c2.594-2.503,6.531-2.983,9.653-1.181l11.217,6.477
		c5.836,3.368,13.326,1.362,16.698-4.475l41.459-71.813c1.633-2.827,2.066-6.12,1.221-9.273c-0.845-3.153-2.868-5.789-5.698-7.422
		l-11.171-6.451c-3.118-1.801-4.669-5.448-3.804-8.944c4.192-16.928,6.316-34.397,6.316-51.919c0-17.521-2.126-34.988-6.316-51.918
		c-0.866-3.497,0.687-7.143,3.804-8.943l11.17-6.451c2.831-1.633,4.854-4.268,5.699-7.422c0.845-3.153,0.412-6.447-1.221-9.274
		l-41.461-71.811c-3.37-5.837-10.858-7.842-16.699-4.473l-11.217,6.475c-3.119,1.8-7.057,1.32-9.653-1.181
		c-9.314-8.981-19.488-17.164-30.241-24.324c-3.715-2.475-4.722-7.494-2.247-11.209c2.475-3.718,7.492-4.722,11.209-2.248
		c9.864,6.569,19.277,13.939,28.048,21.96l6.019-3.474c13.556-7.826,30.956-3.165,38.783,10.392l41.459,71.813
		c3.792,6.567,4.8,14.219,2.836,21.544c-1.963,7.326-6.662,13.449-13.232,17.24l-5.975,3.45c3.586,16.33,5.402,33.073,5.402,49.859
		c0,16.787-1.815,33.53-5.402,49.86l5.978,3.452c6.568,3.791,11.266,9.913,13.229,17.239c1.964,7.325,0.957,14.976-2.836,21.544
		l-41.459,71.812c-7.829,13.558-25.226,18.219-38.784,10.393l-6.019-3.476c-24.814,22.681-54.44,39.809-86.32,49.902v6.883
		C325.851,499.265,313.115,512,297.459,512z"/>
	<path style="fill:#231F20;" d="M204.923,414.906c-19.854,0-36.006-16.152-36.006-36.005c0-19.854,16.152-36.007,36.006-36.007
		s36.006,16.152,36.006,36.007C240.929,398.754,224.777,414.906,204.923,414.906z M204.923,359.063
		c-10.938,0-19.838,8.899-19.838,19.839c0,10.937,8.899,19.836,19.838,19.836c10.938,0,19.838-8.899,19.838-19.837
		C224.761,367.962,215.861,359.063,204.923,359.063z"/>
	<path style="fill:#231F20;" d="M151.618,321.833c-13.79,0-25.008-11.219-25.008-25.007c0-13.788,11.219-25.006,25.008-25.006
		c13.788,0,25.006,11.218,25.006,25.006C176.624,310.615,165.406,321.833,151.618,321.833z M151.618,287.988
		c-4.875,0-8.84,3.965-8.84,8.838c0,4.874,3.966,8.839,8.84,8.839c4.873,0,8.838-3.966,8.838-8.839S156.491,287.988,151.618,287.988
		z"/>
	<path style="fill:#231F20;" d="M319.15,304.909c-31.518,0-57.16-25.641-57.16-57.159s25.642-57.16,57.16-57.16
		s57.16,25.642,57.16,57.16C376.31,279.268,350.668,304.909,319.15,304.909z M319.15,206.76c-22.603,0-40.991,18.389-40.991,40.991
		s18.389,40.99,40.991,40.99c22.603,0,40.991-18.388,40.991-40.99C360.142,225.148,341.753,206.76,319.15,206.76z"/>
	<path style="fill:#231F20;" d="M331.843,404.754c-11.457,0-20.776-9.321-20.776-20.776c0-11.456,9.321-20.776,20.776-20.776
		c11.457,0,20.776,9.321,20.776,20.776C352.619,395.433,343.3,404.754,331.843,404.754z M331.843,379.369
		c-2.541,0-4.608,2.067-4.608,4.608s2.067,4.608,4.608,4.608c2.542,0,4.608-2.067,4.608-4.608S334.384,379.369,331.843,379.369z"/>
	<path style="fill:#231F20;" d="M215.923,181.375c-18.455,0-33.47-15.014-33.47-33.468c0-18.455,15.015-33.469,33.47-33.469
		s33.47,15.014,33.47,33.469C249.392,166.362,234.378,181.375,215.923,181.375z M215.923,130.607c-9.54,0-17.301,7.761-17.301,17.3
		c0,9.539,7.761,17.299,17.301,17.299c9.54,0,17.301-7.761,17.301-17.299C233.223,138.368,225.462,130.607,215.923,130.607z"/>
</g>
<g>
</g>
<g>
</g>
<g>
</g>
<g>
</g>
<g>
</g>
<g>
</g>
<g>
</g>
<g>
</g>
<g>
</g>
<g>
</g>
<g>
</g>
<g>
</g>
<g>
</g>
<g>
</g>
<g>
</g>
</svg>
