<svg xmlns="http://www.w3.org/2000/svg" xmlns:xlink="http://www.w3.org/1999/xlink" viewBox="0 0 99.24 97.8"><defs><style>.cls-1{isolation:isolate;}.cls-10,.cls-11,.cls-12,.cls-13,.cls-14,.cls-15,.cls-16,.cls-17,.cls-18,.cls-19,.cls-2,.cls-20,.cls-21,.cls-22,.cls-23,.cls-24,.cls-25,.cls-26,.cls-27,.cls-28,.cls-3,.cls-4,.cls-5,.cls-6,.cls-7,.cls-8,.cls-9{fill-rule:evenodd;}.cls-2{fill:url(#Áåçûìÿííûé_ãðàäèåíò_460);}.cls-3{fill:url(#Áåçûìÿííûé_ãðàäèåíò_460-3);}.cls-12,.cls-14,.cls-25,.cls-26,.cls-4,.cls-5,.cls-6,.cls-7,.cls-8,.cls-9{mix-blend-mode:screen;}.cls-4{fill:url(#Áåçûìÿííûé_ãðàäèåíò_494);}.cls-5{fill:url(#Áåçûìÿííûé_ãðàäèåíò_494-2);}.cls-6{fill:url(#Áåçûìÿííûé_ãðàäèåíò_494-3);}.cls-7{fill:url(#Áåçûìÿííûé_ãðàäèåíò_494-4);}.cls-8{fill:url(#Áåçûìÿííûé_ãðàäèåíò_494-5);}.cls-9{fill:url(#Áåçûìÿííûé_ãðàäèåíò_494-6);}.cls-10,.cls-11{fill:#7d72b3;}.cls-10,.cls-18,.cls-25,.cls-26{opacity:0.5;}.cls-10,.cls-11,.cls-18{mix-blend-mode:multiply;}.cls-11{opacity:0.4;}.cls-12{fill:url(#Áåçûìÿííûé_ãðàäèåíò_494-7);}.cls-13{fill:#00c4ff;}.cls-14{fill:url(#Áåçûìÿííûé_ãðàäèåíò_486);}.cls-15{fill:url(#Áåçûìÿííûé_ãðàäèåíò_469);}.cls-16{fill:url(#Áåçûìÿííûé_ãðàäèåíò_479);}.cls-17{fill:#ff61c7;}.cls-18{fill:#54469b;}.cls-19{fill:#b04fe2;}.cls-20{fill:#8b40e0;}.cls-21{fill:#ff77f4;}.cls-22{fill:#ea9cf4;}.cls-23{fill:#d374f4;}.cls-24{fill:#f2c4f8;}.cls-25{fill:url(#Áåçûìÿííûé_ãðàäèåíò_796);}.cls-26{fill:url(#Áåçûìÿííûé_ãðàäèåíò_796-2);}.cls-27{fill:#fffff8;}.cls-28{fill:#f5cefa;}</style><radialGradient id="Áåçûìÿííûé_ãðàäèåíò_460" cx="18.89" cy="29.7" r="77.42" gradientUnits="userSpaceOnUse"><stop offset="0.01" stop-color="#ff9aff"/><stop offset="0.09" stop-color="#fb94ff"/><stop offset="0.21" stop-color="#f183ff"/><stop offset="0.34" stop-color="#e068ff"/><stop offset="0.49" stop-color="#c841ff"/><stop offset="0.64" stop-color="#a910ff"/><stop offset="0.68" stop-color="#9f00ff"/><stop offset="0.74" stop-color="#9900f8"/><stop offset="0.83" stop-color="#8700e5"/><stop offset="0.93" stop-color="#6a00c6"/><stop offset="1" stop-color="#5200ab"/></radialGradient><radialGradient id="Áåçûìÿííûé_ãðàäèåíò_460-3" cx="21.08" cy="25.22" r="76.1" xlink:href="#Áåçûìÿííûé_ãðàäèåíò_460"/><radialGradient id="Áåçûìÿííûé_ãðàäèåíò_494" cx="31.09" cy="17.17" r="17.02" gradientUnits="userSpaceOnUse"><stop offset="0" stop-color="#fff"/><stop offset="1" stop-color="#623964"/></radialGradient><radialGradient id="Áåçûìÿííûé_ãðàäèåíò_494-2" cx="33.8" cy="23.32" r="5.92" xlink:href="#Áåçûìÿííûé_ãðàäèåíò_494"/><radialGradient id="Áåçûìÿííûé_ãðàäèåíò_494-3" cx="30.16" cy="22.77" r="6.24" xlink:href="#Áåçûìÿííûé_ãðàäèåíò_494"/><radialGradient id="Áåçûìÿííûé_ãðàäèåíò_494-4" cx="25.75" cy="16.77" r="14.41" xlink:href="#Áåçûìÿííûé_ãðàäèåíò_494"/><radialGradient id="Áåçûìÿííûé_ãðàäèåíò_494-5" cx="19.59" cy="11.17" r="24.43" xlink:href="#Áåçûìÿííûé_ãðàäèåíò_494"/><radialGradient id="Áåçûìÿííûé_ãðàäèåíò_494-6" cx="28.64" cy="15.03" r="34.04" xlink:href="#Áåçûìÿííûé_ãðàäèåíò_494"/><radialGradient id="Áåçûìÿííûé_ãðàäèåíò_494-7" cx="18.03" cy="15.29" r="57.51" xlink:href="#Áåçûìÿííûé_ãðàäèåíò_494"/><radialGradient id="Áåçûìÿííûé_ãðàäèåíò_486" cx="35.27" cy="65.37" r="45.33" gradientUnits="userSpaceOnUse"><stop offset="0" stop-color="#ffff4a"/><stop offset="1" stop-color="#360038"/></radialGradient><radialGradient id="Áåçûìÿííûé_ãðàäèåíò_469" cx="17.42" cy="82.86" r="4.89" gradientUnits="userSpaceOnUse"><stop offset="0" stop-color="#6d00c2"/><stop offset="0.4" stop-color="#6600bc"/><stop offset="0.98" stop-color="#5300ac"/><stop offset="1" stop-color="#5200ab"/></radialGradient><radialGradient id="Áåçûìÿííûé_ãðàäèåíò_479" cx="96.54" cy="54.42" r="5.11" gradientUnits="userSpaceOnUse"><stop offset="0" stop-color="#1f0081"/><stop offset="0.73" stop-color="#260087"/><stop offset="1" stop-color="#2a008b"/></radialGradient><linearGradient id="Áåçûìÿííûé_ãðàäèåíò_796" x1="21.17" y1="32.86" x2="27.79" y2="32.86" gradientUnits="userSpaceOnUse"><stop offset="0" stop-color="#bdffe8"/><stop offset="0.2" stop-color="#8bbbaa"/><stop offset="0.42" stop-color="#5a796e"/><stop offset="0.61" stop-color="#33453f"/><stop offset="0.78" stop-color="#171f1d"/><stop offset="0.91" stop-color="#060808"/><stop offset="1"/></linearGradient><linearGradient id="Áåçûìÿííûé_ãðàäèåíò_796-2" x1="5.4" y1="39.23" x2="34.67" y2="39.23" xlink:href="#Áåçûìÿííûé_ãðàäèåíò_796"/></defs><g class="cls-1"><g id="Layer_2" data-name="Layer 2"><g id="planets"><path class="cls-2" d="M99.24,60.06l-.36,1.29a1.67,1.67,0,0,1,0,.18A50.34,50.34,0,0,1,50.42,97.8c-.89,0-1.8,0-2.68-.07h0c-1.32-.07-2.63-.19-3.92-.35a50,50,0,0,1-22.89-9.11c-.62-.45-1.23-.91-1.82-1.38a7.22,7.22,0,0,1,3.61-1.1L19.3,83.08l-8.55-4.6a49.42,49.42,0,0,1-4.42-6.61q-.47-.83-.9-1.68s0,0,0,0q-.45-.92-.87-1.83h0a49.7,49.7,0,0,1-2.26-6c-.46-1.47-.86-3-1.18-4.52a.06.06,0,0,1,0,0C.85,56.72.66,55.63.51,54.53A49.63,49.63,0,0,1,0,47.38c0-.56,0-1.13,0-1.68,0-.83.07-1.66.15-2.47s.15-1.62.25-2.42a1.24,1.24,0,0,1,0-.18c.15-1.12.33-2.21.56-3.3A44.8,44.8,0,0,1,2.18,32.7a46.26,46.26,0,0,1,2.31-6.15,48.71,48.71,0,0,1,3-5.57c3.44-1.82,5.64-2.77,5.64-2.77S71.8,6.56,72.71,5.56s5.35-.37,5.35-.37a51.25,51.25,0,0,1,7.67,6.18c.55.53,1.08,1.09,1.62,1.65.35.38.7.78,1,1.17.58.66,1.15,1.35,1.7,2a50.11,50.11,0,0,1,5.26,8.22c.58,1.12,1.11,2.27,1.6,3.44,0,0,0,0,0,0A60.14,60.14,0,0,1,95.9,60.67,11.47,11.47,0,0,1,99.24,60.06Z"/><path class="cls-2" d="M99.24,60.06l-.36,1.29a1.67,1.67,0,0,1,0,.18A50.34,50.34,0,0,1,50.42,97.8c-.89,0-1.8,0-2.68-.07h0c-1.32-.07-2.63-.19-3.92-.35a50,50,0,0,1-22.89-9.11c-.62-.45-1.23-.91-1.82-1.38a7.22,7.22,0,0,1,3.61-1.1L19.3,83.08l-8.55-4.6a49.42,49.42,0,0,1-4.42-6.61q-.47-.83-.9-1.68s0,0,0,0q-.45-.92-.87-1.83h0a49.7,49.7,0,0,1-2.26-6c-.46-1.47-.86-3-1.18-4.52a.06.06,0,0,1,0,0C.85,56.72.66,55.63.51,54.53A49.63,49.63,0,0,1,0,47.38c0-.56,0-1.13,0-1.68,0-.83.07-1.66.15-2.47s.15-1.62.25-2.42a1.24,1.24,0,0,1,0-.18c.15-1.12.33-2.21.56-3.3A44.8,44.8,0,0,1,2.18,32.7a46.26,46.26,0,0,1,2.31-6.15,48.71,48.71,0,0,1,3-5.57c3.44-1.82,5.64-2.77,5.64-2.77S71.8,6.56,72.71,5.56s5.35-.37,5.35-.37a51.25,51.25,0,0,1,7.67,6.18c.55.53,1.08,1.09,1.62,1.65.35.38.7.78,1,1.17.58.66,1.15,1.35,1.7,2a50.11,50.11,0,0,1,5.26,8.22c.58,1.12,1.11,2.27,1.6,3.44,0,0,0,0,0,0A60.14,60.14,0,0,1,95.9,60.67,11.47,11.47,0,0,1,99.24,60.06Z"/><path class="cls-3" d="M97.8,47.38a45.94,45.94,0,0,1-.3,5.28A45.14,45.14,0,0,1,96,60.5a1.09,1.09,0,0,1,0,.17A47.31,47.31,0,0,1,50.42,94.75c-.84,0-1.69,0-2.52-.07h0c-1.24-.06-2.47-.18-3.68-.33a46.94,46.94,0,0,1-21.5-8.56c-.93-.66-1.83-1.37-2.7-2.1-.24-.2-.48-.4-.71-.61A48.26,48.26,0,0,1,9,70.39c-.29-.52-.57-1-.85-1.58,0,0,0,0,0,0-.29-.57-.56-1.14-.82-1.72h0a45.42,45.42,0,0,1-2.12-5.6A42.54,42.54,0,0,1,4.07,57.2a.06.06,0,0,1,0,0c-.21-1-.39-2-.53-3.06a46.63,46.63,0,0,1-.48-6.72c0-.53,0-1.06,0-1.58,0-.78.07-1.56.14-2.32s.14-1.52.24-2.27a1,1,0,0,1,0-.17c.14-1,.31-2.08.52-3.1a41.94,41.94,0,0,1,1.1-4.35,44,44,0,0,1,2.17-5.78A47.11,47.11,0,0,1,10.44,22a43,43,0,0,1,2.66-3.75,46.62,46.62,0,0,1,4.3-4.8A47.2,47.2,0,0,1,50.42,0l1.49,0c.53,0,1.06,0,1.59.08,1.47.1,2.93.26,4.36.49h0c1.2.18,2.38.42,3.54.7,1.5.36,3,.78,4.41,1.28,1,.33,1.94.7,2.89,1.1.71.3,1.4.61,2.09.94l.36.17a47.47,47.47,0,0,1,12.39,8.76c.52.5,1,1,1.52,1.55.33.36.66.73,1,1.1.55.62,1.08,1.27,1.6,1.92a47.14,47.14,0,0,1,9.89,24.73A45.21,45.21,0,0,1,97.8,47.38Z"/><path class="cls-4" d="M27.29,28.5a8.17,8.17,0,0,0-.21,5.63c1.05,2.84,4,.95,7.49,0s7.1-4.64,9.38-6.92,4.45-5.4,4.26-8.43-3.39-5-3.39-5S46,12.27,45,18.21s-2.31,8.06-3.58,9-5.14,3.2-7.25,4.46-4.47,2.57-5.86,2.26S26.18,30.49,27.29,28.5Z"/><path class="cls-5" d="M33.71,26.45s-1.79,1.6-1.32,2.88,3.88.47,6.06-2.3.46-5,.46-5-.8,4.61-2.92,5.42-2.81.47-2.81.47S32.85,27.56,33.71,26.45Z"/><path class="cls-6" d="M28.27,28.44s1.75-2,3.74-3.83A13.31,13.31,0,0,1,37.44,22a4.91,4.91,0,0,0-4.58.43C30.28,24,28.27,28.44,28.27,28.44Z"/><path class="cls-7" d="M21.14,28.48a27.89,27.89,0,0,1,9-6.44c4.92-1.94,6.63-2.51,8.81-4.31a40.4,40.4,0,0,1,4.64-3.24s-4.8.25-12.13,4.89S21.12,27,21.14,28.48Z"/><path class="cls-8" d="M11.26,27.58s7-7,12.51-9.75S33,13.28,37.88,12.05,50.42,8.67,50.42,8.67L51.8,8s-15.66.32-25.95,6.51S11.26,27.58,11.26,27.58Z"/><path class="cls-9" d="M19.67,35.67s1.17,9.67,2.85,10.11,7.72.39,16.69-4.2S50,38.05,55,32.94,62.1,22,63.65,18.21s2-8.18,1.53-9.54c0,0,1.69,1,1.69,4.8a41.75,41.75,0,0,1-2.74,13.84c-1.61,3.69-5.78,9.47-10.8,12.31s-15.07,8.3-24.92,8.22-8.29-.79-9.31-2.75S19.67,35.67,19.67,35.67Z"/><path class="cls-10" d="M4.31,43.93A61.08,61.08,0,0,1,7.06,51.4C8,55,7.85,61,11.93,62s9.75,3.6,11.93,2.93,10.23-2.1,14.69-1.23,12.6.38,15.44-1,9-5.07,11.87-6.18,6.93-4.28,10.39-7.8,3.41-7.53,4.27-9.52,2.55-9.94,2.36-13.54-2.36-10.33-2.36-10.33l-2-2.14s2.5,9.25,1.36,15.78-.09,9.19-4.64,15.45a37.32,37.32,0,0,1-18,13.54c-7.1,2.37-11.66,2.09-19,2.77-6.89.64-15.46.15-18.87-.74A17.2,17.2,0,0,1,9,52.09C5.86,47.1,4.31,43.93,4.31,43.93Z"/><path class="cls-11" d="M20,33.7s.65,10.51,2,11.41,4.17,1.28,6.82.38,11.75-3.88,13.31-4.83,11.14-5.73,13-7.15S59.53,27,60.38,26s3.18-7.3,3.84-9.67,1.14-5.21,1.14-5.21a1.64,1.64,0,0,0-1-1.75c-1.14-.43-1.32,0-1.32,0s-.24,1.56-1.24,6.06-14.4,20-21.17,24a26.51,26.51,0,0,1-15.54,3.89C22.82,43,19.93,35.5,20,33.7Z"/><path class="cls-11" d="M19.67,35.67s.28-6.55,2-8.75S29,20.2,32.35,18.49s8.24-4.12,9.94-4.48a6.38,6.38,0,0,1,2.9,0s-2-1.11-6.74.08S28.46,19.63,25.9,21s-6.54,4.62-7.48,6.28S19.67,35.67,19.67,35.67Z"/><path class="cls-11" d="M8.14,28.77,22.68,16l9-4.07s8.9-3,13-4S57.87,6.74,57.87,6.74l4.8.53S54.33,2.72,42,6,21.5,13.49,17.9,16.89,8.86,27.1,8.14,28.77Z"/><path class="cls-12" d="M7.74,29.33s-7.81,9.43-4,15.23,5.46,14.16,6.56,16.11S24,65.54,26.56,64.94s8.88-2.25,13-.67c0,0,7.26-.62,9.34-.62s5.88-1.77,6.76-2.21,5.81-2,8.34-3,6.57-4.17,8.21-5.43a44.16,44.16,0,0,0,6.76-8c.82-1.58,3.28-10.8,3.91-15.16S81.62,17.1,80.2,14.2s-5.87-5.62-5.87-5.62l.26-1.32,3.47-2.07s6.06,7.94,6.62,14.8c.34,4,1.27,12.59.21,16.27-.85,3-3.74,11.65-6.27,14.75S68.52,62,64.47,63.57s-16,3.6-23,3.74c-5.17.11-16.58-.82-22.18-1S9.69,62.6,7.46,60.82,6,54.19,3.72,50.36.19,41.44.75,38.67,7.74,29.33,7.74,29.33Z"/><path class="cls-13" d="M21.45,65.22c-1.2-.28-2.28-.94-3.47-1.24-.67-.16-1.33-.26-2-.45a9.32,9.32,0,0,0-2.09-.35,4.58,4.58,0,0,1-3.69-1.54,10.11,10.11,0,0,1-1.62-3.39c-.47-1.68-.92-3.36-1.44-5a18.09,18.09,0,0,0-2-4.3c-.34-.55-.63-1.1-1-1.63A11.14,11.14,0,0,1,3.08,45.8h0a9.85,9.85,0,0,1-.85-4.47,12.24,12.24,0,0,1,.43-2.39,10.07,10.07,0,0,1,1-2.81c.48-.83,1-1.68,1.43-2.53a43.7,43.7,0,0,1,3.52-5.45A77,77,0,0,1,14.17,22a30.93,30.93,0,0,1,3.67-3.09c1.08-.8,2.08-1.68,3.15-2.49a34.37,34.37,0,0,1,6-3.31c2.49-1.2,5-2.36,7.57-3.31A65.71,65.71,0,0,1,44,7.13a55.46,55.46,0,0,1,11.22-.87c2,0,4.22-.25,6.17.51a16.84,16.84,0,0,1,3.34,1.52,1.34,1.34,0,0,1,.46.38,1.59,1.59,0,0,1,.19.42,4,4,0,0,1,.33,1.3c0,.41-.18.77-.18,1.2,0,.61-.15,1.16-.17,1.76a17.08,17.08,0,0,1-.3,1.9,15.88,15.88,0,0,1-.86,3.6c-.7,1.69-1.16,3.47-1.93,5.14-.23.51-.64.9-.87,1.41s-.42.84-.68,1.28c-.49.82-.89,1.67-1.45,2.45a24.27,24.27,0,0,1-3.87,4.58,34.78,34.78,0,0,1-6,3.9c-1.38.73-2.82,1.32-4.22,2s-2.5,1.26-3.76,1.85a80.51,80.51,0,0,1-10.08,3.69,17.63,17.63,0,0,1-2.91.78,19.36,19.36,0,0,1-2.92.41,10.5,10.5,0,0,1-3-.58c-1.62-.54-1.78-2.3-1.9-3.76a29.47,29.47,0,0,0-.42-3.25C20,37.9,20,37,19.77,36.16a13.05,13.05,0,0,1-.34-2.71,14.2,14.2,0,0,1,.69-3.38,12.66,12.66,0,0,1,.55-2.18,7.87,7.87,0,0,1,2.06-2.63c.83-.74,1.65-1.47,2.47-2.22.49-.46,1.07-.8,1.59-1.22a17,17,0,0,1,3-1.83,26.64,26.64,0,0,0,2.18-1.61,27.26,27.26,0,0,1,2.5-1.47c.73-.36,1.52-.61,2.28-.91s1.19-.6,1.82-.81,1.18-.26,1.75-.5A12.75,12.75,0,0,1,42,14.1a10.5,10.5,0,0,1,2-.45,2.11,2.11,0,0,1,2.27,1.89c.46,1.72-.07,3.17-.69,4.76-.5,1.28-1,2.55-1.54,3.85-.65,1.73-2.19,2.64-3.49,3.82a18.55,18.55,0,0,1-4.74,3.1c-.53.24-1.1.38-1.62.6s-.89.45-1.34.69c-.29.16-.5.39-.77.57s-.52.25-.77.41a12.63,12.63,0,0,1-1.89,1.08c-.64.29-1.91.46-2.33-.29a4.92,4.92,0,0,1-.29-1.34,6.26,6.26,0,0,1-.14-1.5,8.47,8.47,0,0,1,.18-1.43,8.71,8.71,0,0,1,.46-1.36A13.63,13.63,0,0,1,29.54,25a22.21,22.21,0,0,1,1.58-2.07,6.88,6.88,0,0,1,3.44-1.76c1.14-.28,2.84-.62,3.89,0,.89.55.27,1.76,0,2.5-.16.41-.33.83-.47,1.25a4.33,4.33,0,0,1-.32,1A7.54,7.54,0,0,1,36,27.46a3.58,3.58,0,0,1-1,.61c-.38.12-.79.11-1.17.2-.19,0-.29.28-.52.19s-.21-.31-.17-.53.13-.4.17-.59c0,0,0-.11,0-.16a8.25,8.25,0,0,1,1.25-1.83c.54.22.17.54.07.78a5.78,5.78,0,0,0-.11.6c0,.17-.3.48-.11.66s.57-.1.71-.15a4.24,4.24,0,0,0,2.27-2.83c.23-.75.19-2.05-.64-2.38a5.94,5.94,0,0,0-2-.12c-2.35,0-3.74,2.47-5,4.09a13.74,13.74,0,0,0-2,3.65,27,27,0,0,0-.72,2.74c-.18.67-.4,1.7.63,1.56a11.75,11.75,0,0,0,1.82-.6,9.19,9.19,0,0,0,1.41-.6c.74-.4,1.57-.51,2.34-.85.6-.27,1.21-.6,1.81-.89a13.72,13.72,0,0,0,4.14-3.6A32.2,32.2,0,0,1,41.77,25a12.54,12.54,0,0,0,1.91-2.95,11.46,11.46,0,0,0,1.15-3.25c.24-1,.86-2.22.54-3.3s-1.78-1.14-2.71-1a11.81,11.81,0,0,0-2.35.55c-1.36.54-2.7,1.12-4.05,1.67a43.42,43.42,0,0,0-5.85,3.52,28.94,28.94,0,0,0-3,1.78c-.68.53-1.33,1.15-2,1.73A14.38,14.38,0,0,1,24.09,25a8.23,8.23,0,0,0-1.84,1.64,7.11,7.11,0,0,0-1.11,1.8,3.84,3.84,0,0,0,0,1.51A20.41,20.41,0,0,1,21,32.06c0,.74,0,1.5,0,2.24,0,1.45-.22,2.86-.19,4.33a16,16,0,0,0,.4,2.74,16,16,0,0,1,.48,2.05,1.81,1.81,0,0,0,.51,1.39,2.78,2.78,0,0,0,.69.28c.21.08.4.15.6.21l.35.1c.09.05.16.18.25.22a1.64,1.64,0,0,0,.85,0c.58-.11,1.15-.25,1.73-.35a22.88,22.88,0,0,0,4.3-.74c1.59-.6,3.07-1.46,4.64-2.1a73,73,0,0,0,7.12-2.87c1-.55,2.06-1.06,3.1-1.53,2.47-1.11,5.06-2,7.23-3.68a18.9,18.9,0,0,0,2.17-2.12c.4-.43.83-.81,1.19-1.28a31.38,31.38,0,0,0,2.89-4.42c.35-.65.56-1.36.92-2,.56-1,1.24-1.9,1.76-2.94a20.48,20.48,0,0,0,1.15-3.12,5.36,5.36,0,0,0,.34-1.9,8.9,8.9,0,0,1,.69-3.89,4.17,4.17,0,0,0,.52-2.53c-.12-.39-.68-.49-1-.6-.8-.27-1.63-.47-2.4-.81a8.13,8.13,0,0,0-2-.83,3.68,3.68,0,0,0-.87-.09c-.75,0-1.4.56-2.15.53a4.33,4.33,0,0,1-.68-.14,7.92,7.92,0,0,0-1.19,0C53.5,8.13,52.67,8,51.8,8s-2,.1-3,.16-1.91,0-2.86,0a3.85,3.85,0,0,0-1.53.54c-.49.22-1,.31-1.55.5a4,4,0,0,1-1.35.36,10.15,10.15,0,0,0-2,.05,15,15,0,0,0-2.36.82c-2.13.91-4.2,2.05-6.41,2.75-1.07.33-2.17.48-3.21.9a6.7,6.7,0,0,0-1.08.67c-.7.47-1.43.9-2.15,1.35-1.61,1-3.14,2.14-4.67,3.28a31.16,31.16,0,0,0-5,4.38A106.64,106.64,0,0,0,7,33a31.12,31.12,0,0,0-3,4.92l0,.11a5.92,5.92,0,0,0-.5,3.1.13.13,0,0,0,0,.06,11.17,11.17,0,0,0,.85,2.72A21.69,21.69,0,0,0,5.4,46.34a18.58,18.58,0,0,1,1.53,2.42c.43,1.11.82,2.3,1.15,3.45a42.43,42.43,0,0,1,1,4.43,10,10,0,0,0,.76,2.69c.61,1.18,1.91,1.62,3,2.31a2.78,2.78,0,0,0,1.63.52,11.85,11.85,0,0,1,2.76.55,19,19,0,0,0,5.92,1,30.3,30.3,0,0,0,3.55-.49c1.11-.14,2.22-.25,3.32-.43a19,19,0,0,1,3-.44,11.66,11.66,0,0,1,3,.42,16.3,16.3,0,0,0,5,.76c1.06,0,2.1-.27,3.15-.34a21.74,21.74,0,0,1,2.91.16,13.45,13.45,0,0,0,5-.85,14.59,14.59,0,0,0,3-1.48,8.89,8.89,0,0,1,2.45-.84,21.43,21.43,0,0,0,5-2c2-1.16,3.72-2.87,5.7-4.11,1.12-.7,2.38-1.16,3.47-1.91a16.77,16.77,0,0,0,2.51-2.09c.89-.9,1.73-1.84,2.62-2.74A7.83,7.83,0,0,0,78.25,45a14.19,14.19,0,0,0,1-4,14.94,14.94,0,0,1,1.42-3.82,14.43,14.43,0,0,0,1.55-4.92c.13-1.35.31-2.71.31-4.07a20.31,20.31,0,0,0-.26-2.58c-.11-.8-.27-1.57-.44-2.36-.22-1-.19-2-.37-2.95s-.42-1.73-.65-2.56A13.6,13.6,0,0,0,80.22,16a11.87,11.87,0,0,0-1.73-2.85,4.93,4.93,0,0,0-1-.71c-.26-.2-.32-.37-.62-.52s-.84-.42-1.25-.65c-.66-.38-1.41-.49-2.07-.85s-1.2-.79-1.8-1.17a11.59,11.59,0,0,1-2-1.28c-.58-.56-1-1.27-1.52-1.83a18.81,18.81,0,0,0-2-1.46c-1.13-.88-2.46-1-3.73-1.49a9.37,9.37,0,0,0-1.95-.46A20.12,20.12,0,0,0,58.42,2a13,13,0,0,1-2.16-.29A8,8,0,0,0,55,1.45a12.4,12.4,0,0,0-2.51.13,20.75,20.75,0,0,1-2.23,0,11.93,11.93,0,0,1-1.89,0,25.64,25.64,0,0,0-5.47-.12,18.91,18.91,0,0,0-5,.8c-1.37.47-2.72.87-4.06,1.42A22.65,22.65,0,0,0,31.29,5c-2.07,1.16-4,2.58-5.94,3.9C23.15,10.4,21.08,12,19,13.61c-1.38,1-2.78,2.07-4.14,3.14-.59.47-1.16,1-1.72,1.46a46.62,46.62,0,0,1,4.3-4.8A47.2,47.2,0,0,1,50.42,0l1.49,0c.53,0,1.06,0,1.59.08,1.47.1,2.93.26,4.36.49h0q2.45.66,4.87,1.4c1.35.41,2.71.78,4,1.24.88.3,1.74.69,2.59,1a23.29,23.29,0,0,1,2.34,1,33.37,33.37,0,0,1,3.34,2.34,21.59,21.59,0,0,1,2,1.79,17.44,17.44,0,0,1,2.42,2.94,24.91,24.91,0,0,1,3.52,8.27,31.48,31.48,0,0,1,.35,7.64,26.28,26.28,0,0,1-.56,4.13,41.17,41.17,0,0,0-1,4.3c-.07.73,0,1.48-.07,2.2s-.32,1.16-.44,1.75a14.06,14.06,0,0,1-1.2,3.61,21.58,21.58,0,0,1-3,4.22c-1.27,1.51-2.63,3-4,4.44a19.58,19.58,0,0,1-4.64,3.71A28.06,28.06,0,0,1,64.49,59a18,18,0,0,1-4.37,1.47,5.6,5.6,0,0,0-2.92,1.21c-.55.4-1,.94-1.47,1.37a4.44,4.44,0,0,1-1.55.7,12,12,0,0,1-4,.34,56.49,56.49,0,0,0-5.81.39,18,18,0,0,1-2.93.12c-.88,0-1.75-.28-2.62-.39S36.92,64,36,63.88a6.62,6.62,0,0,0-2.13,0c-.62.07-1.24,0-1.86,0s-1.27.2-1.91.29C27.15,64.58,24.42,65.92,21.45,65.22Z"/><path class="cls-14" d="M19.1,86.89s11.09,2,16.13,1.8c7.62-.22,16.41.73,23.23.92S77.2,84.2,79.38,83.18a40.86,40.86,0,0,0,12-9.12C96,69,97.82,60.67,97.82,60.67H95.9a23.17,23.17,0,0,1-3.49,7.62c-1.67,2.42-4.11,4.54-7.44,7.42a43.07,43.07,0,0,1-17.34,8.91c-8.38,2.09-15.83,1.51-21,2.28-7.44,1.1-23.95-1.52-23.95-1.52Z"/><path class="cls-15" d="M16.17,81.4s1.77,4.6,2.93,5.49c0,0,2.44.15,3.61-1.1L19.3,83.08Z"/><path class="cls-16" d="M98,52.09a59.69,59.69,0,0,1,1.28,8s-1.85,1.17-3.34.61C95.9,60.67,97.65,54.31,98,52.09Z"/><path class="cls-17" d="M65.86,2.58s9.89,1,12.2,2.61a6.87,6.87,0,0,1-3.47,2.07S66.57,2.82,65.86,2.58Z"/><path class="cls-17" d="M7.46,21l4.05-.64,1.59-2.13S10.19,19.49,7.46,21Z"/><path class="cls-18" d="M10.75,78.48s19.18,5.57,34.15,5.85,20.59-3,27.06-5.55,17.1-8.24,20.3-12.48S98,52.09,98,52.09s-3.08,15-5.74,17.61S77.67,80.36,75.59,81.4s-7.75,5.34-18,4.14c0,0-6.89,1-9.38.78s-6.36,2.33-13.46,0c0,0-9.89-.5-12-1S10.75,78.48,10.75,78.48Z"/><path class="cls-19" d="M15.41,58.35s15.89,2.76,27.41,1.58,17.74-4,21-6.2,9.72-9,12.13-12.15,3.62-10.95,3.62-10.95.43,7.64-1.53,11S69.34,51.19,66.58,53,55.93,59.18,51.8,59.93s-10.94,2.84-15.87,1.93S19,61.11,15.41,58.35Z"/><path class="cls-20" d="M37.44,83.8S54,82.66,59.67,81.4s13.16-4.34,18.39-6.26,9.18-5.71,12.06-7.82,6.57-10.86,6.57-10.86-2.36,8.68-6,11.51S77.83,76,67.37,80.64C55.74,85.8,46.7,84.33,37.44,83.8Z"/><path class="cls-13" d="M95.1,63c.26-.79.54-1.57.8-2.35a47.25,47.25,0,0,1-3.68,9l0,0c-.44.43-1,.77-1.39,1.24s-.79.94-1.24,1.38A45.05,45.05,0,0,1,82.38,78a55.34,55.34,0,0,1-8.11,4.58,43.92,43.92,0,0,1-6.78,2.37,29,29,0,0,1-5.8.78c-1,0-1.94.21-2.91.3-1.21.13-2.45.11-3.64.32a49,49,0,0,1-6.27.76c-1.79.1-3.57.35-5.36.35-2.3,0-4.58-.37-6.88-.36s-4.48-.08-6.7-.28c-1.33-.13-2.63-.38-3.94-.53-1.11-.13-2.18-.37-3.28-.49-.93-.66-1.83-1.37-2.7-2.1-.24-.2-.48-.4-.71-.61,1.26.4,2.51.83,3.78,1.23a32.55,32.55,0,0,0,5.64,1.12,13.86,13.86,0,0,0,4.85-.05c1.56-.39,2.72.11,4.14.69a19.58,19.58,0,0,0,2,.6,5.92,5.92,0,0,0,2.68.09c.87-.11,1.78-.26,2.65-.45s1.45-.46,2.2-.56a13.63,13.63,0,0,1,4-.12,13.61,13.61,0,0,0,4.5.17,28.65,28.65,0,0,1,4.62-.42,8.29,8.29,0,0,1,1.5.14,6,6,0,0,0,1.69-.12,15,15,0,0,0,3-.57c.92-.29,1.8-.7,2.7-1a22.24,22.24,0,0,0,4.91-2.37c1.31-.88,2.76-1.5,4.09-2.35s2.4-1.85,3.7-2.63,2.62-1.85,3.93-2.78c.83-.59,1.57-1.29,2.4-1.89s1.51-.93,2.18-1.52a12.75,12.75,0,0,0,3-3.37A20.44,20.44,0,0,0,95.1,63Z"/><path class="cls-21" d="M44.33,36.69s11.43-9.36,16.24-18.48C60.57,18.21,47.24,31.9,44.33,36.69Z"/><path class="cls-22" d="M32.31,47.84a43.14,43.14,0,0,0,15.21-3.28,27.12,27.12,0,0,0,12-10.2,53,53,0,0,1-11.29,8C42.34,45.3,37.88,46,32.31,47.84Z"/><path class="cls-22" d="M60.85,32.71s.81-2.06,2.33-5.68a45.22,45.22,0,0,1,2.71-5.55A23.17,23.17,0,0,1,60.85,32.71Z"/><path class="cls-23" d="M29.84,66.88a60.47,60.47,0,0,0,23.11,0C66,64.44,66.59,63.64,70.19,60.82s6.16-6.44,7.58-7.8S81,46.91,81,46.91A45.57,45.57,0,0,1,72,58c-5.3,4.45-9.65,6.63-18.56,8A129.67,129.67,0,0,1,29.84,66.88Z"/><path class="cls-23" d="M38.64,88.66s9.1.79,12.79,1.55,10.8.73,14.88-.77,12.14-5.83,12.14-5.83A48.21,48.21,0,0,1,62,88.79C53,89.73,47.52,88.22,38.64,88.66Z"/><path class="cls-23" d="M81.09,82.29a101.31,101.31,0,0,0,8.61-6.45A21.88,21.88,0,0,1,81.09,82.29Z"/><path class="cls-24" d="M37.23,32.94s6.59-5,8.68-8.54a16,16,0,0,0,2.3-5.62s.93,3.48-3,7.91A27,27,0,0,1,37.23,32.94Z"/><path class="cls-25" d="M21.84,29.48c-.53,2.42-1.07,4.88-.25,7.21s2.08,3.84,3.28,4,3-2.72,2.91-3.54-2-3-2.08-5.11,2.21-5.31,2.08-6.51S22.72,25.5,21.84,29.48Z"/><path class="cls-26" d="M22.92,19.59c-.8-.85-6.12,4.14-9.82,8S5.74,36.49,5.42,39.71s2.34,8.09,7.14,12.38,17.29,8.21,20.3,6.44,1.9-7.26-.55-8.59-10.4,1.35-14.13-2.56-2-9.18-1.58-13.6c.57-5.42,2.27-10,3.85-11.37A14.26,14.26,0,0,0,22.92,19.59Z"/><path class="cls-27" d="M6.59,36.26c-1,3.5-1.15,7.23,1,10.1s3.77.72,4.53-6.28a66.49,66.49,0,0,0,.32-11.79S7.88,31.87,6.59,36.26Z"/><path class="cls-28" d="M10.1,48.4c-1.45,1.35,2,4,2.58,2.73S11.05,47.53,10.1,48.4Z"/><path class="cls-28" d="M6.25,59c-.13,2.22,1.13,4.74,5,6.19a15.9,15.9,0,0,0,6.92,1.06s-4.54-.9-7-2.65A30.48,30.48,0,0,1,6.25,59Z"/><path class="cls-27" d="M22.16,29.83c-1.28-1.7.39-4,2.74-5.45s2.63-1,2.12.26-1.27,3.87-2.36,5.19S22.92,30.83,22.16,29.83Z"/><path class="cls-27" d="M30.6,26.88c-.48-.84.5-3.26,1.84-3s1,.76.39,1.64C32.36,26.15,31.06,27.66,30.6,26.88Z"/><path class="cls-27" d="M40.31,31c-.46-.94,3.28-3.82,3.78-3.52s.18,1.83-.69,2.4S40.47,31.36,40.31,31Z"/></g></g></g></svg>