<?xml version="1.0"?>
<svg xmlns="http://www.w3.org/2000/svg" viewBox="0 0 128 128" width="512" height="512"><title>1</title><g id="number"><text transform="translate(54.366 -282.265)" font-size="40" fill="#24253a" font-family="MyriadPro-Regular, Myriad Pro" letter-spacing="0.002em">4<tspan x="-10.3" y="228">14</tspan><tspan x="-10.3" y="456">24</tspan><tspan x="-10.3" y="684">34</tspan><tspan x="-10.3" y="912">44</tspan><tspan x="-10.3" y="1140">54</tspan><tspan x="-10.3" y="1368">64</tspan><tspan x="-10.3" y="1596">74</tspan><tspan x="-10.3" y="1824">84</tspan><tspan x="-10.3" y="2052">94</tspan><tspan x="-20.599" y="2280">104</tspan><tspan x="-20.599" y="2508">114</tspan><tspan x="-20.599" y="2736">124</tspan><tspan x="-20.599" y="2964">134</tspan><tspan x="-20.599" y="3192">144</tspan><tspan x="-20.599" y="3420">154</tspan><tspan x="-20.599" y="3648">164</tspan><tspan x="-20.599" y="3876">174</tspan><tspan x="-20.599" y="4104">184</tspan><tspan x="-20.599" y="4332">194</tspan><tspan x="-20.599" y="4560">204</tspan><tspan x="-20.599" y="4788">214</tspan><tspan x="-20.599" y="5016">224</tspan><tspan x="-20.599" y="5244">234</tspan><tspan x="-20.599" y="5472">244</tspan></text></g><g id="icon"><path d="M126.958,58.35c-.263,5.148-1.7,10.368-1.7,15.132a24.3,24.3,0,0,1-.383,4.741c-1.149,5.914-4.813,7.374-10.368,16.76-6.824,11.469-10.775,11.828-22.243,21.5-11.469,9.7-10.751,5.746-22.219,5.387-11.493-.359-17.91-.718-28.3-6.441-5.675-3.137-12.666-5.22-18.269-7.375-4.645-1.8-8.4-3.663-9.7-6.249a20.993,20.993,0,0,1-1.461-3.783c-1.149-3.879-1.413-7.806-6.058-17.359-.287-.575-.551-1.125-.79-1.676C.154,67.473.25,60.721,2.309,55.932c1.6-3.735,4.573-18.652,5.986-26.05a11.361,11.361,0,0,1,4.238-6.944c2.083-1.6,4.956-3.783,8.141-6.01,5.579-3.951,12.115-8.117,16.976-9.936a15.75,15.75,0,0,1,3.376-.886,16.606,16.606,0,0,1,14.342,5.028c4.406,3.3,12.546-3.592,14.677-5.148s5.746-.958,18.293,0c4.549.335,7.925.455,10.463.694,4.477.407,6.441,1.245,7.806,4.453,2.155,5,2.514,11.828,6.824,15.4,4.286,3.592,5.363,14.7,5.363,14.7C125.976,46.283,127.269,52.269,126.958,58.35Z" fill="#d0aa79"/><path d="M80.522,123.948a24.28,24.28,0,0,1-3.706-.378,51.039,51.039,0,0,0-6.8-.7c-11.727-.367-18.331-.825-28.752-6.564A90.658,90.658,0,0,0,28,110.779c-7.085-2.529-13.205-4.714-15.117-8.522a22.024,22.024,0,0,1-1.531-3.967c-.265-.895-.487-1.808-.722-2.774A62.7,62.7,0,0,0,5.36,81.1c-.291-.582-.561-1.148-.808-1.715C-.185,69.126-1.192,61.541,1.391,55.537c1.6-3.734,4.676-19.316,5.922-25.843a12.348,12.348,0,0,1,4.608-7.547c1.937-1.491,4.889-3.738,8.18-6.039,4.938-3.5,11.936-8.083,17.2-10.054A16.7,16.7,0,0,1,40.9,5.113,17.565,17.565,0,0,1,56.05,10.394c3.418,2.4,10.112-2.709,12.646-4.643.3-.229.556-.424.759-.572,2.111-1.54,5.075-1.3,13.872-.592,1.51.122,3.2.258,5.087.4,2.15.16,4.038.269,5.7.364,8.052.463,11.385.655,13.413,5.386a43.792,43.792,0,0,1,1.757,5.347c1.034,3.663,2.1,7.451,4.786,9.672,4.087,3.425,5.41,12.717,5.671,14.918,7.787,5.668,8.488,12.437,8.218,17.724h0a70.97,70.97,0,0,1-.864,7.194,52.708,52.708,0,0,0-.835,7.887,25.09,25.09,0,0,1-.4,4.937c-.713,3.669-2.354,5.759-4.624,8.651a71.89,71.89,0,0,0-5.864,8.423c-4.94,8.3-8.406,10.9-14.146,15.211-2.342,1.757-5,3.749-8.312,6.545C86.623,122.564,83.832,123.948,80.522,123.948ZM43.228,6.977A18.213,18.213,0,0,0,41.14,7.1a14.747,14.747,0,0,0-3.148.832c-5.054,1.893-11.894,6.381-16.74,9.813-3.262,2.281-6.19,4.509-8.108,5.986a10.355,10.355,0,0,0-3.864,6.331c-1.565,8.194-4.43,22.491-6.051,26.265C.886,61.772,1.886,68.84,6.377,78.57c.242.555.5,1.09.777,1.648a64.451,64.451,0,0,1,5.42,14.824c.229.942.446,1.832.7,2.7a20.1,20.1,0,0,0,1.4,3.626c1.549,3.084,7.6,5.243,14,7.528a92.164,92.164,0,0,1,13.554,5.661c10.038,5.528,16.121,5.95,27.848,6.316a52.824,52.824,0,0,1,7.05.721c4.763.745,6.367,1,14.493-5.872,3.359-2.833,6.039-4.843,8.4-6.617,5.543-4.159,8.89-6.67,13.627-14.632a73.534,73.534,0,0,1,6.011-8.637c2.175-2.771,3.613-4.6,4.235-7.8a23.2,23.2,0,0,0,.364-4.55,54.981,54.981,0,0,1,.858-8.193,69.456,69.456,0,0,0,.843-6.99c.264-5.158-.45-11.122-7.741-16.25l-.375-.264-.044-.457c-.011-.107-1.089-10.746-5.01-14.031-3.16-2.615-4.314-6.708-5.431-10.667a41.753,41.753,0,0,0-1.669-5.1C104.2,8.066,102.208,7.822,94,7.35c-1.67-.1-3.569-.206-5.734-.367-1.9-.145-3.585-.281-5.1-.4-8.022-.647-11.022-.89-12.532.213-.194.141-.438.328-.725.547-3.154,2.407-10.541,8.045-15.142,4.593L54.6,11.77A15.251,15.251,0,0,0,43.228,6.977Z" fill="#2f3a5a"/><circle cx="79.156" cy="35.697" r="10.009" fill="#d0aa79"/><path d="M89.175,35.7a9.942,9.942,0,0,1-4.046,8.021,10,10,0,0,0-15.8-9.913A10.015,10.015,0,0,1,89.175,35.7Z" fill="#ad8a68"/><path d="M79.156,46.706A11.009,11.009,0,1,1,90.165,35.7,11.022,11.022,0,0,1,79.156,46.706Zm0-20.019A9.009,9.009,0,1,0,88.165,35.7,9.019,9.019,0,0,0,79.156,26.688Z" fill="#2f3a5a"/><circle cx="98.766" cy="78.719" r="7.576" fill="#d0aa79"/><path d="M126.958,58.35c-.263,5.148-1.7,10.368-1.7,15.132a24.3,24.3,0,0,1-.383,4.741,10.213,10.213,0,0,1,2.083-19.873Z" fill="#d0aa79"/><path d="M125.636,79.519l-1.067-.343a11.213,11.213,0,0,1,2.283-21.819l1.165-.125-.06,1.17a70.97,70.97,0,0,1-.864,7.194,52.708,52.708,0,0,0-.835,7.887,25.09,25.09,0,0,1-.4,4.937Zm.237-19.968a9.216,9.216,0,0,0-1.79,17.29,27.735,27.735,0,0,0,.174-3.357,54.981,54.981,0,0,1,.858-8.193C125.409,63.4,125.709,61.464,125.873,59.55Z" fill="#2f3a5a"/><path d="M40.738,14.295a10.206,10.206,0,0,1-20.065,2.634c5.579-3.951,12.115-8.117,16.976-9.936A10.122,10.122,0,0,1,40.738,14.295Z" fill="#d0aa79"/><path d="M30.514,25.495a11.178,11.178,0,0,1-10.808-8.312l-.177-.67.565-.4c4.943-3.5,11.94-8.086,17.2-10.057l.59-.221.454.437a11.193,11.193,0,0,1-7.828,19.224ZM21.84,17.329A9.205,9.205,0,1,0,37.393,8.164C32.608,10.092,26.443,14.1,21.84,17.329Z" fill="#2f3a5a"/><path d="M17.944,88.926a10.172,10.172,0,0,1-5.627,9.1c-1.149-3.879-1.413-7.806-6.058-17.359-.287-.575-.551-1.125-.79-1.676a10.04,10.04,0,0,1,2.275-.263A10.208,10.208,0,0,1,17.944,88.926Z" fill="#d0aa79"/><path d="M11.7,99.449l-.338-1.141c-.271-.914-.493-1.827-.728-2.793A62.7,62.7,0,0,0,5.36,81.1c-.291-.582-.561-1.148-.808-1.715l-.479-1.1,1.169-.273a11.037,11.037,0,0,1,2.5-.289A11.188,11.188,0,0,1,12.762,98.92ZM6.929,79.764q.11.225.225.455a64.484,64.484,0,0,1,5.42,14.824c.122.5.24.987.362,1.463A9.19,9.19,0,0,0,7.744,79.726Q7.337,79.726,6.929,79.764Z" fill="#2f3a5a"/><circle cx="30.524" cy="48.415" r="7.576" fill="#d0aa79"/><path d="M106.343,78.726a7.6,7.6,0,0,1-4.717,7.015,7.67,7.67,0,0,0,.551-2.873A7.552,7.552,0,0,0,94.61,75.3a7.047,7.047,0,0,0-2.849.575,7.564,7.564,0,0,1,14.581,2.849Z" fill="#ad8a68"/><path d="M38.1,48.414a7.535,7.535,0,0,1-4.717,6.991,7.425,7.425,0,0,0,.551-2.825,7.579,7.579,0,0,0-10.415-7.039A7.576,7.576,0,0,1,38.1,48.414Z" fill="#ad8a68"/><path d="M68.2,86.915a15.762,15.762,0,0,1-9.745,14.558A15.763,15.763,0,0,0,43.9,79.684a15.346,15.346,0,0,0-6.034,1.221A15.76,15.76,0,0,1,68.2,86.915Z" fill="#ad8a68"/><path d="M98.766,87.3a8.576,8.576,0,1,1,8.576-8.576A8.586,8.586,0,0,1,98.766,87.3Zm0-15.152a6.576,6.576,0,1,0,6.576,6.576A6.584,6.584,0,0,0,98.766,72.143Z" fill="#2f3a5a"/><path d="M30.524,56.991A8.576,8.576,0,1,1,39.1,48.416,8.586,8.586,0,0,1,30.524,56.991Zm0-15.152A6.576,6.576,0,1,0,37.1,48.416,6.583,6.583,0,0,0,30.524,41.839Z" fill="#2f3a5a"/><path d="M52.436,103.666A16.761,16.761,0,1,1,69.2,86.9,16.78,16.78,0,0,1,52.436,103.666Zm0-31.522A14.761,14.761,0,1,0,67.2,86.9,14.778,14.778,0,0,0,52.436,72.143Z" fill="#2f3a5a"/><g opacity="0.25"><path d="M58.837,24.849,60.386,22.4A3.275,3.275,0,0,0,58.837,24.849Z" fill="#ad8a68"/><path d="M112.388,49c.958-3.562-2.763-6.464-4.423-9.759-1.356-2.691-1.478-6.135-3.751-8.114-1.849-1.609-4.776-1.871-6.128-3.915a9.071,9.071,0,0,1-1.018-3.153c-.771-3.534-3.026-7.31-6.625-7.67-1.7-.17-3.36.47-5.04.778-2.825.518-5.723.1-8.59-.075-5.76-.342-11.722.4-16.795,3.148S50.885,27.973,50.2,33.7c-.545,4.56,1.03,9.127,3.171,13.19a44.491,44.491,0,0,0,9.517,12.332c1.755,1.58,3.705,3.086,4.7,5.226a17.762,17.762,0,0,0,1.343,2.98,13.2,13.2,0,0,0,2.644,2.287,12.959,12.959,0,0,1,4.375,9.044,26.322,26.322,0,0,1-1.528,10.144,7.605,7.605,0,0,0-.555,2.867,15.746,15.746,0,0,0,1.2,3.5c1.253,3.857-1.474,8.1-5.08,9.955s-7.835,1.916-11.89,1.937l-9.788.05a16.853,16.853,0,0,1-5.755-.637c-3.824-1.359-6.139-5.254-7.469-9.088-2.9-8.362-2.6-17.447-2.263-26.291a4.364,4.364,0,0,1,.471-2.19,4.163,4.163,0,0,1,1.6-1.294,45.738,45.738,0,0,1,8.249-3.571c2.049-.656,4.252-1.23,5.746-2.778s1.794-4.473-.01-5.646c-1.442-.937-3.343-.321-4.952.287a128.445,128.445,0,0,1-20.085,5.771c-1.639.329-3.418.611-4.921-.121a5.577,5.577,0,0,1-2.668-3.474c-1.905-6.19,3.053-12.178,4.821-18.408.359-1.267.719-2.743,1.907-3.311a4.416,4.416,0,0,1,2.254-.2,39.266,39.266,0,0,0,11.119-.727c3.957-.835,8.327-2.87,9.219-6.814a3.516,3.516,0,0,0-.5-2.991,3.689,3.689,0,0,0-2.61-1.144C35.3,24.017,30.1,33.446,22.961,32.568c-2.867-.353-6.245-2.232-8.259-.162-1.431,1.47-.9,3.9-.132,5.8s1.7,4.058.808,5.9c-1.033,2.135-3.906,2.6-5.528,4.334-1.5,1.6-1.7,4.027-1.454,6.209a20.657,20.657,0,0,0,9.412,14.988c3.039,1.905,6.732,3.141,8.71,6.134,2.959,4.48.672,10.408.786,15.776a17.612,17.612,0,0,0,14.754,16.523c1.739.235,3.5.2,5.247.389,4.363.473,8.465,2.325,12.792,3.055s9.389.013,11.991-3.522a9.3,9.3,0,0,1,1.617-2.03c2.511-1.927,7.008.764,9-1.7,1.29-1.6.3-4.132,1.305-5.927.654-1.173,2.017-1.771,2.835-2.836,1.55-2.019.666-5.028-.92-7.019s-3.775-3.469-5.188-5.586c-2.078-3.114-2.175-7.179-1.395-10.84a9.781,9.781,0,0,1,1.72-4.14c2.533-3.166,7.4-3.013,10.861-5.123a9.329,9.329,0,0,0,4.36-8.374,2.457,2.457,0,0,0-.776-1.883,2.714,2.714,0,0,0-1.521-.383,14.89,14.89,0,0,0-5.509.581,34.649,34.649,0,0,0-4.835,2.548A19.508,19.508,0,0,1,69.972,57.01c-9.8-2.389-16.453-12.755-16.179-22.842.139-5.11,2.337-10.751,7.11-12.581l-.518.818a5.163,5.163,0,0,1,2.309-.866c1.83-.2,3.648.347,5.472.6,6.838.943,14.669-2.11,20.234,1.974,3.106,2.28,4.476,6.159,6.247,9.581a36.647,36.647,0,0,0,4.071,6.225,12.178,12.178,0,0,1,2.219,3.321,8.854,8.854,0,0,1,.412,3.037c.005,4.474-1.016,9.007-.078,13.382s4.865,8.653,9.256,7.794c-2.064-4.258-4.1-9.457-1.589-13.468C110.02,52.259,111.86,50.968,112.388,49Z" fill="#ad8a68"/></g></g></svg>
