<svg xmlns="http://www.w3.org/2000/svg" xmlns:xlink="http://www.w3.org/1999/xlink" viewBox="0 0 106.36 100.33"><defs><style>.cls-1{isolation:isolate;}.cls-10,.cls-11,.cls-12,.cls-13,.cls-14,.cls-15,.cls-16,.cls-17,.cls-18,.cls-19,.cls-2,.cls-20,.cls-21,.cls-22,.cls-23,.cls-24,.cls-25,.cls-26,.cls-27,.cls-28,.cls-29,.cls-3,.cls-30,.cls-31,.cls-32,.cls-33,.cls-35,.cls-36,.cls-37,.cls-38,.cls-39,.cls-4,.cls-40,.cls-41,.cls-42,.cls-43,.cls-44,.cls-45,.cls-46,.cls-47,.cls-48,.cls-49,.cls-5,.cls-50,.cls-51,.cls-52,.cls-53,.cls-54,.cls-55,.cls-56,.cls-57,.cls-58,.cls-59,.cls-60,.cls-7,.cls-8,.cls-9{fill-rule:evenodd;}.cls-2{fill:url(#Áåçûìÿííûé_ãðàäèåíò_85);}.cls-3{fill:url(#Áåçûìÿííûé_ãðàäèåíò_32);}.cls-12,.cls-25,.cls-27,.cls-38,.cls-39,.cls-4,.cls-49,.cls-5,.cls-8,.cls-9{opacity:0.71;}.cls-12,.cls-23,.cls-24,.cls-25,.cls-26,.cls-27,.cls-30,.cls-31,.cls-32,.cls-33,.cls-38,.cls-39,.cls-4,.cls-44,.cls-47,.cls-49,.cls-5,.cls-51,.cls-6,.cls-8,.cls-9{mix-blend-mode:multiply;}.cls-4{fill:url(#Áåçûìÿííûé_ãðàäèåíò_141);}.cls-5{fill:url(#Áåçûìÿííûé_ãðàäèåíò_141-2);}.cls-6{opacity:0.3;}.cls-7{fill:#7d72b3;}.cls-8{fill:url(#Áåçûìÿííûé_ãðàäèåíò_141-3);}.cls-9{fill:url(#Áåçûìÿííûé_ãðàäèåíò_141-4);}.cls-10{fill:url(#Áåçûìÿííûé_ãðàäèåíò_46);}.cls-11{fill:url(#Áåçûìÿííûé_ãðàäèåíò_52);}.cls-12{fill:url(#Áåçûìÿííûé_ãðàäèåíò_141-5);}.cls-13{fill:url(#Áåçûìÿííûé_ãðàäèåíò_60);}.cls-14{fill:url(#Áåçûìÿííûé_ãðàäèåíò_60-2);}.cls-15{fill:url(#Áåçûìÿííûé_ãðàäèåíò_100);}.cls-16{fill:url(#Áåçûìÿííûé_ãðàäèåíò_103);}.cls-17{fill:url(#Áåçûìÿííûé_ãðàäèåíò_100-2);}.cls-18{fill:url(#Áåçûìÿííûé_ãðàäèåíò_118);}.cls-19{fill:url(#Áåçûìÿííûé_ãðàäèåíò_100-3);}.cls-20{fill:url(#Áåçûìÿííûé_ãðàäèåíò_100-4);}.cls-21{fill:url(#Áåçûìÿííûé_ãðàäèåíò_60-3);}.cls-22{fill:url(#Áåçûìÿííûé_ãðàäèåíò_122);}.cls-23,.cls-24,.cls-26,.cls-30,.cls-31,.cls-32,.cls-44,.cls-47,.cls-51{opacity:0.5;}.cls-23{fill:url(#Áåçûìÿííûé_ãðàäèåíò_141-6);}.cls-24{fill:url(#Áåçûìÿííûé_ãðàäèåíò_141-7);}.cls-25{fill:url(#Áåçûìÿííûé_ãðàäèåíò_141-8);}.cls-26{fill:url(#Áåçûìÿííûé_ãðàäèåíò_141-9);}.cls-27{fill:url(#Áåçûìÿííûé_ãðàäèåíò_141-10);}.cls-28{fill:url(#Áåçûìÿííûé_ãðàäèåíò_103-2);}.cls-29{fill:url(#Áåçûìÿííûé_ãðàäèåíò_103-3);}.cls-30{fill:url(#Áåçûìÿííûé_ãðàäèåíò_141-11);}.cls-31{fill:url(#Áåçûìÿííûé_ãðàäèåíò_141-12);}.cls-32{fill:url(#Áåçûìÿííûé_ãðàäèåíò_141-13);}.cls-33{opacity:0.2;fill:url(#Áåçûìÿííûé_ãðàäèåíò_141-14);}.cls-34{mix-blend-mode:soft-light;}.cls-35{fill:#ffa989;}.cls-36{fill:#ffbd4a;}.cls-37{fill:#ffab4a;}.cls-38{fill:url(#Áåçûìÿííûé_ãðàäèåíò_141-15);}.cls-39{fill:url(#Áåçûìÿííûé_ãðàäèåíò_141-16);}.cls-40{fill:#ff864a;}.cls-41{fill:#ffb14a;}.cls-42{fill:url(#Áåçûìÿííûé_ãðàäèåíò_148);}.cls-43{fill:url(#Áåçûìÿííûé_ãðàäèåíò_148-2);}.cls-44{fill:url(#Áåçûìÿííûé_ãðàäèåíò_141-17);}.cls-45{fill:url(#Áåçûìÿííûé_ãðàäèåíò_148-3);}.cls-46{fill:url(#Áåçûìÿííûé_ãðàäèåíò_100-5);}.cls-47{fill:url(#Áåçûìÿííûé_ãðàäèåíò_141-18);}.cls-48{fill:url(#Áåçûìÿííûé_ãðàäèåíò_103-4);}.cls-49{fill:url(#Áåçûìÿííûé_ãðàäèåíò_141-19);}.cls-50{fill:url(#Áåçûìÿííûé_ãðàäèåíò_148-4);}.cls-51{fill:url(#Áåçûìÿííûé_ãðàäèåíò_141-20);}.cls-52{fill:url(#Áåçûìÿííûé_ãðàäèåíò_103-5);}.cls-53{fill:url(#Áåçûìÿííûé_ãðàäèåíò_153);}.cls-54{fill:url(#Áåçûìÿííûé_ãðàäèåíò_100-6);}.cls-55{fill:url(#Áåçûìÿííûé_ãðàäèåíò_60-4);}.cls-56{fill:url(#Áåçûìÿííûé_ãðàäèåíò_100-7);}.cls-57{fill:url(#Áåçûìÿííûé_ãðàäèåíò_60-5);}.cls-58{fill:url(#Áåçûìÿííûé_ãðàäèåíò_100-8);}.cls-59{fill:url(#Áåçûìÿííûé_ãðàäèåíò_153-2);}.cls-60{fill:url(#Áåçûìÿííûé_ãðàäèåíò_118-2);}</style><linearGradient id="Áåçûìÿííûé_ãðàäèåíò_85" x1="144.81" y1="87.85" x2="144.81" y2="52.88" gradientTransform="matrix(0.95, -0.31, 0.31, 0.95, -74.24, 42.41)" gradientUnits="userSpaceOnUse"><stop offset="0" stop-color="#5b006f"/><stop offset="0.02" stop-color="#5c0270"/><stop offset="0.23" stop-color="#6a1a7c"/><stop offset="0.46" stop-color="#732c84"/><stop offset="0.7" stop-color="#793689"/><stop offset="0.99" stop-color="#7b398b"/></linearGradient><radialGradient id="Áåçûìÿííûé_ãðàäèåíò_32" cx="29.23" cy="33.83" r="76.1" gradientUnits="userSpaceOnUse"><stop offset="0.01" stop-color="#9d4863"/><stop offset="0.24" stop-color="#9a4563"/><stop offset="0.42" stop-color="#903d61"/><stop offset="0.58" stop-color="#802e5f"/><stop offset="0.73" stop-color="#68195b"/><stop offset="0.87" stop-color="#4c0057"/><stop offset="0.98" stop-color="#4c0086"/></radialGradient><linearGradient id="Áåçûìÿííûé_ãðàäèåíò_141" x1="26.09" y1="74.09" x2="45.84" y2="74.09" gradientUnits="userSpaceOnUse"><stop offset="0" stop-color="#ca528d"/><stop offset="1" stop-color="#8e7090"/></linearGradient><linearGradient id="Áåçûìÿííûé_ãðàäèåíò_141-2" x1="75.55" y1="64.7" x2="94.36" y2="64.7" xlink:href="#Áåçûìÿííûé_ãðàäèåíò_141"/><linearGradient id="Áåçûìÿííûé_ãðàäèåíò_141-3" x1="93.98" y1="47.55" x2="100.91" y2="47.55" xlink:href="#Áåçûìÿííûé_ãðàäèåíò_141"/><linearGradient id="Áåçûìÿííûé_ãðàäèåíò_141-4" x1="11.54" y1="31.88" x2="94.34" y2="31.88" xlink:href="#Áåçûìÿííûé_ãðàäèåíò_141"/><linearGradient id="Áåçûìÿííûé_ãðàäèåíò_46" x1="11.54" y1="19.31" x2="89.18" y2="19.31" gradientUnits="userSpaceOnUse"><stop offset="0.01" stop-color="#de6863"/><stop offset="0.25" stop-color="#db6563"/><stop offset="0.43" stop-color="#d35b62"/><stop offset="0.6" stop-color="#c54b60"/><stop offset="0.76" stop-color="#b1335d"/><stop offset="0.91" stop-color="#981659"/><stop offset="1" stop-color="#860057"/></linearGradient><linearGradient id="Áåçûìÿííûé_ãðàäèåíò_52" x1="20.23" y1="95.24" x2="20.23" y2="47.64" gradientUnits="userSpaceOnUse"><stop offset="0" stop-color="#860057"/><stop offset="0.03" stop-color="#8c0757"/><stop offset="0.19" stop-color="#aa2456"/><stop offset="0.36" stop-color="#c13c55"/><stop offset="0.54" stop-color="#d14c54"/><stop offset="0.74" stop-color="#db5654"/><stop offset="0.99" stop-color="#de5954"/></linearGradient><linearGradient id="Áåçûìÿííûé_ãðàäèåíò_141-5" x1="52.94" y1="90.31" x2="66.71" y2="90.31" xlink:href="#Áåçûìÿííûé_ãðàäèåíò_141"/><linearGradient id="Áåçûìÿííûé_ãðàäèåíò_60" x1="98.69" y1="44.76" x2="98.69" y2="26.56" gradientUnits="userSpaceOnUse"><stop offset="0" stop-color="#860057"/><stop offset="0.03" stop-color="#880557"/><stop offset="0.23" stop-color="#951c56"/><stop offset="0.45" stop-color="#9e2c55"/><stop offset="0.69" stop-color="#a33654"/><stop offset="0.99" stop-color="#a53954"/></linearGradient><linearGradient id="Áåçûìÿííûé_ãðàäèåíò_60-2" x1="85.74" y1="65.24" x2="85.74" y2="43.52" xlink:href="#Áåçûìÿííûé_ãðàäèåíò_60"/><linearGradient id="Áåçûìÿííûé_ãðàäèåíò_100" x1="43.99" y1="22.07" x2="43.99" gradientUnits="userSpaceOnUse"><stop offset="0" stop-color="#f49f57"/><stop offset="0.1" stop-color="#f79656"/><stop offset="0.35" stop-color="#fb8655"/><stop offset="0.63" stop-color="#fe7c54"/><stop offset="0.99" stop-color="#ff7954"/></linearGradient><linearGradient id="Áåçûìÿííûé_ãðàäèåíò_103" x1="65.07" y1="31.6" x2="65.07" y2="10" gradientUnits="userSpaceOnUse"><stop offset="0" stop-color="#f47d57"/><stop offset="0.4" stop-color="#fc7a55"/><stop offset="0.99" stop-color="#ff7954"/></linearGradient><linearGradient id="Áåçûìÿííûé_ãðàäèåíò_100-2" x1="11.54" y1="26.68" x2="31.75" y2="26.68" xlink:href="#Áåçûìÿííûé_ãðàäèåíò_100"/><linearGradient id="Áåçûìÿííûé_ãðàäèåíò_118" x1="78.61" y1="46.81" x2="95.08" y2="46.81" gradientUnits="userSpaceOnUse"><stop offset="0.01" stop-color="#c75357"/><stop offset="0.13" stop-color="#d35856"/><stop offset="0.37" stop-color="#e35f55"/><stop offset="0.65" stop-color="#ed6454"/><stop offset="0.99" stop-color="#f06554"/></linearGradient><linearGradient id="Áåçûìÿííûé_ãðàäèåíò_100-3" x1="0" y1="56.36" x2="26.08" y2="56.36" xlink:href="#Áåçûìÿííûé_ãðàäèåíò_100"/><linearGradient id="Áåçûìÿííûé_ãðàäèåíò_100-4" x1="2.69" y1="70.22" x2="24.37" y2="70.22" xlink:href="#Áåçûìÿííûé_ãðàäèåíò_100"/><linearGradient id="Áåçûìÿííûé_ãðàäèåíò_60-3" x1="58.77" y1="93.24" x2="58.77" y2="82.68" xlink:href="#Áåçûìÿííûé_ãðàäèåíò_60"/><linearGradient id="Áåçûìÿííûé_ãðàäèåíò_122" x1="52.47" y1="85.6" x2="62.7" y2="85.6" gradientUnits="userSpaceOnUse"><stop offset="0.01" stop-color="#c75357"/><stop offset="0.26" stop-color="#d15149"/><stop offset="0.58" stop-color="#d94f3f"/><stop offset="0.99" stop-color="#db4f3c"/></linearGradient><linearGradient id="Áåçûìÿííûé_ãðàäèåíò_141-6" x1="17.53" y1="72.27" x2="40.34" y2="72.27" xlink:href="#Áåçûìÿííûé_ãðàäèåíò_141"/><linearGradient id="Áåçûìÿííûé_ãðàäèåíò_141-7" x1="59.08" y1="88.45" x2="65.07" y2="88.45" xlink:href="#Áåçûìÿííûé_ãðàäèåíò_141"/><linearGradient id="Áåçûìÿííûé_ãðàäèåíò_141-8" x1="85.74" y1="55.91" x2="95.98" y2="55.91" xlink:href="#Áåçûìÿííûé_ãðàäèåíò_141"/><linearGradient id="Áåçûìÿííûé_ãðàäèåíò_141-9" x1="94.78" y1="29.81" x2="98.7" y2="29.81" xlink:href="#Áåçûìÿííûé_ãðàäèåíò_141"/><linearGradient id="Áåçûìÿííûé_ãðàäèåíò_141-10" x1="93.98" y1="36.58" x2="106.36" y2="36.58" xlink:href="#Áåçûìÿííûé_ãðàäèåíò_141"/><linearGradient id="Áåçûìÿííûé_ãðàäèåíò_103-2" x1="125.83" y1="29.48" x2="133.07" y2="29.48" gradientTransform="translate(-38.16 23.81) rotate(-10.3)" xlink:href="#Áåçûìÿííûé_ãðàäèåíò_103"/><linearGradient id="Áåçûìÿííûé_ãðàäèåíò_103-3" x1="129.45" y1="30.42" x2="141.01" y2="30.42" gradientTransform="translate(-38.16 23.81) rotate(-10.3)" xlink:href="#Áåçûìÿííûé_ãðàäèåíò_103"/><linearGradient id="Áåçûìÿííûé_ãðàäèåíò_141-11" x1="43.99" y1="14.9" x2="78.04" y2="14.9" xlink:href="#Áåçûìÿííûé_ãðàäèåíò_141"/><linearGradient id="Áåçûìÿííûé_ãðàäèåíò_141-12" x1="54.49" y1="32.58" x2="63.1" y2="32.58" xlink:href="#Áåçûìÿííûé_ãðàäèåíò_141"/><linearGradient id="Áåçûìÿííûé_ãðàäèåíò_141-13" x1="69.52" y1="25.37" x2="89.18" y2="25.37" xlink:href="#Áåçûìÿííûé_ãðàäèåíò_141"/><linearGradient id="Áåçûìÿííûé_ãðàäèåíò_141-14" x1="15.19" y1="32.77" x2="29.76" y2="32.77" xlink:href="#Áåçûìÿííûé_ãðàäèåíò_141"/><linearGradient id="Áåçûìÿííûé_ãðàäèåíò_141-15" x1="32.44" y1="49.95" x2="43.53" y2="49.95" xlink:href="#Áåçûìÿííûé_ãðàäèåíò_141"/><linearGradient id="Áåçûìÿííûé_ãðàäèåíò_141-16" x1="36.97" y1="58.27" x2="43.04" y2="58.27" xlink:href="#Áåçûìÿííûé_ãðàäèåíò_141"/><linearGradient id="Áåçûìÿííûé_ãðàäèåíò_148" x1="37.17" y1="51.85" x2="37.17" y2="42.08" gradientUnits="userSpaceOnUse"><stop offset="0" stop-color="#a20057"/><stop offset="0.28" stop-color="#ba2456"/><stop offset="0.57" stop-color="#ce4155"/><stop offset="0.82" stop-color="#da5354"/><stop offset="0.99" stop-color="#de5954"/></linearGradient><linearGradient id="Áåçûìÿííûé_ãðàäèåíò_148-2" x1="39.36" y1="59.78" x2="39.36" y2="55.01" xlink:href="#Áåçûìÿííûé_ãðàäèåíò_148"/><linearGradient id="Áåçûìÿííûé_ãðàäèåíò_141-17" x1="38.28" y1="48.47" x2="43.48" y2="48.47" xlink:href="#Áåçûìÿííûé_ãðàäèåíò_141"/><linearGradient id="Áåçûìÿííûé_ãðàäèåíò_148-3" x1="6.74" y1="43.88" x2="6.74" y2="34.71" xlink:href="#Áåçûìÿííûé_ãðàäèåíò_148"/><linearGradient id="Áåçûìÿííûé_ãðàäèåíò_100-5" x1="37.17" y1="47.7" x2="37.17" y2="41.54" xlink:href="#Áåçûìÿííûé_ãðàäèåíò_100"/><linearGradient id="Áåçûìÿííûé_ãðàäèåíò_141-18" x1="37.55" y1="58.59" x2="41.8" y2="58.59" xlink:href="#Áåçûìÿííûé_ãðàäèåíò_141"/><linearGradient id="Áåçûìÿííûé_ãðàäèåíò_103-4" x1="39.23" y1="58.14" x2="39.23" y2="54.95" xlink:href="#Áåçûìÿííûé_ãðàäèåíò_103"/><linearGradient id="Áåçûìÿííûé_ãðàäèåíò_141-19" x1="-88.76" y1="337.35" x2="-81.77" y2="337.35" gradientTransform="translate(384.32 259.35) rotate(105.5)" xlink:href="#Áåçûìÿííûé_ãðàäèåíò_141"/><linearGradient id="Áåçûìÿííûé_ãðàäèåíò_148-4" x1="-86.37" y1="339.3" x2="-86.37" y2="334.53" gradientTransform="translate(384.32 259.35) rotate(105.5)" xlink:href="#Áåçûìÿííûé_ãðàäèåíò_148"/><linearGradient id="Áåçûìÿííûé_ãðàäèåíò_141-20" x1="-88.18" y1="338.11" x2="-83.93" y2="338.11" gradientTransform="translate(384.32 259.35) rotate(105.5)" xlink:href="#Áåçûìÿííûé_ãðàäèåíò_141"/><linearGradient id="Áåçûìÿííûé_ãðàäèåíò_103-5" x1="-86.5" y1="337.66" x2="-86.5" y2="334.47" gradientTransform="translate(384.32 259.35) rotate(105.5)" xlink:href="#Áåçûìÿííûé_ãðàäèåíò_103"/><linearGradient id="Áåçûìÿííûé_ãðàäèåíò_153" x1="20.23" y1="81.88" x2="35.3" y2="81.88" gradientUnits="userSpaceOnUse"><stop offset="0" stop-color="#860057"/><stop offset="0.21" stop-color="#8a0a4d"/><stop offset="0.55" stop-color="#8e1343"/><stop offset="0.99" stop-color="#8f1640"/></linearGradient><linearGradient id="Áåçûìÿííûé_ãðàäèåíò_100-6" x1="20.23" y1="81.88" x2="32.65" y2="81.88" xlink:href="#Áåçûìÿííûé_ãðàäèåíò_100"/><linearGradient id="Áåçûìÿííûé_ãðàäèåíò_60-4" x1="36.72" y1="23.44" x2="36.72" y2="18.21" xlink:href="#Áåçûìÿííûé_ãðàäèåíò_60"/><linearGradient id="Áåçûìÿííûé_ãðàäèåíò_100-7" x1="29.76" y1="21.07" x2="43.69" y2="21.07" xlink:href="#Áåçûìÿííûé_ãðàäèåíò_100"/><linearGradient id="Áåçûìÿííûé_ãðàäèåíò_60-5" x1="6.89" y1="79.08" x2="6.89" y2="75.82" xlink:href="#Áåçûìÿííûé_ãðàäèåíò_60"/><linearGradient id="Áåçûìÿííûé_ãðàäèåíò_100-8" x1="4.84" y1="77.66" x2="8.94" y2="77.66" xlink:href="#Áåçûìÿííûé_ãðàäèåíò_100"/><linearGradient id="Áåçûìÿííûé_ãðàäèåíò_153-2" x1="88.96" y1="48.57" x2="92.97" y2="48.57" xlink:href="#Áåçûìÿííûé_ãðàäèåíò_153"/><linearGradient id="Áåçûìÿííûé_ãðàäèåíò_118-2" x1="88.96" y1="48.57" x2="92.97" y2="48.57" xlink:href="#Áåçûìÿííûé_ãðàäèåíò_118"/></defs><g class="cls-1"><g id="Layer_2" data-name="Layer 2"><g id="planets"><path class="cls-2" d="M68.89,83.28l14.6.84s12.09-3.64,18.12-11.32l2.83-16L99.76,42.19,74.3,58.47S68.52,78,68.89,83.28Z"/><path class="cls-3" d="M100.89,53a47.33,47.33,0,0,1-47.38,47.37c-.84,0-1.69,0-2.52-.07h0c-1.24-.06-2.47-.18-3.68-.33A47.07,47.07,0,0,1,23.1,89.27a48.27,48.27,0,0,1-11-13.3c-.29-.52-.57-1-.85-1.58,0,0,0,0,0,0-.29-.57-.56-1.14-.82-1.72h0A45.42,45.42,0,0,1,8.27,67a42.54,42.54,0,0,1-1.11-4.24.06.06,0,0,1,0,0c-.21-1-.39-2-.53-3.06A46.63,46.63,0,0,1,6.14,53c0-1.31.05-2.62.17-3.9.06-.82.15-1.63.26-2.44a46.44,46.44,0,0,1,3.79-13.23A47.42,47.42,0,0,1,53.51,5.58L55,5.6c.53,0,1.06,0,1.59.08a47.19,47.19,0,0,1,8,1.2c1.5.36,3,.78,4.41,1.28,1,.33,1.94.7,2.89,1.1.71.3,1.4.61,2.09.94l.36.17a47.47,47.47,0,0,1,12.39,8.76c.52.5,1,1,1.52,1.55.33.36.66.73,1,1.1.55.62,1.08,1.27,1.6,1.92A47.24,47.24,0,0,1,99.5,41.54,47.24,47.24,0,0,1,100.89,53Z"/><path class="cls-4" d="M26.09,49.29s8.38,7.49,10.46,10.58S45.64,84,45.83,88.45s-4,10.43-4,10.43-7.11-2-11.08-4.38L33.14,78Z"/><path class="cls-5" d="M75.55,63.22l13.1,6.49s2.6,1.75,5.69-1.52a21.8,21.8,0,0,0-1.58-9Z"/><g class="cls-6"><path class="cls-7" d="M27.45,51.77a23.57,23.57,0,0,0,1.26,13.68,15,15,0,0,0,1.32,3A8,8,0,0,0,31.9,70c.83.64,1.59,1.36,2.41,2a9.89,9.89,0,0,0,3,1.59c2.13.76,4.28,1.32,6.52.66a9.82,9.82,0,0,0,5.1-3.75c.54-.8,1.16-1.51,1.73-2.28a11.56,11.56,0,0,0,1.26-2.6,14,14,0,0,0,.79-5.77,14.72,14.72,0,0,0-.38-2.65c-.23-.9-.64-1.73-.81-2.64A20.56,20.56,0,0,0,50,50.31c-1.49-3.48-5.36-5.56-8.93-6.08a17,17,0,0,0-5,.4,15.44,15.44,0,0,0-4.56,1.84A6.9,6.9,0,0,0,29,48.21,7.34,7.34,0,0,0,27.45,51.77Z"/><path class="cls-7" d="M41.75,77a9.63,9.63,0,0,1,2.93-1.91,2.1,2.1,0,0,1,2,.43c1.17.84.95,2.78,0,3.77a2.88,2.88,0,0,1-4.84-1.94Z"/><path class="cls-7" d="M58.09,61.87c-.46-.63-.78-.84-.76-1.46a6,6,0,0,1,.8-1.83,5.8,5.8,0,0,1,3.4-2.8,10.12,10.12,0,0,1,3.08-.49,8.31,8.31,0,0,1,2.69.58A11.26,11.26,0,0,1,72,58.58a3.77,3.77,0,0,1,0,4.66,11.32,11.32,0,0,1-2.9,2.18,14.26,14.26,0,0,1-3.61,2,3.7,3.7,0,0,1-2.25.11,12.71,12.71,0,0,1-2.16-.83,5.77,5.77,0,0,1-1.71-1,6.92,6.92,0,0,1-1.21-1.53A2.49,2.49,0,0,1,58.09,61.87Z"/><path class="cls-7" d="M54.49,53.29c-.2.61-.62,1.85.5,1.79a2.78,2.78,0,0,0,1.52-.78c1.11-1.29-1.54-2.16-1.77-1Z"/><path class="cls-7" d="M71,84.26a3,3,0,0,1-.29-2.72,26.18,26.18,0,0,1,2.37-5.33c.59-1,1.33-2.4,2.45-2.89a9,9,0,0,1,2.93-.69,7,7,0,0,1,5.3,2.28A8.55,8.55,0,0,1,86,77.69a7.36,7.36,0,0,1,.64,3.52c-.31,3.21-3.1,5.48-5.17,7.67-1.64,1.74-4.36,3.91-6.91,3-1.76-.64-2.81-2.5-3.53-4.12A5.73,5.73,0,0,1,71,84.26Z"/><path class="cls-7" d="M68.24,75.86a2.9,2.9,0,0,0-1,1.92c-.11.58-.34,1.87.22,2.34s1.42-.29,1.82-.54a3.66,3.66,0,0,0,.85-.77,2.14,2.14,0,0,0,.4-.51,2.8,2.8,0,0,0,.07-1.12,1.62,1.62,0,0,0-.55-1.05,1.38,1.38,0,0,0-.8-.37C68.89,75.68,68.44,75.53,68.24,75.86Z"/><path class="cls-7" d="M50.19,96.68c-.07.18-.13.3,0,.48a3.25,3.25,0,0,0,.55.56,3.14,3.14,0,0,0,1.63.72,4.63,4.63,0,0,0,1.89.08A1.9,1.9,0,0,0,55.39,98c.49-.63.08-1.58-.24-2.19-.25-.46-.6-.87-.88-1.31a5.79,5.79,0,0,0-1.18-1.24c-.53-.44-1.36-1-2.05-.56a3.48,3.48,0,0,0-1.18,2.07,2.41,2.41,0,0,0,.07,1.33C50,96.41,50.25,96.61,50.19,96.68Z"/><path class="cls-7" d="M88.63,78.3c-.38-.32-.52-.33-.48-.76a4.6,4.6,0,0,1,.25-1.33,6.6,6.6,0,0,1,1.88-2.35,4.2,4.2,0,0,1,1.46-.78,1.7,1.7,0,0,1,.79-.16,1.13,1.13,0,0,1,1,.83A2.6,2.6,0,0,1,93,75.88,6.25,6.25,0,0,1,91.28,78c-.37.23-.76.46-1.15.66a1.41,1.41,0,0,1-.77.2C89.17,78.85,88.57,78.7,88.63,78.3Z"/><path class="cls-7" d="M11.29,45.46c.1.42.11.85.25,1.26A5.69,5.69,0,0,0,13,48.88a8.6,8.6,0,0,0,4.44,1.95,13.58,13.58,0,0,0,2.53.32c.69,0,1.41.15,2.08.1a7.27,7.27,0,0,0,3.19-1c1.45-.86,2.63-2.19,2.16-3.94a5.58,5.58,0,0,0-1.6-2.47,8.45,8.45,0,0,0-2.36-2c-.44-.2-.88-.4-1.33-.58a8.46,8.46,0,0,0-1.61-.61,14.68,14.68,0,0,0-1.44-.29,11.7,11.7,0,0,0-1.45,0A7.83,7.83,0,0,0,13,42.76c-.47.48-.87,1-1.33,1.5A1.54,1.54,0,0,0,11.29,45.46Z"/><path class="cls-7" d="M46.38,33.54a3,3,0,0,0-.71,1.77,9.38,9.38,0,0,0,.26,3.21c.62,2.45,2.54,4.43,4.18,6.27a30,30,0,0,0,9.41,7.53c1.46.68,3,1.46,4.66,1.24a26.45,26.45,0,0,0,4.62-1.31,25.33,25.33,0,0,1,4.21-1c.65-.09,1.31-.18,2-.25a15.83,15.83,0,0,0,2.69-.76c1.32-.39,2.7-.63,4-1a10.27,10.27,0,0,0,1.75-.73c.91-.47,1.9-.76,2.81-1.26a11.63,11.63,0,0,0,5.86-9.47A10.75,10.75,0,0,0,90.48,32c-.57-.95-1.28-1.81-1.91-2.73A20.94,20.94,0,0,0,85.78,26a16.19,16.19,0,0,0-6.61-3.8A13.48,13.48,0,0,0,75,21.6a35.19,35.19,0,0,0-6.71.76c-2.19.44-4.41.91-6.56,1.52a44.53,44.53,0,0,0-6.69,2.6,13.6,13.6,0,0,0-5.53,4.39c-.32.45-.68.88-1,1.34a2.91,2.91,0,0,1-.71.89A1.66,1.66,0,0,1,46.38,33.54Z"/></g><path class="cls-8" d="M94,42.13,100.89,53s.22-7.24-.8-8.7S94,42.13,94,42.13Z"/><path class="cls-9" d="M11.54,34S25.07,42.69,62.07,41L77,42.19s14.16-4.82,17.37-13.28c0,0-4.18-6-5.16-7.13s-18.4,2.66-18.4,2.66Z"/><path class="cls-10" d="M13.53,24.81V22.06a157,157,0,0,1,19.8-20.3s32-2.83,41.11,0L78,10l10.61,4,.53,7.76s-7,11.08-19.66,14.95L63.1,35.2s-7,2.91-25.6,2.91c-19,0-26-4.15-26-4.15V27.59Z"/><path class="cls-11" d="M40.34,84.84,37.23,93l-9.59,2.28-9.7-.44S7.65,88.27,2.72,78l1.07-9.39L.15,65.2A23.42,23.42,0,0,1,6.57,48.42s8-2.24,19.52.87l7.07,7.84S39,68.17,40.34,84.84Z"/><path class="cls-12" d="M52.94,90.39s2.18,2.88,3.5,3.45A59.69,59.69,0,0,0,66,96c.86-.09.86-7.89.38-9.15a8.52,8.52,0,0,0-1.32-2.27Z"/><path class="cls-13" d="M106.36,31.63,106,34.72l-5.39,10c-3,.08-6.24-2.33-6.62-2.63l0,0C91.78,38.58,91,30.84,91,30.84l2.52-3.11L97.67,27l1,.61,3.66-1,2.87,1.83.85.55Z"/><path class="cls-14" d="M95.08,46.7s-6-3.29-9-3.18l-7.51,5.14S75.55,57,75.55,63.22c0,0,7.24,2.61,12.33,1.89,0,0,5.82-2.58,7.83-6.84C95.71,58.27,96.5,51,95.08,46.7Z"/><path class="cls-15" d="M13.53,22.06A116.71,116.71,0,0,0,42.8,18.57S58.34,13.12,61.37,11,74.44,1.76,74.44,1.76s-15.91-4-41.11,0C33.33,1.76,20.07,11.66,13.53,22.06Z"/><path class="cls-16" d="M78,10s-9.66,11.14-10.8,12.06-16.88,7.26-16.88,7.26L41.48,31.6s11.11-.1,13,0L58,28.15l12.26.51S81.52,21.87,88.65,14Z"/><path class="cls-17" d="M11.54,27.59l9.85.94s6.57.28,10.36-1c0,0-13.19-.65-18.22-2.73Z"/><path class="cls-18" d="M78.61,48.66s4.3,1.62,7.13,1.43,9.34-3.39,9.34-3.39-3-2.61-9-3.18Z"/><path class="cls-19" d="M.14,65.2s13-2.84,16.58-4.27,9.36-11.64,9.36-11.64S18.94,46,6.57,48.42C6.57,48.42-1.14,55.59.14,65.2Z"/><path class="cls-20" d="M3.79,68.56s9.11-1.19,12.33-2.08,8.25-4,8.25-4-3.86,8.79-5.25,10.78c0,0-10.83,4.08-16.4,4.69A30.81,30.81,0,0,1,3.79,68.56Z"/><path class="cls-21" d="M52.47,88.22s2.08-4.56,4.54-5.54c0,0,5.88.06,8.06,1.91l-1.43,8.65-8.14-.56S52.47,91.14,52.47,88.22Z"/><path class="cls-22" d="M52.47,88.22a9.66,9.66,0,0,0,4.92,0c2.37-.73,5.31-4.55,5.31-4.55s-1.9-1.24-5.69-1C57,82.68,53.13,84.32,52.47,88.22Z"/><path class="cls-23" d="M40.34,84.84,37.23,93l-9.59,2.28-9.7-.44s9.61-.59,9.9-2,.94-5.49.94-5.49c-2.36-7.1-9.66-14-9.66-14a50.06,50.06,0,0,0,5.25-10.78l-4.14,2.31-2.7-4.31c4.48-4,8.56-11.19,8.56-11.19l7.07,7.84S39,68.17,40.34,84.84Z"/><polygon class="cls-24" points="59.08 87.3 63.64 93.24 65.06 84.59 62.7 83.67 59.08 87.3"/><path class="cls-25" d="M85.74,50.09a61.92,61.92,0,0,1,1.78,7.75c.19,2.27.36,7.27.36,7.27a16.82,16.82,0,0,0,7.83-6.84,31.52,31.52,0,0,0-.63-11.57S89.36,49.64,85.74,50.09Z"/><path class="cls-26" d="M94.78,31.73l1.15.9s2.52-1,2.6-2.32.17-2.72.17-2.72l-1-.61Z"/><path class="cls-27" d="M106.36,31.63,106,34.72l-5.39,10c-3,.08-6.24-2.33-6.62-2.63a10.3,10.3,0,0,0,5.57,1.63,42.85,42.85,0,0,0,0-5.16,35.68,35.68,0,0,0-1.62-6l7.31-4.24.85.55Z"/><path class="cls-28" d="M97.67,27l-2.89,4.75A5,5,0,0,1,91,30.84l2.52-3.11Z"/><path class="cls-29" d="M98.7,27.59l-.17,2.72a10.13,10.13,0,0,1-3.43,2.76,25.8,25.8,0,0,0,5.48-1.17s4.51-1.8,5.51-3l-3.72-2.38Z"/><path class="cls-30" d="M44,18l9.53,10,13.72-6S77.29,11,78,10l-3.6-8.24S64.59,8.57,61.37,11,44,18,44,18Z"/><path class="cls-31" d="M58,28.15,63.1,35.2a46,46,0,0,1-8,1.8l-.63-5.4Z"/><path class="cls-32" d="M70.28,28.66l-.76,8.07S82.83,32,89.18,21.78L88.65,14S78.51,23.57,70.28,28.66Z"/><path class="cls-33" d="M15.19,27.94l9.18,9.66h4.56L29.76,28S19.47,29,15.19,27.94Z"/><g class="cls-34"><path class="cls-35" d="M17.22,18.93c-.19-.53-.06-.72.23-1.21a20.68,20.68,0,0,1,1.63-2.1A16.62,16.62,0,0,1,22.75,12c1.49-1,3-2.1,4.54-3a23.31,23.31,0,0,1,3.33-1.63c.81-.3,1.66-.53,2.49-.78a7.61,7.61,0,0,1,5.42.12,4,4,0,0,1,1.69,2.42,2.53,2.53,0,0,1,.23,1.41A5.38,5.38,0,0,1,39.94,12a11.56,11.56,0,0,1-3,3.51,24.86,24.86,0,0,1-7.83,4.26c-.76.26-1.52.55-2.31.74-.51.12-1,.17-1.53.3a29.15,29.15,0,0,1-3.59.69c-.33,0-.71.15-1,.15a6.74,6.74,0,0,1-.88-.24,5.82,5.82,0,0,1-1.62-.31C17,20.41,16.83,19.15,17.22,18.93Z"/><path class="cls-35" d="M36.68,17.54c.1-.49.07-.51.38-.79a5,5,0,0,1,.6-.69,5.3,5.3,0,0,1,.93-.64,4.41,4.41,0,0,1,3.24-.8c.76.23,1.18.59,1,1.41A2.42,2.42,0,0,1,42,17.26a9.1,9.1,0,0,1-2.16,1.14,3.69,3.69,0,0,1-2,.25C37.2,18.53,36.6,17.9,36.68,17.54Z"/><path class="cls-35" d="M53.22,3.9a6.44,6.44,0,0,0-2.06.94,35,35,0,0,0-3.22,2.32,8.42,8.42,0,0,0-1.66,1.91A4.41,4.41,0,0,0,45.79,11c0,.67.16,1.86.88,2.16a3.36,3.36,0,0,0,1,0,6.49,6.49,0,0,0,1.81-.26c.61-.15,1.23-.19,1.83-.37L53.22,12a19.79,19.79,0,0,0,3.91-1.25c1.19-.57,2.42-1,3.59-1.66.84-.44,1.66-.89,2.53-1.28,1.2-.55,2.4-1.08,3.56-1.71A5,5,0,0,0,68,5.1a6.53,6.53,0,0,0,1.11-1.18,2.11,2.11,0,0,0,.41-.87c0-.33-.49-.75-.74-.9a4,4,0,0,0-1.54-.5A13.85,13.85,0,0,0,65,1.51a25.91,25.91,0,0,0-2.77.36,9.06,9.06,0,0,1-1.72.27,21.46,21.46,0,0,0-3.19.27,15.36,15.36,0,0,0-1.8.48,9.07,9.07,0,0,0-1.63.51C53.58,3.52,52.65,3.72,53.22,3.9Z"/><path class="cls-35" d="M50.7,2.13a3.89,3.89,0,0,0-1.8,1.18c-.23.39.09.47.45.47a7.24,7.24,0,0,0,1.85-.45,4.14,4.14,0,0,0,1.32-.64c.19-.13.55-.26.43-.53s-.45-.34-.61-.38a1.93,1.93,0,0,0-1.77.35Z"/><path class="cls-35" d="M71.41,20.45c-.52.17-1,.26-1.56.42a5.41,5.41,0,0,0-1.45.8,7,7,0,0,0-2.05,2.07c-.39.69-.81,2,0,2.52,1.12.78,2.87,0,4-.38a17.66,17.66,0,0,0,5.17-2.4c.63-.48,1.24-1.07,1.82-1.61a15.58,15.58,0,0,0,1.39-1.54,2,2,0,0,0,.28-1.4,1.36,1.36,0,0,0-.91-1c-.83-.33-1.53.06-2.35.19a8.22,8.22,0,0,0-2.6.82C72,19.61,70.76,20.17,71.41,20.45Z"/><path class="cls-35" d="M74.32,15.77a1.31,1.31,0,0,1-.26-.62c.26-.07.4-.36.57-.52a2.07,2.07,0,0,1,.52-.33c.31-.15.85-.41,1.19-.28a1,1,0,0,1,.48,1.5,2.21,2.21,0,0,1-1.65,1.11c-.5.07-1.59-.65-1-1.24Z"/><path class="cls-35" d="M81.77,14a6.26,6.26,0,0,0-1.43.29c-.09,0-.2.18-.29.24a13.08,13.08,0,0,0-1.32.87c-.43.38-.91,1.06-.68,1.65.78,2.05,3.63.9,4.92.18a10.69,10.69,0,0,0,1.13-.88,2.94,2.94,0,0,0,.76-.69A1.11,1.11,0,0,0,85,14.38a1.38,1.38,0,0,0-1-.73A5,5,0,0,0,83,13.49a5.45,5.45,0,0,0-2.34,1Z"/><path class="cls-35" d="M7.24,50.76a11,11,0,0,0-4.8,4.3,14.9,14.9,0,0,0-1.23,2.62c-.18.47-.25,1-.44,1.45a6,6,0,0,0-.4,1.24c-.18,1-.65,3,1,3.17a8.75,8.75,0,0,0,2.27-.26,19.31,19.31,0,0,0,4.11-1.45,20.52,20.52,0,0,0,4.1-2.41,38.84,38.84,0,0,0,3.5-2.75c1.26-1.27,3.07-3.35,1.65-5.16s-4.22-1.32-6.09-1.1a16.64,16.64,0,0,0-2.72.38,3.48,3.48,0,0,0-.63.26C7.39,51.12,7.28,51.27,7.24,50.76Z"/><path class="cls-35" d="M14.19,59.23a1.62,1.62,0,0,1,.49-.93c.32-.32.61-.66.93-1a4.29,4.29,0,0,1,2.25-1.14,1.33,1.33,0,0,1,1,.26c.26.28.14.82,0,1.13a2,2,0,0,1-.54.77,6.3,6.3,0,0,1-1,.81,8.68,8.68,0,0,1-1.5.55c-.4.12-1,.32-1.39,0S14,59.07,14.19,59.23Z"/><path class="cls-35" d="M8.76,69.58A4.17,4.17,0,0,0,7.35,70a4.17,4.17,0,0,0-.84.89c-.5.65-.93,1.36-1.42,2A18.21,18.21,0,0,0,4,74.62a1.12,1.12,0,0,0-.13,1.19c.55,1.07,2.28.81,3.21.59a16.91,16.91,0,0,0,2.83-1.14c.85-.37,1.73-.69,2.54-1.13,1.39-.75,3.09-1.52,3.85-3a1.79,1.79,0,0,0,.15-1.66,2.64,2.64,0,0,0-1.2-1.29,3.56,3.56,0,0,0-1.8-.24,9.1,9.1,0,0,0-2.64.37c-.53.16-1.09.42-1.6.63C8.38,69.27,8,69.91,8.76,69.58Z"/><path class="cls-35" d="M3.83,70.47a1.89,1.89,0,0,1,0-.63c.37-.12.54-.53,1-.39a.58.58,0,0,1,.31.76c-.17.54-1.48,1.65-1.45.51Z"/><path class="cls-35" d="M86.57,45.2q-.94,0-1.89.15a2.15,2.15,0,0,1-.54.34,8.86,8.86,0,0,0-1.8,1.08c-.46.39-1.53,1.09-1.47,1.82s1,.8,1.55.8,1.06-.12,1.59-.14c.73,0,1.46-.13,2.19-.22A7.33,7.33,0,0,0,89,48.27a3.82,3.82,0,0,0,1.17-1c.16-.2.41-.41.36-.69a2.07,2.07,0,0,0-.52-.7,2.75,2.75,0,0,0-.73-.41C88,44.91,86.65,45.34,86.57,45.2Z"/><path class="cls-35" d="M55.62,85.63c-.51.22-.82.27-1,.74-.08.18-.36.55-.35.78s.33.31.6.23a4.12,4.12,0,0,0,1-.59,2.75,2.75,0,0,0,.59-.54.77.77,0,0,0,.24-.37c0-.17-.06-.31.11-.41-.11-.74-1.49.27-1.75.28Z"/><path class="cls-35" d="M59.16,84.24a2.92,2.92,0,0,0-1.72,1.39.86.86,0,0,0-.12.75c.41.8,1.29.09,1.74-.25a6.14,6.14,0,0,0,.92-.69c.12-.13.21-.28.32-.42a2.35,2.35,0,0,0,.36-.41c.12-.29-.08-.51-.36-.6-.51-.16-.91.18-1.39.23Z"/><path class="cls-35" d="M17.85,66.93c-.23.5-1.07,2.4,0,2.39s2.56-1.06,2.61-2.14c0-.71-.54-1.06-1.2-1.14-.85-.1-1.34.58-1.71,1.27Z"/><path class="cls-35" d="M20.76,50.64c-.22.29-.53.55-.22.85a.89.89,0,0,0,.53.28c.43.06,1.06-.33,1.08-.76a.87.87,0,0,0-.38-.76c-.35-.25-.58-.09-.88.13Z"/></g><path class="cls-36" d="M32.44,20.8s5.65-1.74,6.89-2.23,7.54-1.51,7.54-1.51,5.41-2.32,6.92-3,5.37-2.61,5.37-2.61l4.49-2.05s-3,3.11-5.69,4.13-9.41,3.74-9.41,3.74-2,.56-4.86,1.48S32.44,20.8,32.44,20.8Z"/><path class="cls-37" d="M67.58,28.56l2.59,1.25s2.68-1.6,3.1-3.13C73.27,26.68,68.19,28.08,67.58,28.56Z"/><polygon class="cls-37" points="53.27 31.6 54.57 32.35 55.52 30.59 53.27 31.6"/><path class="cls-38" d="M32.44,48.47s3.07,3.06,9.79,5.12c0,0,.48-.49,1.05-3.38s0-3.9,0-3.9S35,47.35,32.44,48.47Z"/><path class="cls-39" d="M37,57.62a5.11,5.11,0,0,0,.46,1.72c.38.71,4.63,1.77,5.19,1.53,1-.44-.13-3-.58-3.73a9.07,9.07,0,0,0-1.16-1.5Z"/><path class="cls-37" d="M10.59,76.12a69.58,69.58,0,0,0,7.55-3.85c1.8-1.3,4.5-6,4.5-6L19.75,73.5l-1.93.73-2.05.44Z"/><path class="cls-37" d="M14.14,61.78,19,59s-.46,1.57-1.16,2A16.88,16.88,0,0,1,14.14,61.78Z"/><path class="cls-40" d="M84,50l2.17,1.74s.53-1.42.63-1.88S84,50,84,50Z"/><path class="cls-37" d="M96.44,32.89l3.11-1,2.72-.71-3.57,1.9C98.18,33.35,96.44,32.89,96.44,32.89Z"/><polygon class="cls-37" points="93.98 31.8 95.1 30.93 95.1 31.98 93.98 31.8"/><polygon class="cls-40" points="56.55 88.42 60.27 86.31 59.83 88.27 56.55 88.42"/><path class="cls-41" d="M14.92,27.94s2.83-.23,4.49-.23,4.95.32,4.95.32l3.18.32s-1.82.14-5.67.21A33.54,33.54,0,0,1,14.92,27.94Z"/><path class="cls-42" d="M30.87,45.82s2.9-3.23,4.16-3.69,7.19,2.24,8.24,2.63-2,6.39-2.79,7S31,49.22,30.87,45.82Z"/><path class="cls-43" d="M41.75,59.34c-.27.77-2.92.37-3.87,0l-.07,0-.2-.14a.12.12,0,0,1,0,0,4,4,0,0,1-.38-3.62s2.31-.71,3.16-.41c.55.19,1.1,1.61,1.34,2.79h0A3.61,3.61,0,0,1,41.75,59.34Z"/><path class="cls-44" d="M38.28,47.64l2.2,4.13s2.82-3.07,3-6.6Z"/><path class="cls-45" d="M9.79,34.71,4.45,36a18.39,18.39,0,0,0-.74,4.38L7,43.88S8,37.6,9.79,34.71Z"/><path class="cls-46" d="M30.87,45.82a23.07,23.07,0,0,0,5.8,1.82c3.2.53,6.81-2.47,6.81-2.47a16.64,16.64,0,0,0-8.35-3.63S31.91,43.38,30.87,45.82Z"/><path class="cls-47" d="M41.75,59.34c-.27.77-2.92.37-3.87,0l-.07,0-.2-.14-.06,0h0l.72-1,3-.72.44.48h0A3.61,3.61,0,0,1,41.75,59.34Z"/><path class="cls-48" d="M37.17,55.49S37.12,57.6,38,58s2.95-.43,3.22-.64-.63-2.13-1.4-2.38A6.21,6.21,0,0,0,37.17,55.49Z"/><path class="cls-49" d="M83.18,83.7a5.51,5.51,0,0,0-1.79,0c-.78.18-2,4.25-2,4.86,0,2.4,2.79,1.72,3.64,1.5S84,88,84,88Z"/><path class="cls-50" d="M80.24,87.85c-.67-.47.42-2.91,1-3.73l.06-.06.19-.15.06,0a4,4,0,0,1,3.59.61s.07,2.41-.45,3.15c-.33.48-1.84.63-3,.55h0A3.54,3.54,0,0,1,80.24,87.85Z"/><path class="cls-51" d="M80.24,87.85c-.67-.47.42-2.91,1-3.73l.06-.06.19-.15.06,0h0l.77,1-.09,3-.58.3h0A3.54,3.54,0,0,1,80.24,87.85Z"/><path class="cls-52" d="M85.18,84.47s-2-.62-2.68.14-.37,3-.25,3.27,2.23,0,2.68-.71A6.19,6.19,0,0,0,85.18,84.47Z"/><polygon class="cls-53" points="20.23 80.09 25.18 80.44 32.83 80.09 35.3 80.95 32.65 80.57 27.54 82.97 27.17 83.67 24.37 82.91 20.23 80.09"/><polygon class="cls-54" points="20.23 80.09 24.37 82.65 25.84 82.42 28.07 82.23 32.65 80.57 27.54 82.97 27.17 83.67 24 83.08 20.23 80.09"/><polygon class="cls-55" points="29.76 21.05 33.79 23.44 38.28 23.09 43.69 18.71 36.72 18.21 32.44 19.31 29.76 21.05"/><path class="cls-56" d="M29.76,21.06H31.1l2.47.54h2.65l2.89-1.14,3.17-1.75h1.41a30.57,30.57,0,0,1-5.41,4.38l-4.49.35Z"/><path class="cls-57" d="M4.84,77.61l1.9-1.79,2.08.3a6.25,6.25,0,0,1,0,2.37c-.27,1-2.08.39-2.08.39Z"/><path class="cls-58" d="M4.84,77.61a20.39,20.39,0,0,0,2.23.63A2.79,2.79,0,0,0,8.46,78c.32-.25.36-1.83.36-1.83a6.44,6.44,0,0,1,0,2.37s0,.76-1.39.71l-.88-.27Z"/><path class="cls-59" d="M89,49.29a4.76,4.76,0,0,1,1.16-1.59,6.3,6.3,0,0,1,2.61-.42l.24.42s-.67,1.72-1.19,2a2.77,2.77,0,0,1-1.61,0Z"/><path class="cls-60" d="M92.73,47.28a6.35,6.35,0,0,1-1.16,1.46,7.36,7.36,0,0,1-1.08.55,5.61,5.61,0,0,1-1.53,0,6,6,0,0,0,2,.56s1,0,1.14-.13.86-2,.86-2Z"/></g></g></g></svg>