<svg id="Capa_1" enable-background="new 0 0 512.336 512.336" height="512" viewBox="0 0 512.336 512.336" width="512" xmlns="http://www.w3.org/2000/svg"><g><path d="m512.336 198.654-177.008-25.72-79.16-160.396-20 258.534 20 145.492 158.32 83.234-30.236-176.293z" fill="#ffda44"/><path d="m177.008 172.934-177.008 25.72 128.084 124.851-30.236 176.293 158.32-83.234v-404.026z" fill="#fff79f"/><path d="m415.633 230.076-110.188-16.012-49.277-99.847-10 44.854 10 22.932 29.355 59.481 65.641 9.538-47.498 46.299 11.213 65.376-58.711-30.866-10 19.573 10 14.32 98.555 51.814-18.823-109.743z" fill="#ffb655"/><path d="m197.457 362.697 11.213-65.376-47.498-46.299 65.641-9.538 29.355-59.481v-67.786l-49.277 99.847-110.188 16.012 79.733 77.719-18.823 109.743 98.555-51.814v-33.893z" fill="#ffda44"/></g></svg>